SplineFontDB: 3.0
FontName: Chivo-BoldItalic
FullName: Chivo Bold Italic
FamilyName: Chivo
Weight: Bold
Copyright: Copyright (c) 2011-2014 by Omnibus-Type (www.omnibus-type.com omnibus.type@gmail.com), with Reserved Font Name 'Chivo'
UComments: "Disclaimer+AAoA +AAoA-Omnibus-Type give no warranty in relation to this font, and you use this+AAoA-at your own risk.+AAoA +AAoA-Omnibus-Type shall not be liable for any direct, indirect, consequential, or incidental damages (including damages from loss of business profits, business interruption, loss of business information, and the like) arising out of the use of or inability to use the fonts.+AAoA +AAoA +AAoA-If you have further questions, please contact us:+AAoA-omnibus.type@gmail.com" 

StartChar: .notdef
Encoding: 0 -1 0
Width: 500
Flags: MW
HStem: 0 50<80 420 80 500> 650 50<80 80 80 420>
VStem: 0 50<95 605 95 700> 450 50<95 605 605 605>
LayerCount: 2
Fore
SplineSet
500 700 m 1,0,-1
 500 0 l 1,1,-1
 0 0 l 1,2,-1
 0 700 l 1,3,-1
 500 700 l 1,0,-1
80 650 m 1,4,-1
 250 395 l 1,5,-1
 420 650 l 1,6,-1
 80 650 l 1,4,-1
220 350 m 1,7,-1
 50 605 l 1,8,-1
 50 95 l 1,9,-1
 220 350 l 1,7,-1
450 605 m 1,10,-1
 280 350 l 1,11,-1
 450 95 l 1,12,-1
 450 605 l 1,10,-1
250 305 m 1,13,-1
 80 50 l 1,14,-1
 420 50 l 1,15,-1
 250 305 l 1,13,-1
EndSplineSet
EndChar

StartChar: A
Encoding: 1 65 1
Width: 686
GlyphClass: 2
Flags: MW
HStem: 0 21G<-46 102 -46 -46 473 473 473 635> 135 117<169 418 228 418 228 442> 521 165<359 364 359 359> 666 20G<299 483 483 483>
VStem: -46 681<0 0>
LayerCount: 2
Fore
SplineSet
169 135 m 1,0,-1
 102 0 l 1,1,-1
 -46 0 l 1,2,-1
 299 686 l 1,3,-1
 483 686 l 1,4,-1
 635 0 l 1,5,-1
 473 0 l 1,6,-1
 442 135 l 1,7,-1
 169 135 l 1,0,-1
364 521 m 1,8,-1
 359 521 l 1,9,10
 285 372 285 372 228 252 c 1,11,-1
 418 252 l 1,12,-1
 364 521 l 1,8,-1
EndSplineSet
Substitution2: "Single Substitution lookup 5 subtable" ordfeminine
Substitution2: "'aalt' Access All Alternates lookup 0 subtable" ordfeminine
Position2: "'cpsp' Capital Spacing lookup 0 subtable" dx=5 dy=0 dh=10 dv=0
EndChar

StartChar: Aacute
Encoding: 2 193 2
Width: 686
GlyphClass: 2
Flags: MW
HStem: 0 21G<-46 102 -46 -46 473 473 473 635> 135 117<169 418 228 418 228 442> 521 165<359 364 359 359> 666 20G<299 483 483 483> 750 145<326 568 326 568>
VStem: -46 681<0 0>
LayerCount: 2
Fore
SplineSet
439 895 m 1,0,-1
 568 895 l 1,1,-1
 568 891 l 1,2,-1
 427 750 l 1,3,-1
 326 750 l 1,4,-1
 439 895 l 1,0,-1
169 135 m 1,5,-1
 102 0 l 1,6,-1
 -46 0 l 1,7,-1
 299 686 l 1,8,-1
 483 686 l 1,9,-1
 635 0 l 1,10,-1
 473 0 l 1,11,-1
 442 135 l 1,12,-1
 169 135 l 1,5,-1
364 521 m 1,13,-1
 359 521 l 1,14,15
 285 372 285 372 228 252 c 1,16,-1
 418 252 l 1,17,-1
 364 521 l 1,13,-1
EndSplineSet
Position2: "'cpsp' Capital Spacing lookup 0 subtable" dx=5 dy=0 dh=10 dv=0
EndChar

StartChar: Abreve
Encoding: 3 258 3
Width: 686
GlyphClass: 2
Flags: MW
HStem: 0 21G<-46 102 -46 -46 473 473 473 635> 135 117<169 418 228 418 228 442> 521 165<359 364 359 359> 666 20G<299 483 483 483> 788 74<391 448 391 463.5>
VStem: -46 681<0 0>
LayerCount: 2
Fore
SplineSet
550.5 827.5 m 128,-1,1
 487 788 487 788 412 788 c 128,-1,2
 337 788 337 788 285.5 824.5 c 128,-1,3
 234 861 234 861 234 904 c 0,4,5
 234 909 234 909 235 912 c 1,6,-1
 316 912 l 1,7,8
 318 893 318 893 348 877.5 c 128,-1,9
 378 862 378 862 419 862 c 128,-1,10
 460 862 460 862 496 878 c 128,-1,11
 532 894 532 894 538 912 c 1,12,-1
 620 912 l 1,13,0
 614 867 614 867 550.5 827.5 c 128,-1,1
169 135 m 1,14,-1
 102 0 l 1,15,-1
 -46 0 l 1,16,-1
 299 686 l 1,17,-1
 483 686 l 1,18,-1
 635 0 l 1,19,-1
 473 0 l 1,20,-1
 442 135 l 1,21,-1
 169 135 l 1,14,-1
364 521 m 1,22,-1
 359 521 l 1,23,24
 285 372 285 372 228 252 c 1,25,-1
 418 252 l 1,26,-1
 364 521 l 1,22,-1
EndSplineSet
EndChar

StartChar: Acircumflex
Encoding: 4 194 4
Width: 686
GlyphClass: 2
Flags: MW
HStem: 0 21G<-46 102 -46 -46 473 473 473 635> 135 117<169 418 228 418 228 442> 521 165<359 364 359 359> 666 20G<299 483 483 483> 750 145<206 468 365 584 365 479>
VStem: -46 681<0 0>
LayerCount: 2
Fore
SplineSet
365 895 m 1,0,-1
 468 895 l 1,1,2
 537 808 537 808 584 750 c 1,3,-1
 479 750 l 1,4,-1
 407 833 l 1,5,-1
 310 750 l 1,6,-1
 206 750 l 1,7,-1
 365 895 l 1,0,-1
169 135 m 1,8,-1
 102 0 l 1,9,-1
 -46 0 l 1,10,-1
 299 686 l 1,11,-1
 483 686 l 1,12,-1
 635 0 l 1,13,-1
 473 0 l 1,14,-1
 442 135 l 1,15,-1
 169 135 l 1,8,-1
364 521 m 1,16,-1
 359 521 l 1,17,18
 285 372 285 372 228 252 c 1,19,-1
 418 252 l 1,20,-1
 364 521 l 1,16,-1
EndSplineSet
Position2: "'cpsp' Capital Spacing lookup 0 subtable" dx=5 dy=0 dh=10 dv=0
EndChar

StartChar: Adieresis
Encoding: 5 196 5
Width: 686
GlyphClass: 2
Flags: MW
HStem: 0 21G<-46 102 -46 -46 473 473 473 635> 135 117<169 418 228 418 228 442> 521 165<359 364 359 359> 666 20G<299 483 483 483> 750 122<247 351 230 368 247 434 451 555>
VStem: -46 681<0 0>
LayerCount: 2
Fore
SplineSet
368 872 m 1,0,-1
 351 750 l 1,1,-1
 230 750 l 1,2,-1
 247 872 l 1,3,-1
 368 872 l 1,0,-1
572 872 m 1,4,-1
 555 750 l 1,5,-1
 434 750 l 1,6,-1
 451 872 l 1,7,-1
 572 872 l 1,4,-1
169 135 m 1,8,-1
 102 0 l 1,9,-1
 -46 0 l 1,10,-1
 299 686 l 1,11,-1
 483 686 l 1,12,-1
 635 0 l 1,13,-1
 473 0 l 1,14,-1
 442 135 l 1,15,-1
 169 135 l 1,8,-1
364 521 m 1,16,-1
 359 521 l 1,17,18
 285 372 285 372 228 252 c 1,19,-1
 418 252 l 1,20,-1
 364 521 l 1,16,-1
EndSplineSet
Position2: "'cpsp' Capital Spacing lookup 0 subtable" dx=5 dy=0 dh=10 dv=0
EndChar

StartChar: Agrave
Encoding: 6 192 6
Width: 686
GlyphClass: 2
Flags: MW
HStem: 0 21G<-46 102 -46 -46 473 473 473 635> 135 117<169 418 228 418 228 442> 521 165<359 364 359 359> 666 20G<299 483 483 483> 750 145<361 391 263 463 361 361>
VStem: -46 681<0 0>
LayerCount: 2
Fore
SplineSet
261 892 m 1,0,-1
 263 895 l 1,1,-1
 391 895 l 1,2,-1
 463 750 l 1,3,-1
 361 750 l 1,4,-1
 261 892 l 1,0,-1
169 135 m 1,5,-1
 102 0 l 1,6,-1
 -46 0 l 1,7,-1
 299 686 l 1,8,-1
 483 686 l 1,9,-1
 635 0 l 1,10,-1
 473 0 l 1,11,-1
 442 135 l 1,12,-1
 169 135 l 1,5,-1
364 521 m 1,13,-1
 359 521 l 1,14,15
 285 372 285 372 228 252 c 1,16,-1
 418 252 l 1,17,-1
 364 521 l 1,13,-1
EndSplineSet
Position2: "'cpsp' Capital Spacing lookup 0 subtable" dx=5 dy=0 dh=10 dv=0
EndChar

StartChar: Amacron
Encoding: 7 256 7
Width: 686
GlyphClass: 2
Flags: MW
HStem: 0 21G<-46 102 -46 -46 473 473 473 635> 135 117<169 418 228 418 228 442> 521 165<359 364 359 359> 666 20G<299 483 483 483> 837 74<277 584 266 595>
VStem: -46 681<0 0>
LayerCount: 2
Fore
SplineSet
277 911 m 1,0,-1
 595 911 l 1,1,-1
 584 837 l 1,2,-1
 266 837 l 1,3,-1
 277 911 l 1,0,-1
169 135 m 1,4,-1
 102 0 l 1,5,-1
 -46 0 l 1,6,-1
 299 686 l 1,7,-1
 483 686 l 1,8,-1
 635 0 l 1,9,-1
 473 0 l 1,10,-1
 442 135 l 1,11,-1
 169 135 l 1,4,-1
364 521 m 1,12,-1
 359 521 l 1,13,14
 285 372 285 372 228 252 c 1,15,-1
 418 252 l 1,16,-1
 364 521 l 1,12,-1
EndSplineSet
EndChar

StartChar: Aogonek
Encoding: 8 260 8
Width: 686
GlyphClass: 2
Flags: MW
HStem: -143 50<582.5 585.5> 0 21G<-46 102 -46 -46 473 547 473 473 609 609 609 635> 135 117<228 418 228 442 169 418> 521 165<359 364 359 359> 666 20G<299 483 483 483>
VStem: 482 71<-75 -63.5>
LayerCount: 2
Fore
SplineSet
661 -79 m 1,0,-1
 669 -119 l 1,1,2
 622 -143 622 -143 569 -143 c 0,3,4
 482 -143 482 -143 482 -83 c 0,5,6
 482 -39 482 -39 547 0 c 1,7,-1
 473 0 l 1,8,-1
 442 135 l 1,9,-1
 169 135 l 1,10,-1
 102 0 l 1,11,-1
 -46 0 l 1,12,-1
 299 686 l 1,13,-1
 483 686 l 1,14,-1
 635 0 l 1,15,-1
 609 0 l 1,16,17
 553 -29 553 -29 553 -64 c 0,18,19
 553 -93 553 -93 587.5 -93 c 0,20,21
 622 -93 622 -93 661 -79 c 1,0,-1
418 252 m 1,22,-1
 364 521 l 1,23,-1
 359 521 l 1,24,25
 285 372 285 372 228 252 c 1,26,-1
 418 252 l 1,22,-1
EndSplineSet
EndChar

StartChar: Aring
Encoding: 9 197 9
Width: 686
GlyphClass: 2
Flags: MW
HStem: 0 21G<-46 102 -46 -46 473 473 473 635> 135 117<169 418 228 418 228 442> 521 165<359 364 359 359> 666 20G<299 483 483 483> 730 53<393.5 418.5 393.5 430> 878 53<400.5 426.5>
VStem: 308 56<814 841> 457 55<818.5 846.5>
LayerCount: 2
Fore
SplineSet
486 905.5 m 128,-1,1
 512 880 512 880 512 837.5 c 128,-1,2
 512 795 512 795 478.5 762.5 c 128,-1,3
 445 730 445 730 402.5 730 c 128,-1,4
 360 730 360 730 334 755.5 c 128,-1,5
 308 781 308 781 308 823.5 c 128,-1,6
 308 866 308 866 342 898.5 c 128,-1,7
 376 931 376 931 418 931 c 128,-1,0
 460 931 460 931 486 905.5 c 128,-1,1
376 795.5 m 128,-1,9
 388 783 388 783 407 783 c 128,-1,10
 426 783 426 783 441.5 797.5 c 128,-1,11
 457 812 457 812 457 832.5 c 128,-1,12
 457 853 457 853 445 865.5 c 128,-1,13
 433 878 433 878 413 878 c 128,-1,14
 393 878 393 878 378.5 863 c 128,-1,15
 364 848 364 848 364 828 c 128,-1,8
 364 808 364 808 376 795.5 c 128,-1,9
169 135 m 1,16,-1
 102 0 l 1,17,-1
 -46 0 l 1,18,-1
 299 686 l 1,19,-1
 483 686 l 1,20,-1
 635 0 l 1,21,-1
 473 0 l 1,22,-1
 442 135 l 1,23,-1
 169 135 l 1,16,-1
364 521 m 1,24,-1
 359 521 l 1,25,26
 285 372 285 372 228 252 c 1,27,-1
 418 252 l 1,28,-1
 364 521 l 1,24,-1
EndSplineSet
Position2: "'cpsp' Capital Spacing lookup 0 subtable" dx=5 dy=0 dh=10 dv=0
EndChar

StartChar: Atilde
Encoding: 10 195 10
Width: 686
GlyphClass: 2
Flags: MW
HStem: 0 21G<-46 102 -46 -46 473 473 473 635> 135 117<169 418 228 418 228 442> 521 165<359 364 359 359> 666 20G<299 483 483 483> 749 86<455 496 455 501> 786 87<282 323>
VStem: -46 681<0 0>
LayerCount: 2
Fore
SplineSet
540 873 m 1,0,-1
 605 873 l 1,1,2
 599 825 599 825 558.5 787 c 128,-1,3
 518 749 518 749 462 749 c 0,4,5
 429 749 429 749 375.5 767.5 c 128,-1,6
 322 786 322 786 296 786 c 0,7,8
 255 786 255 786 239 749 c 1,9,-1
 174 749 l 1,10,11
 180 796 180 796 220.5 834.5 c 128,-1,12
 261 873 261 873 317 873 c 0,13,14
 350 873 350 873 403 854 c 128,-1,15
 456 835 456 835 482 835 c 0,16,17
 523 835 523 835 540 873 c 1,0,-1
169 135 m 1,18,-1
 102 0 l 1,19,-1
 -46 0 l 1,20,-1
 299 686 l 1,21,-1
 483 686 l 1,22,-1
 635 0 l 1,23,-1
 473 0 l 1,24,-1
 442 135 l 1,25,-1
 169 135 l 1,18,-1
364 521 m 1,26,-1
 359 521 l 1,27,28
 285 372 285 372 228 252 c 1,29,-1
 418 252 l 1,30,-1
 364 521 l 1,26,-1
EndSplineSet
Position2: "'cpsp' Capital Spacing lookup 0 subtable" dx=5 dy=0 dh=10 dv=0
EndChar

StartChar: AE
Encoding: 11 198 11
Width: 1004
GlyphClass: 2
Flags: MW
HStem: 0 123<622 915 622 915> 135 117<185 451 260 451 260 458> 290 121<607 914 607 607> 563 123<585 974 585 585>
VStem: 434 157.5
LayerCount: 2
Fore
SplineSet
185 135 m 1,0,-1
 98 0 l 1,1,-1
 -48 0 l 1,2,-1
 392 686 l 1,3,-1
 1008 686 l 1,4,-1
 974 563 l 1,5,-1
 585 563 l 1,6,-1
 598 411 l 1,7,-1
 931 411 l 1,8,-1
 914 290 l 1,9,-1
 607 290 l 1,10,11
 620 146 620 146 622 123 c 1,12,-1
 915 123 l 1,13,-1
 915 0 l 1,14,-1
 469 0 l 1,15,-1
 458 135 l 1,16,-1
 185 135 l 1,0,-1
451 252 m 1,17,-1
 434 521 l 1,18,-1
 429 521 l 1,19,20
 372 432 372 432 260 252 c 1,21,-1
 451 252 l 1,17,-1
EndSplineSet
Position2: "'cpsp' Capital Spacing lookup 0 subtable" dx=5 dy=0 dh=10 dv=0
EndChar

StartChar: B
Encoding: 12 66 12
Width: 645
GlyphClass: 2
Flags: MW
HStem: 0 124<186 348 348 369> 291 117<226 371 209 377> 568 118<248 399 248 248>
VStem: 439 148<189.5 239.5> 465 152<482 525>
LayerCount: 2
Fore
SplineSet
120 686 m 1,0,-1
 454 686 l 2,1,2
 524 686 524 686 570.5 645 c 128,-1,3
 617 604 617 604 617 533 c 0,4,5
 617 462 617 462 575 418 c 128,-1,6
 533 374 533 374 476 359 c 1,7,-1
 475 352 l 1,8,9
 587 328 587 328 587 216 c 0,10,11
 587 125 587 125 525 62.5 c 128,-1,12
 463 0 463 0 369 0 c 2,13,-1
 23 0 l 1,14,-1
 120 686 l 1,0,-1
226 408 m 1,15,-1
 377 408 l 2,16,17
 413 408 413 408 439 437 c 128,-1,18
 465 466 465 466 465 500.5 c 0,19,20
 465 535 465 535 447 551.5 c 128,-1,21
 429 568 429 568 399 568 c 2,22,-1
 248 568 l 1,23,24
 245 544 245 544 237.5 490.5 c 128,-1,25
 230 437 230 437 226 408 c 1,15,-1
186 124 m 1,26,-1
 348 124 l 2,27,28
 387 124 387 124 413 149.5 c 128,-1,29
 439 175 439 175 439 212 c 0,30,31
 439 249 439 249 419.5 270 c 128,-1,32
 400 291 400 291 371 291 c 2,33,-1
 209 291 l 1,34,35
 201 228 201 228 186 124 c 1,26,-1
EndSplineSet
Position2: "'cpsp' Capital Spacing lookup 0 subtable" dx=5 dy=0 dh=10 dv=0
EndChar

StartChar: C
Encoding: 13 67 13
Width: 683
GlyphClass: 2
Flags: MW
HStem: -10 123<286 297 297 311> 573 123<392 406 406 419>
VStem: 35 161<195.5 246> 501 147<453 544 459.5 494>
AnchorPoint: "Bottom" 306 0 basechar 0
LayerCount: 2
Fore
SplineSet
483 270 m 1,0,-1
 624 270 l 1,1,2
 605 135 605 135 522 62.5 c 128,-1,3
 439 -10 439 -10 311 -10 c 2,4,-1
 297 -10 l 2,5,6
 179 -10 179 -10 107 54.5 c 128,-1,7
 35 119 35 119 35 237 c 0,8,9
 35 255 35 255 54.5 395.5 c 0,10,11
 74 536 74 536 165.5 616 c 128,-1,12
 257 696 257 696 392 696 c 2,13,-1
 406 696 l 2,14,15
 515 696 515 696 581.5 637 c 128,-1,16
 648 578 648 578 648 468 c 0,17,18
 648 439 648 439 644 414 c 1,19,-1
 497 414 l 1,20,21
 499 427 499 427 501 453 c 1,22,-1
 501 457 l 2,23,24
 501 512 501 512 469 542.5 c 128,-1,25
 437 573 437 573 384 573 c 0,26,27
 303 573 303 573 265.5 525 c 128,-1,28
 228 477 228 477 212 370.5 c 0,29,30
 196 264 196 264 196 240 c 0,31,32
 196 113 196 113 325 113 c 0,33,34
 461 113 461 113 483 270 c 1,0,-1
EndSplineSet
Position2: "'cpsp' Capital Spacing lookup 0 subtable" dx=5 dy=0 dh=10 dv=0
EndChar

StartChar: Cacute
Encoding: 14 262 14
Width: 683
GlyphClass: 2
Flags: MW
HStem: -10 123<286 297 297 311> 573 123<392 406 406 419> 750 145<321 563 321 563>
VStem: 35 161<195.5 246> 501 147<453 544 459.5 494>
AnchorPoint: "Bottom" 306 0 basechar 0
LayerCount: 2
Fore
SplineSet
434 895 m 1,0,-1
 563 895 l 1,1,-1
 563 891 l 1,2,-1
 422 750 l 1,3,-1
 321 750 l 1,4,-1
 434 895 l 1,0,-1
483 270 m 1,5,-1
 624 270 l 1,6,7
 605 135 605 135 522 62.5 c 128,-1,8
 439 -10 439 -10 311 -10 c 2,9,-1
 297 -10 l 2,10,11
 179 -10 179 -10 107 54.5 c 128,-1,12
 35 119 35 119 35 237 c 0,13,14
 35 255 35 255 54.5 395.5 c 0,15,16
 74 536 74 536 165.5 616 c 128,-1,17
 257 696 257 696 392 696 c 2,18,-1
 406 696 l 2,19,20
 515 696 515 696 581.5 637 c 128,-1,21
 648 578 648 578 648 468 c 0,22,23
 648 439 648 439 644 414 c 1,24,-1
 497 414 l 1,25,26
 499 427 499 427 501 453 c 1,27,-1
 501 457 l 2,28,29
 501 512 501 512 469 542.5 c 128,-1,30
 437 573 437 573 384 573 c 0,31,32
 303 573 303 573 265.5 525 c 128,-1,33
 228 477 228 477 212 370.5 c 0,34,35
 196 264 196 264 196 240 c 0,36,37
 196 113 196 113 325 113 c 0,38,39
 461 113 461 113 483 270 c 1,5,-1
EndSplineSet
EndChar

StartChar: Ccaron
Encoding: 15 268 15
Width: 683
GlyphClass: 2
Flags: MW
HStem: -10 123<286 297 297 311> 573 123<392 406 406 419> 750 145<233 453 233 350>
VStem: 35 161<195.5 246> 501 147<453 544 459.5 494>
AnchorPoint: "Bottom" 306 0 basechar 0
LayerCount: 2
Fore
SplineSet
611 895 m 1,0,-1
 453 750 l 1,1,-1
 350 750 l 1,2,-1
 233 895 l 1,3,-1
 338 895 l 1,4,-1
 411 812 l 1,5,-1
 507 895 l 1,6,-1
 611 895 l 1,0,-1
483 270 m 1,7,-1
 624 270 l 1,8,9
 605 135 605 135 522 62.5 c 128,-1,10
 439 -10 439 -10 311 -10 c 2,11,-1
 297 -10 l 2,12,13
 179 -10 179 -10 107 54.5 c 128,-1,14
 35 119 35 119 35 237 c 0,15,16
 35 255 35 255 54.5 395.5 c 128,-1,17
 74 536 74 536 165.5 616 c 128,-1,18
 257 696 257 696 392 696 c 2,19,-1
 406 696 l 2,20,21
 515 696 515 696 581.5 637 c 128,-1,22
 648 578 648 578 648 468 c 0,23,24
 648 439 648 439 644 414 c 1,25,-1
 497 414 l 1,26,27
 499 427 499 427 501 453 c 1,28,-1
 501 457 l 2,29,30
 501 512 501 512 469 542.5 c 128,-1,31
 437 573 437 573 384 573 c 0,32,33
 303 573 303 573 265.5 525 c 128,-1,34
 228 477 228 477 212 370.5 c 128,-1,35
 196 264 196 264 196 240 c 0,36,37
 196 113 196 113 325 113 c 0,38,39
 461 113 461 113 483 270 c 1,7,-1
EndSplineSet
EndChar

StartChar: Ccedilla
Encoding: 16 199 16
Width: 683
GlyphClass: 2
Flags: MW
HStem: -197 55<238.5 274.5 237.5 280> -68 51<262 275 255 285> -10 123<286 297 297 311> 573 123<392 406 406 419>
VStem: 35 161<195.5 246> 315 75<-114.5 -89> 501 147<453 544 459.5 494>
LayerCount: 2
Fore
SplineSet
483 270 m 1,0,-1
 624 270 l 1,1,2
 605 135 605 135 522 62.5 c 128,-1,3
 439 -10 439 -10 311 -10 c 2,4,-1
 297 -10 l 2,5,6
 179 -10 179 -10 107 54.5 c 128,-1,7
 35 119 35 119 35 237 c 0,8,9
 35 255 35 255 54.5 395.5 c 128,-1,10
 74 536 74 536 165.5 616 c 128,-1,11
 257 696 257 696 392 696 c 2,12,-1
 406 696 l 2,13,14
 515 696 515 696 581.5 637 c 128,-1,15
 648 578 648 578 648 468 c 0,16,17
 648 439 648 439 644 414 c 1,18,-1
 497 414 l 1,19,20
 499 427 499 427 501 453 c 1,21,-1
 501 457 l 2,22,23
 501 512 501 512 469 542.5 c 128,-1,24
 437 573 437 573 384 573 c 0,25,26
 303 573 303 573 265.5 525 c 128,-1,27
 228 477 228 477 212 370.5 c 128,-1,28
 196 264 196 264 196 240 c 0,29,30
 196 113 196 113 325 113 c 0,31,32
 461 113 461 113 483 270 c 1,0,-1
153 -168 m 1,33,-1
 181 -116 l 2,34,35
 182 -116 182 -116 187 -119.5 c 128,-1,36
 192 -123 192 -123 198.5 -126.5 c 128,-1,37
 205 -130 205 -130 214 -133.5 c 0,38,39
 235.857142857 -142 235.857142857 -142 259.928571429 -142 c 128,-1,40
 284 -142 284 -142 299.5 -131.5 c 128,-1,41
 315 -121 315 -121 315 -99 c 0,42,43
 315 -68 315 -68 275 -68 c 2,44,-1
 255 -68 l 1,45,-1
 262 -17 l 1,46,-1
 285 -17 l 2,47,48
 390 -17 390 -17 390 -91 c 0,49,50
 390 -132 390 -132 365 -157.5 c 128,-1,51
 340 -183 340 -183 313 -190 c 128,-1,52
 286 -197 286 -197 257 -197 c 0,53,54
 190 -197 190 -197 153 -168 c 1,33,-1
EndSplineSet
Position2: "'cpsp' Capital Spacing lookup 0 subtable" dx=5 dy=0 dh=10 dv=0
EndChar

StartChar: D
Encoding: 17 68 17
Width: 686
GlyphClass: 2
Flags: MW
HStem: 0 123<196 268> 563 123<257 363 257 257>
VStem: 488 160<429.5 484.5>
LayerCount: 2
Fore
SplineSet
120 686 m 1,0,-1
 395 686 l 2,1,2
 506 686 506 686 577 620 c 128,-1,3
 648 554 648 554 648 443 c 0,4,5
 648 416 648 416 630 294 c 0,6,7
 588 0 588 0 268 0 c 2,8,-1
 23 0 l 1,9,-1
 120 686 l 1,0,-1
196 123 m 1,10,-1
 301 123 l 2,11,12
 367 123 367 123 411 161.5 c 128,-1,13
 455 200 455 200 466 272 c 0,14,15
 488 417 488 417 488 449 c 0,16,17
 488 502 488 502 453.5 532.5 c 128,-1,18
 419 563 419 563 363 563 c 2,19,-1
 257 563 l 1,20,-1
 196 123 l 1,10,-1
EndSplineSet
Position2: "'cpsp' Capital Spacing lookup 0 subtable" dx=5 dy=0 dh=10 dv=0
EndChar

StartChar: Eth
Encoding: 18 208 18
Width: 686
GlyphClass: 2
Flags: MW
HStem: 0 123<196 268> 303 80<-16 77 -5 66 232 333> 563 123<257 363 257 257>
VStem: 488 160<429.5 484.5>
LayerCount: 2
Fore
SplineSet
-16 303 m 1,0,-1
 -5 383 l 1,1,-1
 77 383 l 1,2,-1
 120 686 l 1,3,-1
 395 686 l 2,4,5
 506 686 506 686 577 620 c 128,-1,6
 648 554 648 554 648 443 c 0,7,8
 648 416 648 416 630 294 c 0,9,10
 588 0 588 0 268 0 c 2,11,-1
 23 0 l 1,12,-1
 66 303 l 1,13,-1
 -16 303 l 1,0,-1
196 123 m 1,14,-1
 301 123 l 2,15,16
 367 123 367 123 411 161.5 c 128,-1,17
 455 200 455 200 466 272 c 0,18,19
 488 417 488 417 488 449 c 0,20,21
 488 502 488 502 453.5 532.5 c 128,-1,22
 419 563 419 563 363 563 c 2,23,-1
 257 563 l 1,24,-1
 232 383 l 1,25,-1
 344 383 l 1,26,-1
 333 303 l 1,27,-1
 221 303 l 1,28,-1
 196 123 l 1,14,-1
EndSplineSet
Position2: "'cpsp' Capital Spacing lookup 0 subtable" dx=5 dy=0 dh=10 dv=0
EndChar

StartChar: Dcaron
Encoding: 19 270 19
Width: 686
GlyphClass: 2
Flags: MW
HStem: 0 123<196 268> 563 123<257 363 257 257> 750 145<234 454 234 351>
VStem: 488 160<429.5 484.5>
LayerCount: 2
Fore
SplineSet
612 895 m 1,0,-1
 454 750 l 1,1,-1
 351 750 l 1,2,-1
 234 895 l 1,3,-1
 339 895 l 1,4,-1
 412 812 l 1,5,-1
 508 895 l 1,6,-1
 612 895 l 1,0,-1
120 686 m 1,7,-1
 395 686 l 2,8,9
 506 686 506 686 577 620 c 128,-1,10
 648 554 648 554 648 443 c 0,11,12
 648 416 648 416 630 294 c 0,13,14
 588 0 588 0 268 0 c 2,15,-1
 23 0 l 1,16,-1
 120 686 l 1,7,-1
196 123 m 1,17,-1
 301 123 l 2,18,19
 367 123 367 123 411 161.5 c 128,-1,20
 455 200 455 200 466 272 c 0,21,22
 488 417 488 417 488 449 c 0,23,24
 488 502 488 502 453.5 532.5 c 128,-1,25
 419 563 419 563 363 563 c 2,26,-1
 257 563 l 1,27,-1
 196 123 l 1,17,-1
EndSplineSet
EndChar

StartChar: Dcroat
Encoding: 20 272 20
Width: 686
GlyphClass: 2
Flags: MW
HStem: 0 123<196 268> 303 80<-16 77 -5 66 232 333> 563 123<257 363 257 257>
VStem: 488 160<429.5 484.5>
LayerCount: 2
Fore
SplineSet
-16 303 m 1,0,-1
 -5 383 l 1,1,-1
 77 383 l 1,2,-1
 120 686 l 1,3,-1
 395 686 l 2,4,5
 506 686 506 686 577 620 c 128,-1,6
 648 554 648 554 648 443 c 0,7,8
 648 416 648 416 630 294 c 0,9,10
 588 0 588 0 268 0 c 2,11,-1
 23 0 l 1,12,-1
 66 303 l 1,13,-1
 -16 303 l 1,0,-1
196 123 m 1,14,-1
 301 123 l 2,15,16
 367 123 367 123 411 161.5 c 128,-1,17
 455 200 455 200 466 272 c 0,18,19
 488 417 488 417 488 449 c 0,20,21
 488 502 488 502 453.5 532.5 c 128,-1,22
 419 563 419 563 363 563 c 2,23,-1
 257 563 l 1,24,-1
 232 383 l 1,25,-1
 344 383 l 1,26,-1
 333 303 l 1,27,-1
 221 303 l 1,28,-1
 196 123 l 1,14,-1
EndSplineSet
EndChar

StartChar: E
Encoding: 21 69 21
Width: 598
GlyphClass: 2
Flags: MW
HStem: 0 123<193 509 193 509> 290 123<233 509 216 526> 563 123<254 568 254 254>
VStem: 23 580
AnchorPoint: "Bottom" 263 0 basechar 0
LayerCount: 2
Fore
SplineSet
120 686 m 1,0,-1
 603 686 l 1,1,-1
 568 563 l 1,2,-1
 254 563 l 1,3,-1
 233 413 l 1,4,-1
 526 413 l 1,5,-1
 509 290 l 1,6,-1
 216 290 l 1,7,-1
 193 123 l 1,8,-1
 509 123 l 1,9,-1
 509 0 l 1,10,-1
 23 0 l 1,11,-1
 120 686 l 1,0,-1
EndSplineSet
Position2: "'cpsp' Capital Spacing lookup 0 subtable" dx=5 dy=0 dh=10 dv=0
EndChar

StartChar: Eacute
Encoding: 22 201 22
Width: 598
GlyphClass: 2
Flags: MW
HStem: 0 123<193 509 193 509> 290 123<233 509 216 526> 563 123<254 568 254 254> 750 145<316 558 316 558>
VStem: 23 580
LayerCount: 2
Fore
SplineSet
429 895 m 1,0,-1
 558 895 l 1,1,-1
 558 891 l 1,2,-1
 417 750 l 1,3,-1
 316 750 l 1,4,-1
 429 895 l 1,0,-1
120 686 m 1,5,-1
 603 686 l 1,6,-1
 568 563 l 1,7,-1
 254 563 l 1,8,-1
 233 413 l 1,9,-1
 526 413 l 1,10,-1
 509 290 l 1,11,-1
 216 290 l 1,12,-1
 193 123 l 1,13,-1
 509 123 l 1,14,-1
 509 0 l 1,15,-1
 23 0 l 1,16,-1
 120 686 l 1,5,-1
EndSplineSet
Position2: "'cpsp' Capital Spacing lookup 0 subtable" dx=5 dy=0 dh=10 dv=0
EndChar

StartChar: Ecaron
Encoding: 23 282 23
Width: 598
GlyphClass: 2
Flags: MW
HStem: 0 123<193 509 193 509> 290 123<233 509 216 526> 563 123<254 568 254 254> 750 145<190 410 190 307>
VStem: 23 580
AnchorPoint: "Bottom" 263 0 basechar 0
LayerCount: 2
Fore
SplineSet
568 895 m 1,0,-1
 410 750 l 1,1,-1
 307 750 l 1,2,-1
 190 895 l 1,3,-1
 295 895 l 1,4,-1
 368 812 l 1,5,-1
 464 895 l 1,6,-1
 568 895 l 1,0,-1
120 686 m 1,7,-1
 603 686 l 1,8,-1
 568 563 l 1,9,-1
 254 563 l 1,10,-1
 233 413 l 1,11,-1
 526 413 l 1,12,-1
 509 290 l 1,13,-1
 216 290 l 1,14,-1
 193 123 l 1,15,-1
 509 123 l 1,16,-1
 509 0 l 1,17,-1
 23 0 l 1,18,-1
 120 686 l 1,7,-1
EndSplineSet
EndChar

StartChar: Ecircumflex
Encoding: 24 202 24
Width: 598
GlyphClass: 2
Flags: MW
HStem: 0 123<193 509 193 509> 290 123<233 509 216 526> 563 123<254 568 254 254> 750 145<174 436 333 552 333 447>
VStem: 23 580
LayerCount: 2
Fore
SplineSet
333 895 m 1,0,-1
 436 895 l 1,1,2
 505 808 505 808 552 750 c 1,3,-1
 447 750 l 1,4,-1
 375 833 l 1,5,-1
 278 750 l 1,6,-1
 174 750 l 1,7,-1
 333 895 l 1,0,-1
120 686 m 1,8,-1
 603 686 l 1,9,-1
 568 563 l 1,10,-1
 254 563 l 1,11,-1
 233 413 l 1,12,-1
 526 413 l 1,13,-1
 509 290 l 1,14,-1
 216 290 l 1,15,-1
 193 123 l 1,16,-1
 509 123 l 1,17,-1
 509 0 l 1,18,-1
 23 0 l 1,19,-1
 120 686 l 1,8,-1
EndSplineSet
Position2: "'cpsp' Capital Spacing lookup 0 subtable" dx=5 dy=0 dh=10 dv=0
EndChar

StartChar: Edieresis
Encoding: 25 203 25
Width: 598
GlyphClass: 2
Flags: MW
HStem: 0 123<193 509 193 509> 290 123<233 509 216 526> 563 123<254 568 254 254> 750 122<217 321 200 338 217 404 421 525>
VStem: 23 580
LayerCount: 2
Fore
SplineSet
338 872 m 1,0,-1
 321 750 l 1,1,-1
 200 750 l 1,2,-1
 217 872 l 1,3,-1
 338 872 l 1,0,-1
542 872 m 1,4,-1
 525 750 l 1,5,-1
 404 750 l 1,6,-1
 421 872 l 1,7,-1
 542 872 l 1,4,-1
120 686 m 1,8,-1
 603 686 l 1,9,-1
 568 563 l 1,10,-1
 254 563 l 1,11,-1
 233 413 l 1,12,-1
 526 413 l 1,13,-1
 509 290 l 1,14,-1
 216 290 l 1,15,-1
 193 123 l 1,16,-1
 509 123 l 1,17,-1
 509 0 l 1,18,-1
 23 0 l 1,19,-1
 120 686 l 1,8,-1
EndSplineSet
Position2: "'cpsp' Capital Spacing lookup 0 subtable" dx=5 dy=0 dh=10 dv=0
EndChar

StartChar: Edotaccent
Encoding: 26 278 26
Width: 598
GlyphClass: 2
Flags: MW
HStem: 0 123<193 509 193 509> 290 123<233 509 216 526> 563 123<254 568 254 254> 779 132<369.5 392.5>
VStem: 316 133<833.5 854.5>
AnchorPoint: "Bottom" 263 0 basechar 0
LayerCount: 2
Fore
SplineSet
432.5 894 m 128,-1,1
 449 877 449 877 449 850 c 128,-1,2
 449 823 449 823 426 801 c 128,-1,3
 403 779 403 779 375.5 779 c 128,-1,4
 348 779 348 779 332 795 c 128,-1,5
 316 811 316 811 316 838 c 128,-1,6
 316 865 316 865 337.5 888 c 128,-1,7
 359 911 359 911 387.5 911 c 128,-1,0
 416 911 416 911 432.5 894 c 128,-1,1
120 686 m 1,8,-1
 603 686 l 1,9,-1
 568 563 l 1,10,-1
 254 563 l 1,11,-1
 233 413 l 1,12,-1
 526 413 l 1,13,-1
 509 290 l 1,14,-1
 216 290 l 1,15,-1
 193 123 l 1,16,-1
 509 123 l 1,17,-1
 509 0 l 1,18,-1
 23 0 l 1,19,-1
 120 686 l 1,8,-1
EndSplineSet
EndChar

StartChar: Egrave
Encoding: 27 200 27
Width: 598
GlyphClass: 2
Flags: MW
HStem: 0 123<193 509 193 509> 290 123<233 509 216 526> 563 123<254 568 254 254> 750 145<326 356 228 428 326 326>
VStem: 23 580
LayerCount: 2
Fore
SplineSet
226 892 m 1,0,-1
 228 895 l 1,1,-1
 356 895 l 1,2,-1
 428 750 l 1,3,-1
 326 750 l 1,4,-1
 226 892 l 1,0,-1
120 686 m 1,5,-1
 603 686 l 1,6,-1
 568 563 l 1,7,-1
 254 563 l 1,8,-1
 233 413 l 1,9,-1
 526 413 l 1,10,-1
 509 290 l 1,11,-1
 216 290 l 1,12,-1
 193 123 l 1,13,-1
 509 123 l 1,14,-1
 509 0 l 1,15,-1
 23 0 l 1,16,-1
 120 686 l 1,5,-1
EndSplineSet
Position2: "'cpsp' Capital Spacing lookup 0 subtable" dx=5 dy=0 dh=10 dv=0
EndChar

StartChar: Emacron
Encoding: 28 274 28
Width: 598
GlyphClass: 2
Flags: MW
HStem: 0 123<193 509 193 509> 290 123<233 509 216 526> 563 123<254 568 254 254> 837 74<233 540 222 551>
VStem: 23 580
AnchorPoint: "Bottom" 263 0 basechar 0
LayerCount: 2
Fore
SplineSet
233 911 m 1,0,-1
 551 911 l 1,1,-1
 540 837 l 1,2,-1
 222 837 l 1,3,-1
 233 911 l 1,0,-1
120 686 m 1,4,-1
 603 686 l 1,5,-1
 568 563 l 1,6,-1
 254 563 l 1,7,-1
 233 413 l 1,8,-1
 526 413 l 1,9,-1
 509 290 l 1,10,-1
 216 290 l 1,11,-1
 193 123 l 1,12,-1
 509 123 l 1,13,-1
 509 0 l 1,14,-1
 23 0 l 1,15,-1
 120 686 l 1,4,-1
EndSplineSet
EndChar

StartChar: Eogonek
Encoding: 29 280 29
Width: 598
GlyphClass: 2
Flags: MW
HStem: -143 50<473.5 476.5> 0 123<193 438 500 509 500 500> 290 123<233 509 216 526> 563 123<254 254 254 568>
VStem: 373 71<-75 -63.5> 438 71<0 123>
AnchorPoint: "Bottom" 263 0 basechar 0
LayerCount: 2
Fore
SplineSet
254 563 m 1,0,-1
 233 413 l 1,1,-1
 526 413 l 1,2,-1
 509 290 l 1,3,-1
 216 290 l 1,4,-1
 193 123 l 1,5,-1
 509 123 l 1,6,-1
 509 0 l 1,7,-1
 500 0 l 1,8,9
 444 -29 444 -29 444 -64 c 0,10,11
 444 -93 444 -93 479 -93 c 0,12,13
 514 -93 514 -93 552 -79 c 1,14,-1
 560 -119 l 1,15,16
 514 -143 514 -143 460 -143 c 0,17,18
 373 -143 373 -143 373 -83 c 0,19,20
 373 -39 373 -39 438 0 c 1,21,-1
 23 0 l 1,22,-1
 120 686 l 1,23,-1
 603 686 l 1,24,-1
 568 563 l 1,25,-1
 254 563 l 1,0,-1
EndSplineSet
EndChar

StartChar: F
Encoding: 30 70 30
Width: 563
GlyphClass: 2
Flags: MW
HStem: 0 21G<23 175 23 23> 276 123<231 480 214 497> 563 123<254 254 254 550>
VStem: 23 561
LayerCount: 2
Fore
SplineSet
254 563 m 1,0,-1
 231 399 l 1,1,-1
 497 399 l 1,2,-1
 480 276 l 1,3,-1
 214 276 l 1,4,-1
 175 0 l 1,5,-1
 23 0 l 1,6,-1
 120 686 l 1,7,-1
 584 686 l 1,8,-1
 550 563 l 1,9,-1
 254 563 l 1,0,-1
EndSplineSet
Position2: "'cpsp' Capital Spacing lookup 0 subtable" dx=5 dy=0 dh=10 dv=0
EndChar

StartChar: G
Encoding: 31 71 31
Width: 699
GlyphClass: 2
Flags: MW
HStem: -10 123<280.5 281 281 286> 0 21G<505 590 505 505> 261 112<336 475 320 636> 573 123<397 411 411 415.5>
VStem: 36 160<200 249.5> 501 148<477 506>
AnchorPoint: "Bottom" 314 0 basechar 0
LayerCount: 2
Fore
SplineSet
590 0 m 1,0,-1
 505 0 l 1,1,2
 497 31 497 31 492 77 c 1,3,4
 410 -10 410 -10 286 -10 c 2,5,-1
 281 -10 l 2,6,7
 170 -10 170 -10 103 56.5 c 128,-1,8
 36 123 36 123 36 238 c 0,9,10
 36 264 36 264 55 399 c 0,11,12
 74 534 74 534 164 615 c 128,-1,13
 254 696 254 696 397 696 c 2,14,-1
 411 696 l 2,15,16
 514 696 514 696 581.5 638.5 c 128,-1,17
 649 581 649 581 649 484 c 0,18,19
 649 475 649 475 646 442 c 1,20,-1
 500 442 l 1,21,22
 501 451 501 451 501 468 c 0,23,24
 501 522 501 522 468.5 547.5 c 128,-1,25
 436 573 436 573 385.5 573 c 0,26,27
 335 573 335 573 299.5 550 c 128,-1,28
 264 527 264 527 244 482.5 c 0,29,30
 224 438 224 438 210 356 c 128,-1,31
 196 274 196 274 196 240 c 0,32,33
 196 180 196 180 228.5 146.5 c 128,-1,34
 261 113 261 113 320.5 113 c 0,35,36
 380 113 380 113 421.5 149.5 c 128,-1,37
 463 186 463 186 475 261 c 1,38,-1
 320 261 l 1,39,-1
 336 373 l 1,40,-1
 636 373 l 1,41,-1
 603 136 l 2,42,43
 590 41 590 41 590 0 c 1,0,-1
EndSplineSet
Position2: "'cpsp' Capital Spacing lookup 0 subtable" dx=5 dy=0 dh=10 dv=0
EndChar

StartChar: Gbreve
Encoding: 32 286 32
Width: 699
GlyphClass: 2
Flags: MW
HStem: -10 123<280.5 281 281 286> 0 21G<505 590 505 505> 261 112<336 475 320 636> 573 123<397 411 411 415.5> 788 74<398 455 398 470.5>
VStem: 36 160<200 249.5> 501 148<477 506>
AnchorPoint: "Bottom" 314 0 basechar 0
LayerCount: 2
Fore
SplineSet
557.5 827.5 m 128,-1,1
 494 788 494 788 419 788 c 128,-1,2
 344 788 344 788 292.5 824.5 c 128,-1,3
 241 861 241 861 241 904 c 0,4,5
 241 909 241 909 242 912 c 1,6,-1
 323 912 l 1,7,8
 325 893 325 893 355 877.5 c 128,-1,9
 385 862 385 862 426 862 c 128,-1,10
 467 862 467 862 503 878 c 128,-1,11
 539 894 539 894 545 912 c 1,12,-1
 627 912 l 1,13,0
 621 867 621 867 557.5 827.5 c 128,-1,1
590 0 m 1,14,-1
 505 0 l 1,15,16
 497 31 497 31 492 77 c 1,17,18
 410 -10 410 -10 286 -10 c 2,19,-1
 281 -10 l 2,20,21
 170 -10 170 -10 103 56.5 c 128,-1,22
 36 123 36 123 36 238 c 0,23,24
 36 264 36 264 55 399 c 128,-1,25
 74 534 74 534 164 615 c 128,-1,26
 254 696 254 696 397 696 c 2,27,-1
 411 696 l 2,28,29
 514 696 514 696 581.5 638.5 c 128,-1,30
 649 581 649 581 649 484 c 0,31,32
 649 475 649 475 646 442 c 1,33,-1
 500 442 l 1,34,35
 501 451 501 451 501 468 c 0,36,37
 501 522 501 522 468.5 547.5 c 128,-1,38
 436 573 436 573 385.5 573 c 128,-1,39
 335 573 335 573 299.5 550 c 128,-1,40
 264 527 264 527 244 482.5 c 128,-1,41
 224 438 224 438 210 356 c 128,-1,42
 196 274 196 274 196 240 c 0,43,44
 196 180 196 180 228.5 146.5 c 128,-1,45
 261 113 261 113 320.5 113 c 128,-1,46
 380 113 380 113 421.5 149.5 c 128,-1,47
 463 186 463 186 475 261 c 1,48,-1
 320 261 l 1,49,-1
 336 373 l 1,50,-1
 636 373 l 1,51,-1
 603 136 l 2,52,53
 590 41 590 41 590 0 c 1,14,-1
EndSplineSet
EndChar

StartChar: Gcommaaccent
Encoding: 33 290 33
Width: 699
GlyphClass: 2
Flags: MW
HStem: -167 137<242 286 223 388> -10 123<280.5 281 281 286> 0 21G<505 590 505 505> 261 112<336 475 320 636> 573 123<397 411 411 415.5>
VStem: 36 160<200 249.5> 501 148<477 506>
AnchorPoint: "Bottom" 314 0 basechar 0
LayerCount: 2
Fore
SplineSet
590 0 m 1,0,-1
 505 0 l 1,1,2
 497 31 497 31 492 77 c 1,3,4
 410 -10 410 -10 286 -10 c 2,5,-1
 281 -10 l 2,6,7
 170 -10 170 -10 103 56.5 c 128,-1,8
 36 123 36 123 36 238 c 0,9,10
 36 264 36 264 55 399 c 0,11,12
 74 534 74 534 164 615 c 128,-1,13
 254 696 254 696 397 696 c 2,14,-1
 411 696 l 2,15,16
 514 696 514 696 581.5 638.5 c 128,-1,17
 649 581 649 581 649 484 c 0,18,19
 649 475 649 475 646 442 c 1,20,-1
 500 442 l 1,21,22
 501 451 501 451 501 468 c 0,23,24
 501 522 501 522 468.5 547.5 c 128,-1,25
 436 573 436 573 385.5 573 c 0,26,27
 335 573 335 573 299.5 550 c 128,-1,28
 264 527 264 527 244 482.5 c 0,29,30
 224 438 224 438 210 356 c 128,-1,31
 196 274 196 274 196 240 c 0,32,33
 196 180 196 180 228.5 146.5 c 128,-1,34
 261 113 261 113 320.5 113 c 0,35,36
 380 113 380 113 421.5 149.5 c 128,-1,37
 463 186 463 186 475 261 c 1,38,-1
 320 261 l 1,39,-1
 336 373 l 1,40,-1
 636 373 l 1,41,-1
 603 136 l 2,42,43
 590 41 590 41 590 0 c 1,0,-1
286 -167 m 1,44,-1
 223 -167 l 1,45,-1
 242 -30 l 1,46,-1
 388 -30 l 1,47,-1
 372 -143 l 1,48,-1
 332 -250 l 1,49,-1
 258 -250 l 1,50,-1
 286 -167 l 1,44,-1
EndSplineSet
EndChar

StartChar: H
Encoding: 34 72 34
Width: 691
GlyphClass: 2
Flags: MW
HStem: 0 21G<23 178 23 23 415 415 415 569> 286 128<235 455 218 473> 666 20G<120 274 274 274 512 666 666 666>
VStem: 23 643
LayerCount: 2
Fore
SplineSet
455 286 m 1,0,-1
 218 286 l 1,1,-1
 178 0 l 1,2,-1
 23 0 l 1,3,-1
 120 686 l 1,4,-1
 274 686 l 1,5,-1
 235 414 l 1,6,-1
 473 414 l 1,7,-1
 512 686 l 1,8,-1
 666 686 l 1,9,-1
 569 0 l 1,10,-1
 415 0 l 1,11,-1
 455 286 l 1,0,-1
EndSplineSet
Position2: "'cpsp' Capital Spacing lookup 0 subtable" dx=5 dy=0 dh=10 dv=0
EndChar

StartChar: I
Encoding: 35 73 35
Width: 461
GlyphClass: 2
Flags: MW
HStem: 0 123<41 122 277 339 23 122> 563 123<120 183 102 436 338 418 338 338>
VStem: 23 413
LayerCount: 2
Fore
SplineSet
436 686 m 1,0,-1
 418 563 l 1,1,-1
 338 563 l 1,2,-1
 277 123 l 1,3,-1
 357 123 l 1,4,-1
 339 0 l 1,5,-1
 23 0 l 1,6,-1
 41 123 l 1,7,-1
 122 123 l 1,8,-1
 183 563 l 1,9,-1
 102 563 l 1,10,-1
 120 686 l 1,11,-1
 436 686 l 1,0,-1
EndSplineSet
Position2: "'cpsp' Capital Spacing lookup 0 subtable" dx=5 dy=0 dh=10 dv=0
EndChar

StartChar: Iacute
Encoding: 36 205 36
Width: 461
GlyphClass: 2
Flags: MW
HStem: 0 123<41 122 277 339 23 122> 563 123<120 183 102 436 338 418 338 338> 750 145<224 466 224 466>
VStem: 23 443
LayerCount: 2
Fore
SplineSet
337 895 m 1,0,-1
 466 895 l 1,1,-1
 466 891 l 1,2,-1
 325 750 l 1,3,-1
 224 750 l 1,4,-1
 337 895 l 1,0,-1
436 686 m 1,5,-1
 418 563 l 1,6,-1
 338 563 l 1,7,-1
 277 123 l 1,8,-1
 357 123 l 1,9,-1
 339 0 l 1,10,-1
 23 0 l 1,11,-1
 41 123 l 1,12,-1
 122 123 l 1,13,-1
 183 563 l 1,14,-1
 102 563 l 1,15,-1
 120 686 l 1,16,-1
 436 686 l 1,5,-1
EndSplineSet
Position2: "'cpsp' Capital Spacing lookup 0 subtable" dx=5 dy=0 dh=10 dv=0
EndChar

StartChar: Icircumflex
Encoding: 37 206 37
Width: 461
GlyphClass: 2
Flags: MW
HStem: 0 123<41 122 277 339 23 122> 563 123<120 183 102 436 338 418 338 338> 750 145<97 359 256 475 256 370>
VStem: 23 452
LayerCount: 2
Fore
SplineSet
256 895 m 1,0,-1
 359 895 l 1,1,2
 428 808 428 808 475 750 c 1,3,-1
 370 750 l 1,4,-1
 298 833 l 1,5,-1
 201 750 l 1,6,-1
 97 750 l 1,7,-1
 256 895 l 1,0,-1
436 686 m 1,8,-1
 418 563 l 1,9,-1
 338 563 l 1,10,-1
 277 123 l 1,11,-1
 357 123 l 1,12,-1
 339 0 l 1,13,-1
 23 0 l 1,14,-1
 41 123 l 1,15,-1
 122 123 l 1,16,-1
 183 563 l 1,17,-1
 102 563 l 1,18,-1
 120 686 l 1,19,-1
 436 686 l 1,8,-1
EndSplineSet
Position2: "'cpsp' Capital Spacing lookup 0 subtable" dx=5 dy=0 dh=10 dv=0
EndChar

StartChar: Idieresis
Encoding: 38 207 38
Width: 461
GlyphClass: 2
Flags: MW
HStem: 0 123<41 122 277 339 23 122> 563 123<120 183 102 436 338 418 338 338> 750 122<142 246 125 263 142 329 346 450>
VStem: 23 444
LayerCount: 2
Fore
SplineSet
263 872 m 1,0,-1
 246 750 l 1,1,-1
 125 750 l 1,2,-1
 142 872 l 1,3,-1
 263 872 l 1,0,-1
467 872 m 1,4,-1
 450 750 l 1,5,-1
 329 750 l 1,6,-1
 346 872 l 1,7,-1
 467 872 l 1,4,-1
436 686 m 1,8,-1
 418 563 l 1,9,-1
 338 563 l 1,10,-1
 277 123 l 1,11,-1
 357 123 l 1,12,-1
 339 0 l 1,13,-1
 23 0 l 1,14,-1
 41 123 l 1,15,-1
 122 123 l 1,16,-1
 183 563 l 1,17,-1
 102 563 l 1,18,-1
 120 686 l 1,19,-1
 436 686 l 1,8,-1
EndSplineSet
Position2: "'cpsp' Capital Spacing lookup 0 subtable" dx=5 dy=0 dh=10 dv=0
EndChar

StartChar: Idotaccent
Encoding: 39 304 39
Width: 461
GlyphClass: 2
Flags: MW
HStem: 0 123<41 122 277 339 23 122> 563 123<120 183 102 436 338 418 338 338> 779 132<291.5 314.5>
VStem: 238 133<833.5 854.5>
LayerCount: 2
Fore
SplineSet
354.5 894 m 128,-1,1
 371 877 371 877 371 850 c 128,-1,2
 371 823 371 823 348 801 c 128,-1,3
 325 779 325 779 297.5 779 c 128,-1,4
 270 779 270 779 254 795 c 128,-1,5
 238 811 238 811 238 838 c 128,-1,6
 238 865 238 865 259.5 888 c 128,-1,7
 281 911 281 911 309.5 911 c 128,-1,0
 338 911 338 911 354.5 894 c 128,-1,1
436 686 m 1,8,-1
 418 563 l 1,9,-1
 338 563 l 1,10,-1
 277 123 l 1,11,-1
 357 123 l 1,12,-1
 339 0 l 1,13,-1
 23 0 l 1,14,-1
 41 123 l 1,15,-1
 122 123 l 1,16,-1
 183 563 l 1,17,-1
 102 563 l 1,18,-1
 120 686 l 1,19,-1
 436 686 l 1,8,-1
EndSplineSet
EndChar

StartChar: Igrave
Encoding: 40 204 40
Width: 461
GlyphClass: 2
Flags: MW
HStem: 0 123<41 122 277 339 23 122> 563 123<120 183 102 436 338 418 338 338> 750 145<234 264 136 336 234 234>
VStem: 23 413
LayerCount: 2
Fore
SplineSet
134 892 m 1,0,-1
 136 895 l 1,1,-1
 264 895 l 1,2,-1
 336 750 l 1,3,-1
 234 750 l 1,4,-1
 134 892 l 1,0,-1
436 686 m 1,5,-1
 418 563 l 1,6,-1
 338 563 l 1,7,-1
 277 123 l 1,8,-1
 357 123 l 1,9,-1
 339 0 l 1,10,-1
 23 0 l 1,11,-1
 41 123 l 1,12,-1
 122 123 l 1,13,-1
 183 563 l 1,14,-1
 102 563 l 1,15,-1
 120 686 l 1,16,-1
 436 686 l 1,5,-1
EndSplineSet
Position2: "'cpsp' Capital Spacing lookup 0 subtable" dx=5 dy=0 dh=10 dv=0
EndChar

StartChar: Imacron
Encoding: 41 298 41
Width: 461
GlyphClass: 2
Flags: MW
HStem: 0 123<41 122 277 339 23 122> 563 123<120 183 102 436 338 418 338 338> 837 74<155 462 144 473>
VStem: 23 450
LayerCount: 2
Fore
SplineSet
155 911 m 1,0,-1
 473 911 l 1,1,-1
 462 837 l 1,2,-1
 144 837 l 1,3,-1
 155 911 l 1,0,-1
436 686 m 1,4,-1
 418 563 l 1,5,-1
 338 563 l 1,6,-1
 277 123 l 1,7,-1
 357 123 l 1,8,-1
 339 0 l 1,9,-1
 23 0 l 1,10,-1
 41 123 l 1,11,-1
 122 123 l 1,12,-1
 183 563 l 1,13,-1
 102 563 l 1,14,-1
 120 686 l 1,15,-1
 436 686 l 1,4,-1
EndSplineSet
EndChar

StartChar: Iogonek
Encoding: 42 302 42
Width: 461
GlyphClass: 2
Flags: MW
HStem: -143 50<290.5 293.5> 0 123<41 122 41 255 23 122 317 339 317 317> 563 123<120 183 102 436 338 418 338 338>
VStem: 190 71<-75 -63.5>
LayerCount: 2
Fore
SplineSet
338 563 m 1,0,-1
 277 123 l 1,1,-1
 357 123 l 1,2,-1
 339 0 l 1,3,-1
 317 0 l 1,4,5
 261 -29 261 -29 261 -64 c 0,6,7
 261 -93 261 -93 295.5 -93 c 0,8,9
 330 -93 330 -93 369 -79 c 1,10,-1
 377 -119 l 1,11,12
 330 -143 330 -143 277 -143 c 0,13,14
 190 -143 190 -143 190 -83 c 0,15,16
 190 -39 190 -39 255 0 c 1,17,-1
 23 0 l 1,18,-1
 41 123 l 1,19,-1
 122 123 l 1,20,-1
 183 563 l 1,21,-1
 102 563 l 1,22,-1
 120 686 l 1,23,-1
 436 686 l 1,24,-1
 418 563 l 1,25,-1
 338 563 l 1,0,-1
EndSplineSet
EndChar

StartChar: J
Encoding: 43 74 43
Width: 527
GlyphClass: 2
Flags: MW
HStem: -10 123<127.5 221 178 198> -10 238<127.5 139 -5 178 -5 198> 666 20G<352 503 503 503>
VStem: -14 146<95.5 188>
LayerCount: 2
Fore
SplineSet
-5 228 m 1,0,-1
 139 228 l 1,1,2
 132 198 132 198 132 174 c 0,3,4
 132 150 132 150 150 131.5 c 128,-1,5
 168 113 168 113 200 113 c 128,-1,6
 232 113 232 113 255 133.5 c 128,-1,7
 278 154 278 154 282 187 c 2,8,-1
 352 686 l 1,9,-1
 503 686 l 1,10,-1
 433 183 l 2,11,12
 421 91 421 91 356 40.5 c 128,-1,13
 291 -10 291 -10 198 -10 c 2,14,-1
 178 -10 l 2,15,16
 98 -10 98 -10 42 31.5 c 128,-1,17
 -14 73 -14 73 -14 147 c 0,18,19
 -14 179 -14 179 -5 228 c 1,0,-1
EndSplineSet
Position2: "'cpsp' Capital Spacing lookup 0 subtable" dx=5 dy=0 dh=10 dv=0
EndChar

StartChar: K
Encoding: 44 75 44
Width: 660
GlyphClass: 2
Flags: MW
HStem: 0 21G<23 174 23 23 426 601 426 426> 666 20G<120 271 271 271 518 691 691 691>
VStem: 23 668
AnchorPoint: "Bottom" 294 0 basechar 0
LayerCount: 2
Fore
SplineSet
691 686 m 1,0,-1
 419 397 l 1,1,2
 451 325 451 325 601 0 c 1,3,-1
 426 0 l 1,4,-1
 302 278 l 1,5,-1
 199 179 l 1,6,-1
 174 0 l 1,7,-1
 23 0 l 1,8,-1
 120 686 l 1,9,-1
 271 686 l 1,10,-1
 227 372 l 1,11,-1
 518 686 l 1,12,-1
 691 686 l 1,0,-1
EndSplineSet
Position2: "'cpsp' Capital Spacing lookup 0 subtable" dx=5 dy=0 dh=10 dv=0
EndChar

StartChar: Kcommaaccent
Encoding: 45 310 45
Width: 660
GlyphClass: 2
Flags: MW
HStem: -167 137<222 266 203 368> 0 21G<23 174 23 23 426 601 426 426> 666 20G<120 271 271 271 518 691 691 691>
VStem: 23 668
AnchorPoint: "Bottom" 294 0 basechar 0
LayerCount: 2
Fore
SplineSet
691 686 m 1,0,-1
 419 397 l 1,1,2
 451 325 451 325 601 0 c 1,3,-1
 426 0 l 1,4,-1
 302 278 l 1,5,-1
 199 179 l 1,6,-1
 174 0 l 1,7,-1
 23 0 l 1,8,-1
 120 686 l 1,9,-1
 271 686 l 1,10,-1
 227 372 l 1,11,-1
 518 686 l 1,12,-1
 691 686 l 1,0,-1
266 -167 m 1,13,-1
 203 -167 l 1,14,-1
 222 -30 l 1,15,-1
 368 -30 l 1,16,-1
 352 -143 l 1,17,-1
 312 -250 l 1,18,-1
 238 -250 l 1,19,-1
 266 -167 l 1,13,-1
EndSplineSet
EndChar

StartChar: L
Encoding: 46 76 46
Width: 533
GlyphClass: 2
Flags: MW
HStem: 0 128<196 477 196 477> 666 20G<120 275 275 275>
VStem: 23 454<0 128>
AnchorPoint: "Bottom" 231 0 basechar 0
LayerCount: 2
Fore
SplineSet
120 686 m 1,0,-1
 275 686 l 1,1,-1
 196 128 l 1,2,-1
 477 128 l 1,3,-1
 477 0 l 1,4,-1
 23 0 l 1,5,-1
 120 686 l 1,0,-1
EndSplineSet
Position2: "'cpsp' Capital Spacing lookup 0 subtable" dx=5 dy=0 dh=10 dv=0
EndChar

StartChar: Lacute
Encoding: 47 313 47
Width: 533
GlyphClass: 2
Flags: MW
HStem: 0 128<196 477 196 477> 666 20G<120 275 275 275> 750 145<166 408 166 408>
VStem: 23 454<0 128>
AnchorPoint: "Bottom" 231 0 basechar 0
LayerCount: 2
Fore
SplineSet
279 895 m 1,0,-1
 408 895 l 1,1,-1
 408 891 l 1,2,-1
 267 750 l 1,3,-1
 166 750 l 1,4,-1
 279 895 l 1,0,-1
120 686 m 1,5,-1
 275 686 l 1,6,-1
 196 128 l 1,7,-1
 477 128 l 1,8,-1
 477 0 l 1,9,-1
 23 0 l 1,10,-1
 120 686 l 1,5,-1
EndSplineSet
EndChar

StartChar: Lcaron
Encoding: 48 317 48
Width: 533
GlyphClass: 2
Flags: MW
HStem: 0 128<196 477 196 477> 539 147<413 455 120 392>
VStem: 23 536
AnchorPoint: "Bottom" 231 0 basechar 0
LayerCount: 2
Fore
SplineSet
120 686 m 1,0,-1
 275 686 l 1,1,-1
 196 128 l 1,2,-1
 477 128 l 1,3,-1
 477 0 l 1,4,-1
 23 0 l 1,5,-1
 120 686 l 1,0,-1
455 539 m 1,6,-1
 392 539 l 1,7,-1
 413 686 l 1,8,-1
 559 686 l 1,9,-1
 542 563 l 1,10,-1
 476 395 l 1,11,-1
 403 395 l 1,12,-1
 455 539 l 1,6,-1
EndSplineSet
EndChar

StartChar: Lcommaaccent
Encoding: 49 315 49
Width: 533
GlyphClass: 2
Flags: MW
HStem: -167 137<159 203 140 305> 0 128<196 477 196 477> 666 20G<120 275 275 275>
VStem: 23 454<0 128>
AnchorPoint: "Bottom" 231 0 basechar 0
LayerCount: 2
Fore
SplineSet
120 686 m 1,0,-1
 275 686 l 1,1,-1
 196 128 l 1,2,-1
 477 128 l 1,3,-1
 477 0 l 1,4,-1
 23 0 l 1,5,-1
 120 686 l 1,0,-1
203 -167 m 1,6,-1
 140 -167 l 1,7,-1
 159 -30 l 1,8,-1
 305 -30 l 1,9,-1
 289 -143 l 1,10,-1
 249 -250 l 1,11,-1
 175 -250 l 1,12,-1
 203 -167 l 1,6,-1
EndSplineSet
EndChar

StartChar: Lslash
Encoding: 50 321 50
Width: 546
GlyphClass: 2
Flags: MW
HStem: 0 128<196 473 196 473> 666 20G<120 275 275 275>
VStem: -1 474<0 274>
LayerCount: 2
Fore
SplineSet
-1 274 m 1,0,-1
 10 362 l 1,1,2
 26 369 26 369 79 394 c 1,3,-1
 120 686 l 1,4,-1
 275 686 l 1,5,-1
 245 472 l 1,6,-1
 368 530 l 1,7,-1
 355 442 l 1,8,-1
 232 384 l 1,9,-1
 196 128 l 1,10,-1
 473 128 l 1,11,-1
 473 0 l 1,12,-1
 23 0 l 1,13,-1
 66 306 l 1,14,15
 32 289 32 289 -1 274 c 1,0,-1
EndSplineSet
Position2: "'cpsp' Capital Spacing lookup 0 subtable" dx=5 dy=0 dh=10 dv=0
EndChar

StartChar: M
Encoding: 51 77 51
Width: 967
GlyphClass: 2
Flags: MW
HStem: 0 21G<23 163 23 23 346 508 346 346 691 691 691 845> 505 181<234 239 234 234 757 762 757 757>
VStem: 23 919<0 686>
LayerCount: 2
Fore
SplineSet
762 505 m 1,0,-1
 757 505 l 1,1,-1
 508 0 l 1,2,-1
 346 0 l 1,3,-1
 239 505 l 1,4,-1
 234 505 l 1,5,-1
 163 0 l 1,6,-1
 23 0 l 1,7,-1
 120 686 l 1,8,-1
 369 686 l 1,9,-1
 465 233 l 1,10,-1
 469 233 l 1,11,-1
 693 686 l 1,12,-1
 942 686 l 1,13,-1
 845 0 l 1,14,-1
 691 0 l 1,15,-1
 762 505 l 1,0,-1
EndSplineSet
Position2: "'cpsp' Capital Spacing lookup 0 subtable" dx=5 dy=0 dh=10 dv=0
EndChar

StartChar: N
Encoding: 52 78 52
Width: 691
GlyphClass: 2
Flags: MW
HStem: 0 21G<23 164 23 23 438 569 438 438> 666 20G<120 251 251 251 525 666 666 666>
VStem: 23 643
AnchorPoint: "Bottom" 310 0 basechar 0
LayerCount: 2
Fore
SplineSet
438 0 m 1,0,-1
 268 316 l 1,1,-1
 225 405 l 1,2,-1
 221 402 l 1,3,-1
 164 0 l 1,4,-1
 23 0 l 1,5,-1
 120 686 l 1,6,-1
 251 686 l 1,7,-1
 422 368 l 2,8,9
 430 353 430 353 444 323 c 128,-1,10
 458 293 458 293 465 280 c 1,11,-1
 468 283 l 1,12,-1
 525 686 l 1,13,-1
 666 686 l 1,14,-1
 569 0 l 1,15,-1
 438 0 l 1,0,-1
EndSplineSet
Position2: "'cpsp' Capital Spacing lookup 0 subtable" dx=5 dy=0 dh=10 dv=0
EndChar

StartChar: Nacute
Encoding: 53 323 53
Width: 691
GlyphClass: 2
Flags: MW
HStem: 0 21G<23 164 23 23 438 569 438 438> 666 20G<120 251 251 251 525 666 666 666> 750 145<325 567 325 567>
VStem: 23 643
AnchorPoint: "Bottom" 310 0 basechar 0
LayerCount: 2
Fore
SplineSet
438 895 m 1,0,-1
 567 895 l 1,1,-1
 567 891 l 1,2,-1
 426 750 l 1,3,-1
 325 750 l 1,4,-1
 438 895 l 1,0,-1
438 0 m 1,5,-1
 268 316 l 1,6,-1
 225 405 l 1,7,-1
 221 402 l 1,8,-1
 164 0 l 1,9,-1
 23 0 l 1,10,-1
 120 686 l 1,11,-1
 251 686 l 1,12,-1
 422 368 l 2,13,14
 430 353 430 353 444 323 c 128,-1,15
 458 293 458 293 465 280 c 1,16,-1
 468 283 l 1,17,-1
 525 686 l 1,18,-1
 666 686 l 1,19,-1
 569 0 l 1,20,-1
 438 0 l 1,5,-1
EndSplineSet
EndChar

StartChar: Ncaron
Encoding: 54 327 54
Width: 691
GlyphClass: 2
Flags: MW
HStem: 0 21G<23 164 23 23 438 569 438 438> 666 20G<120 251 251 251 525 666 666 666> 750 145<237 457 237 354>
VStem: 23 643
AnchorPoint: "Bottom" 310 0 basechar 0
LayerCount: 2
Fore
SplineSet
615 895 m 1,0,-1
 457 750 l 1,1,-1
 354 750 l 1,2,-1
 237 895 l 1,3,-1
 342 895 l 1,4,-1
 415 812 l 1,5,-1
 511 895 l 1,6,-1
 615 895 l 1,0,-1
438 0 m 1,7,-1
 268 316 l 1,8,-1
 225 405 l 1,9,-1
 221 402 l 1,10,-1
 164 0 l 1,11,-1
 23 0 l 1,12,-1
 120 686 l 1,13,-1
 251 686 l 1,14,-1
 422 368 l 2,15,16
 430 353 430 353 444 323 c 128,-1,17
 458 293 458 293 465 280 c 1,18,-1
 468 283 l 1,19,-1
 525 686 l 1,20,-1
 666 686 l 1,21,-1
 569 0 l 1,22,-1
 438 0 l 1,7,-1
EndSplineSet
EndChar

StartChar: Ncommaaccent
Encoding: 55 325 55
Width: 691
GlyphClass: 2
Flags: MW
HStem: -167 137<238 282 219 384> 0 21G<23 164 23 23 438 569 438 438> 666 20G<120 251 251 251 525 666 666 666>
VStem: 23 643
AnchorPoint: "Bottom" 310 0 basechar 0
LayerCount: 2
Fore
SplineSet
438 0 m 1,0,-1
 268 316 l 1,1,-1
 225 405 l 1,2,-1
 221 402 l 1,3,-1
 164 0 l 1,4,-1
 23 0 l 1,5,-1
 120 686 l 1,6,-1
 251 686 l 1,7,-1
 422 368 l 2,8,9
 430 353 430 353 444 323 c 128,-1,10
 458 293 458 293 465 280 c 1,11,-1
 468 283 l 1,12,-1
 525 686 l 1,13,-1
 666 686 l 1,14,-1
 569 0 l 1,15,-1
 438 0 l 1,0,-1
282 -167 m 1,16,-1
 219 -167 l 1,17,-1
 238 -30 l 1,18,-1
 384 -30 l 1,19,-1
 368 -143 l 1,20,-1
 328 -250 l 1,21,-1
 254 -250 l 1,22,-1
 282 -167 l 1,16,-1
EndSplineSet
EndChar

StartChar: Ntilde
Encoding: 56 209 56
Width: 691
GlyphClass: 2
Flags: MW
HStem: 0 21G<23 164 23 23 438 569 438 438> 666 20G<120 251 251 251 525 666 666 666> 749 86<465 506 465 511> 786 87<292 333>
VStem: 23 643
LayerCount: 2
Fore
SplineSet
550 873 m 1,0,-1
 615 873 l 1,1,2
 609 825 609 825 568.5 787 c 128,-1,3
 528 749 528 749 472 749 c 0,4,5
 439 749 439 749 385.5 767.5 c 128,-1,6
 332 786 332 786 306 786 c 0,7,8
 265 786 265 786 249 749 c 1,9,-1
 184 749 l 1,10,11
 190 796 190 796 230.5 834.5 c 128,-1,12
 271 873 271 873 327 873 c 0,13,14
 360 873 360 873 413 854 c 128,-1,15
 466 835 466 835 492 835 c 0,16,17
 533 835 533 835 550 873 c 1,0,-1
438 0 m 1,18,-1
 268 316 l 1,19,-1
 225 405 l 1,20,-1
 221 402 l 1,21,-1
 164 0 l 1,22,-1
 23 0 l 1,23,-1
 120 686 l 1,24,-1
 251 686 l 1,25,-1
 422 368 l 2,26,27
 430 353 430 353 444 323 c 128,-1,28
 458 293 458 293 465 280 c 1,29,-1
 468 283 l 1,30,-1
 525 686 l 1,31,-1
 666 686 l 1,32,-1
 569 0 l 1,33,-1
 438 0 l 1,18,-1
EndSplineSet
Position2: "'cpsp' Capital Spacing lookup 0 subtable" dx=5 dy=0 dh=10 dv=0
EndChar

StartChar: O
Encoding: 57 79 57
Width: 708
GlyphClass: 2
Flags: MW
HStem: -10 123<284.5 365.5 284.5 386.5> 573 122<334 421>
VStem: 36 161<197.5 253.5 197.5 256> 509 160<429.5 487.5>
LayerCount: 2
Fore
SplineSet
652 294 m 0,0,1
 631 145 631 145 535 67.5 c 128,-1,2
 439 -10 439 -10 289 -10 c 0,3,4
 178 -10 178 -10 107 58.5 c 128,-1,5
 36 127 36 127 36 241 c 0,6,7
 36 262 36 262 55.5 400.5 c 0,8,9
 75 539 75 539 171 617 c 128,-1,10
 267 695 267 695 416 695 c 0,11,12
 527 695 527 695 598 626.5 c 128,-1,13
 669 558 669 558 669 443 c 0,14,15
 669 416 669 416 652 294 c 0,0,1
487 272 m 0,16,17
 509 417 509 417 509 449 c 0,18,19
 509 506 509 506 474.5 539.5 c 128,-1,20
 440 573 440 573 384 573 c 0,21,22
 239 573 239 573 215 390 c 0,23,24
 197 261 197 261 197 236 c 0,25,26
 197 179 197 179 231 146 c 128,-1,27
 265 113 265 113 327 113 c 0,28,29
 389 113 389 113 432.5 154 c 128,-1,30
 476 195 476 195 487 272 c 0,16,17
EndSplineSet
Substitution2: "Single Substitution lookup 5 subtable" ordmasculine
Substitution2: "'aalt' Access All Alternates lookup 0 subtable" ordmasculine
Position2: "'cpsp' Capital Spacing lookup 0 subtable" dx=5 dy=0 dh=10 dv=0
EndChar

StartChar: Oacute
Encoding: 58 211 58
Width: 708
GlyphClass: 2
Flags: MW
HStem: -10 123<284.5 365.5 284.5 386.5> 573 122<334 421> 750 145<364 606 364 606>
VStem: 36 161<197.5 253.5 197.5 256> 509 160<429.5 487.5>
LayerCount: 2
Fore
SplineSet
477 895 m 1,0,-1
 606 895 l 1,1,-1
 606 891 l 1,2,-1
 465 750 l 1,3,-1
 364 750 l 1,4,-1
 477 895 l 1,0,-1
652 294 m 0,5,6
 631 145 631 145 535 67.5 c 128,-1,7
 439 -10 439 -10 289 -10 c 0,8,9
 178 -10 178 -10 107 58.5 c 128,-1,10
 36 127 36 127 36 241 c 0,11,12
 36 262 36 262 55.5 400.5 c 0,13,14
 75 539 75 539 171 617 c 128,-1,15
 267 695 267 695 416 695 c 0,16,17
 527 695 527 695 598 626.5 c 128,-1,18
 669 558 669 558 669 443 c 0,19,20
 669 416 669 416 652 294 c 0,5,6
487 272 m 0,21,22
 509 417 509 417 509 449 c 0,23,24
 509 506 509 506 474.5 539.5 c 128,-1,25
 440 573 440 573 384 573 c 0,26,27
 239 573 239 573 215 390 c 0,28,29
 197 261 197 261 197 236 c 0,30,31
 197 179 197 179 231 146 c 128,-1,32
 265 113 265 113 327 113 c 0,33,34
 389 113 389 113 432.5 154 c 128,-1,35
 476 195 476 195 487 272 c 0,21,22
EndSplineSet
Position2: "'cpsp' Capital Spacing lookup 0 subtable" dx=5 dy=0 dh=10 dv=0
EndChar

StartChar: Ocircumflex
Encoding: 59 212 59
Width: 708
GlyphClass: 2
Flags: MW
HStem: -10 123<284.5 365.5 284.5 386.5> 573 122<334 421> 750 145<236 498 395 614 395 509>
VStem: 36 161<197.5 253.5 197.5 256> 509 160<429.5 487.5>
LayerCount: 2
Fore
SplineSet
395 895 m 1,0,-1
 498 895 l 1,1,2
 567 808 567 808 614 750 c 1,3,-1
 509 750 l 1,4,-1
 437 833 l 1,5,-1
 340 750 l 1,6,-1
 236 750 l 1,7,-1
 395 895 l 1,0,-1
652 294 m 0,8,9
 631 145 631 145 535 67.5 c 128,-1,10
 439 -10 439 -10 289 -10 c 0,11,12
 178 -10 178 -10 107 58.5 c 128,-1,13
 36 127 36 127 36 241 c 0,14,15
 36 262 36 262 55.5 400.5 c 0,16,17
 75 539 75 539 171 617 c 128,-1,18
 267 695 267 695 416 695 c 0,19,20
 527 695 527 695 598 626.5 c 128,-1,21
 669 558 669 558 669 443 c 0,22,23
 669 416 669 416 652 294 c 0,8,9
487 272 m 0,24,25
 509 417 509 417 509 449 c 0,26,27
 509 506 509 506 474.5 539.5 c 128,-1,28
 440 573 440 573 384 573 c 0,29,30
 239 573 239 573 215 390 c 0,31,32
 197 261 197 261 197 236 c 0,33,34
 197 179 197 179 231 146 c 128,-1,35
 265 113 265 113 327 113 c 0,36,37
 389 113 389 113 432.5 154 c 128,-1,38
 476 195 476 195 487 272 c 0,24,25
EndSplineSet
Position2: "'cpsp' Capital Spacing lookup 0 subtable" dx=5 dy=0 dh=10 dv=0
EndChar

StartChar: Odieresis
Encoding: 60 214 60
Width: 708
GlyphClass: 2
Flags: MW
HStem: -10 123<284.5 365.5 284.5 386.5> 573 122<334 421> 750 122<277 381 260 398 277 464 481 585>
VStem: 36 161<197.5 253.5 197.5 256> 509 160<429.5 487.5>
LayerCount: 2
Fore
SplineSet
398 872 m 1,0,-1
 381 750 l 1,1,-1
 260 750 l 1,2,-1
 277 872 l 1,3,-1
 398 872 l 1,0,-1
602 872 m 1,4,-1
 585 750 l 1,5,-1
 464 750 l 1,6,-1
 481 872 l 1,7,-1
 602 872 l 1,4,-1
652 294 m 0,8,9
 631 145 631 145 535 67.5 c 128,-1,10
 439 -10 439 -10 289 -10 c 0,11,12
 178 -10 178 -10 107 58.5 c 128,-1,13
 36 127 36 127 36 241 c 0,14,15
 36 262 36 262 55.5 400.5 c 0,16,17
 75 539 75 539 171 617 c 128,-1,18
 267 695 267 695 416 695 c 0,19,20
 527 695 527 695 598 626.5 c 128,-1,21
 669 558 669 558 669 443 c 0,22,23
 669 416 669 416 652 294 c 0,8,9
487 272 m 0,24,25
 509 417 509 417 509 449 c 0,26,27
 509 506 509 506 474.5 539.5 c 128,-1,28
 440 573 440 573 384 573 c 0,29,30
 239 573 239 573 215 390 c 0,31,32
 197 261 197 261 197 236 c 0,33,34
 197 179 197 179 231 146 c 128,-1,35
 265 113 265 113 327 113 c 0,36,37
 389 113 389 113 432.5 154 c 128,-1,38
 476 195 476 195 487 272 c 0,24,25
EndSplineSet
Position2: "'cpsp' Capital Spacing lookup 0 subtable" dx=5 dy=0 dh=10 dv=0
EndChar

StartChar: Ograve
Encoding: 61 210 61
Width: 708
GlyphClass: 2
Flags: MW
HStem: -10 123<284.5 365.5 284.5 386.5> 573 122<334 421> 750 145<365 395 267 467 365 365>
VStem: 36 161<197.5 253.5 197.5 256> 509 160<429.5 487.5>
LayerCount: 2
Fore
SplineSet
265 892 m 1,0,-1
 267 895 l 1,1,-1
 395 895 l 1,2,-1
 467 750 l 1,3,-1
 365 750 l 1,4,-1
 265 892 l 1,0,-1
652 294 m 0,5,6
 631 145 631 145 535 67.5 c 128,-1,7
 439 -10 439 -10 289 -10 c 0,8,9
 178 -10 178 -10 107 58.5 c 128,-1,10
 36 127 36 127 36 241 c 0,11,12
 36 262 36 262 55.5 400.5 c 0,13,14
 75 539 75 539 171 617 c 128,-1,15
 267 695 267 695 416 695 c 0,16,17
 527 695 527 695 598 626.5 c 128,-1,18
 669 558 669 558 669 443 c 0,19,20
 669 416 669 416 652 294 c 0,5,6
487 272 m 0,21,22
 509 417 509 417 509 449 c 0,23,24
 509 506 509 506 474.5 539.5 c 128,-1,25
 440 573 440 573 384 573 c 0,26,27
 239 573 239 573 215 390 c 0,28,29
 197 261 197 261 197 236 c 0,30,31
 197 179 197 179 231 146 c 128,-1,32
 265 113 265 113 327 113 c 0,33,34
 389 113 389 113 432.5 154 c 128,-1,35
 476 195 476 195 487 272 c 0,21,22
EndSplineSet
Position2: "'cpsp' Capital Spacing lookup 0 subtable" dx=5 dy=0 dh=10 dv=0
EndChar

StartChar: Ohungarumlaut
Encoding: 62 336 62
Width: 708
GlyphClass: 2
Flags: MW
HStem: -10 123<284.5 365.5 284.5 386.5> 573 122<334 421> 750 145<227 469 227 469 418 418 418 469 341 520>
VStem: 36 161<197.5 253.5 197.5 256> 509 160<429.5 487.5>
LayerCount: 2
Fore
SplineSet
341 895 m 1,0,-1
 469 895 l 1,1,-1
 470 892 l 1,2,-1
 329 750 l 1,3,-1
 227 750 l 1,4,-1
 341 895 l 1,0,-1
532 895 m 1,5,-1
 660 895 l 1,6,-1
 661 892 l 1,7,-1
 520 750 l 1,8,-1
 418 750 l 1,9,-1
 532 895 l 1,5,-1
652 294 m 0,10,11
 631 145 631 145 535 67.5 c 128,-1,12
 439 -10 439 -10 289 -10 c 0,13,14
 178 -10 178 -10 107 58.5 c 128,-1,15
 36 127 36 127 36 241 c 0,16,17
 36 262 36 262 55.5 400.5 c 0,18,19
 75 539 75 539 171 617 c 128,-1,20
 267 695 267 695 416 695 c 0,21,22
 527 695 527 695 598 626.5 c 128,-1,23
 669 558 669 558 669 443 c 0,24,25
 669 416 669 416 652 294 c 0,10,11
487 272 m 0,26,27
 509 417 509 417 509 449 c 0,28,29
 509 506 509 506 474.5 539.5 c 128,-1,30
 440 573 440 573 384 573 c 0,31,32
 239 573 239 573 215 390 c 0,33,34
 197 261 197 261 197 236 c 0,35,36
 197 179 197 179 231 146 c 128,-1,37
 265 113 265 113 327 113 c 0,38,39
 389 113 389 113 432.5 154 c 128,-1,40
 476 195 476 195 487 272 c 0,26,27
EndSplineSet
EndChar

StartChar: Omacron
Encoding: 63 332 63
Width: 708
GlyphClass: 2
Flags: MW
HStem: -10 123<284.5 365.5 284.5 386.5> 573 122<334 421> 837 74<288 595 277 606>
VStem: 36 161<197.5 253.5 197.5 256> 509 160<429.5 487.5>
LayerCount: 2
Fore
SplineSet
288 911 m 1,0,-1
 606 911 l 1,1,-1
 595 837 l 1,2,-1
 277 837 l 1,3,-1
 288 911 l 1,0,-1
652 294 m 0,4,5
 631 145 631 145 535 67.5 c 128,-1,6
 439 -10 439 -10 289 -10 c 0,7,8
 178 -10 178 -10 107 58.5 c 128,-1,9
 36 127 36 127 36 241 c 0,10,11
 36 262 36 262 55.5 400.5 c 0,12,13
 75 539 75 539 171 617 c 128,-1,14
 267 695 267 695 416 695 c 0,15,16
 527 695 527 695 598 626.5 c 128,-1,17
 669 558 669 558 669 443 c 0,18,19
 669 416 669 416 652 294 c 0,4,5
487 272 m 0,20,21
 509 417 509 417 509 449 c 0,22,23
 509 506 509 506 474.5 539.5 c 128,-1,24
 440 573 440 573 384 573 c 0,25,26
 239 573 239 573 215 390 c 0,27,28
 197 261 197 261 197 236 c 0,29,30
 197 179 197 179 231 146 c 128,-1,31
 265 113 265 113 327 113 c 0,32,33
 389 113 389 113 432.5 154 c 128,-1,34
 476 195 476 195 487 272 c 0,20,21
EndSplineSet
EndChar

StartChar: Oslash
Encoding: 64 216 64
Width: 708
GlyphClass: 2
Flags: MW
HStem: -10 123<306 365.5 306 386.5> 573 122<334 399.5>
VStem: 36 161<229 253.5 229 256> 509 160<429.5 456>
LayerCount: 2
Fore
SplineSet
652 294 m 0,0,1
 631 145 631 145 535 67.5 c 128,-1,2
 439 -10 439 -10 289 -10 c 0,3,4
 214 -10 214 -10 156 22 c 1,5,-1
 91 -65 l 1,6,-1
 5 -65 l 1,7,-1
 101 64 l 1,8,9
 36 132 36 132 36 241 c 0,10,11
 36 262 36 262 55.5 400.5 c 128,-1,12
 75 539 75 539 171 617 c 128,-1,13
 267 695 267 695 416 695 c 0,14,15
 490 695 490 695 547 664 c 1,16,-1
 615 754 l 1,17,-1
 701 754 l 1,18,-1
 603 622 l 1,19,20
 669 553 669 553 669 443 c 0,21,22
 669 416 669 416 652 294 c 0,0,1
215 390 m 0,23,24
 197 261 197 261 197 237.5 c 128,-1,25
 197 214 197 214 201 199 c 1,26,-1
 462 549 l 1,27,28
 428 573 428 573 384 573 c 0,29,30
 239 573 239 573 215 390 c 0,23,24
487 272 m 0,31,32
 509 417 509 417 509 444 c 128,-1,33
 509 471 509 471 503 489 c 1,34,-1
 241 137 l 1,35,36
 272 113 272 113 330.5 113 c 128,-1,37
 389 113 389 113 432.5 154 c 128,-1,38
 476 195 476 195 487 272 c 0,31,32
EndSplineSet
Position2: "'cpsp' Capital Spacing lookup 0 subtable" dx=5 dy=0 dh=10 dv=0
EndChar

StartChar: Otilde
Encoding: 65 213 65
Width: 708
GlyphClass: 2
Flags: MW
HStem: -10 123<284.5 365.5 284.5 386.5> 573 122<334 421> 749 86<498 539 498 544> 786 87<325 366>
VStem: 36 161<197.5 253.5 197.5 256> 509 160<429.5 487.5>
LayerCount: 2
Fore
SplineSet
583 873 m 1,0,-1
 648 873 l 1,1,2
 642 825 642 825 601.5 787 c 128,-1,3
 561 749 561 749 505 749 c 0,4,5
 472 749 472 749 418.5 767.5 c 128,-1,6
 365 786 365 786 339 786 c 0,7,8
 298 786 298 786 282 749 c 1,9,-1
 217 749 l 1,10,11
 223 796 223 796 263.5 834.5 c 128,-1,12
 304 873 304 873 360 873 c 0,13,14
 393 873 393 873 446 854 c 128,-1,15
 499 835 499 835 525 835 c 0,16,17
 566 835 566 835 583 873 c 1,0,-1
652 294 m 0,18,19
 631 145 631 145 535 67.5 c 128,-1,20
 439 -10 439 -10 289 -10 c 0,21,22
 178 -10 178 -10 107 58.5 c 128,-1,23
 36 127 36 127 36 241 c 0,24,25
 36 262 36 262 55.5 400.5 c 0,26,27
 75 539 75 539 171 617 c 128,-1,28
 267 695 267 695 416 695 c 0,29,30
 527 695 527 695 598 626.5 c 128,-1,31
 669 558 669 558 669 443 c 0,32,33
 669 416 669 416 652 294 c 0,18,19
487 272 m 0,34,35
 509 417 509 417 509 449 c 0,36,37
 509 506 509 506 474.5 539.5 c 128,-1,38
 440 573 440 573 384 573 c 0,39,40
 239 573 239 573 215 390 c 0,41,42
 197 261 197 261 197 236 c 0,43,44
 197 179 197 179 231 146 c 128,-1,45
 265 113 265 113 327 113 c 0,46,47
 389 113 389 113 432.5 154 c 128,-1,48
 476 195 476 195 487 272 c 0,34,35
EndSplineSet
Position2: "'cpsp' Capital Spacing lookup 0 subtable" dx=5 dy=0 dh=10 dv=0
EndChar

StartChar: OE
Encoding: 66 338 66
Width: 1024
GlyphClass: 2
Flags: MW
HStem: -10 123<284.5 320.5> 0 123<630 932 630 932> 290 123<670 932 653 949> 563 123<691 991 691 691> 573 122<334 421>
VStem: 36 161<197.5 253.5 197.5 256>
LayerCount: 2
Fore
SplineSet
455 0 m 1,0,-1
 459 32 l 1,1,2
 386 -10 386 -10 282 -10 c 0,3,4
 178 -10 178 -10 107 58.5 c 128,-1,5
 36 127 36 127 36 241 c 0,6,7
 36 262 36 262 55 399.5 c 0,8,9
 74 537 74 537 171 616 c 128,-1,10
 268 695 268 695 406 695 c 0,11,12
 486 695 486 695 547 654 c 1,13,-1
 552 686 l 1,14,-1
 1026 686 l 1,15,-1
 991 563 l 1,16,-1
 691 563 l 1,17,-1
 670 413 l 1,18,-1
 949 413 l 1,19,-1
 932 290 l 1,20,-1
 653 290 l 1,21,-1
 630 123 l 1,22,-1
 932 123 l 1,23,-1
 932 0 l 1,24,-1
 455 0 l 1,0,-1
487 272 m 0,25,26
 509 417 509 417 509 449 c 0,27,28
 509 506 509 506 474.5 539.5 c 128,-1,29
 440 573 440 573 384 573 c 0,30,31
 239 573 239 573 215 390 c 0,32,33
 197 261 197 261 197 236 c 0,34,35
 197 179 197 179 231 146 c 128,-1,36
 265 113 265 113 327 113 c 0,37,38
 389 113 389 113 432.5 154 c 128,-1,39
 476 195 476 195 487 272 c 0,25,26
EndSplineSet
Position2: "'cpsp' Capital Spacing lookup 0 subtable" dx=5 dy=0 dh=10 dv=0
EndChar

StartChar: P
Encoding: 67 80 67
Width: 629
GlyphClass: 2
Flags: MW
HStem: 0 21G<23 177 23 23> 265 121<231 372 372 391 214 372> 563 123<256 397 256 256>
VStem: 474 157<489 509>
LayerCount: 2
Fore
SplineSet
177 0 m 1,0,-1
 23 0 l 1,1,-1
 120 686 l 1,2,-1
 450 686 l 2,3,4
 529 686 529 686 580 636.5 c 128,-1,5
 631 587 631 587 631 511 c 0,6,7
 631 405 631 405 564.5 335 c 128,-1,8
 498 265 498 265 391 265 c 2,9,-1
 214 265 l 1,10,-1
 177 0 l 1,0,-1
231 386 m 1,11,-1
 372 386 l 2,12,13
 417 386 417 386 444 417 c 128,-1,14
 471 448 471 448 474 489 c 0,15,16
 474 520 474 520 453 541.5 c 128,-1,17
 432 563 432 563 397 563 c 2,18,-1
 256 563 l 1,19,-1
 231 386 l 1,11,-1
EndSplineSet
Position2: "'cpsp' Capital Spacing lookup 0 subtable" dx=5 dy=0 dh=10 dv=0
EndChar

StartChar: Thorn
Encoding: 68 222 68
Width: 634
GlyphClass: 2
Flags: MW
HStem: 0 21G<23 177 23 23> 154 118<216 362 362 376 199 362> 450 122<258 387 241 435> 666 20G<120 274 274 274>
VStem: 459 156<352.5 400>
LayerCount: 2
Fore
SplineSet
177 0 m 1,0,-1
 23 0 l 1,1,-1
 120 686 l 1,2,-1
 274 686 l 1,3,-1
 258 572 l 1,4,-1
 435 572 l 2,5,6
 513 572 513 572 564 523 c 128,-1,7
 615 474 615 474 615 398 c 0,8,9
 615 302 615 302 547 228 c 128,-1,10
 479 154 479 154 376 154 c 2,11,-1
 199 154 l 1,12,-1
 177 0 l 1,0,-1
216 272 m 1,13,-1
 362 272 l 2,14,15
 403 272 403 272 431 304.5 c 128,-1,16
 459 337 459 337 459 373.5 c 0,17,18
 459 410 459 410 438.5 430 c 128,-1,19
 418 450 418 450 387 450 c 2,20,-1
 241 450 l 1,21,-1
 216 272 l 1,13,-1
EndSplineSet
Position2: "'cpsp' Capital Spacing lookup 0 subtable" dx=5 dy=0 dh=10 dv=0
EndChar

StartChar: Q
Encoding: 69 81 69
Width: 708
GlyphClass: 2
Flags: MW
HStem: -153 99<459.5 484> -6 21G 1 21G 573 122<345 432>
VStem: 47 161<197.5 253.5 197.5 256> 520 160<429.5 487.5>
LayerCount: 2
Fore
SplineSet
680 443 m 0,0,1
 680 416 680 416 662.5 294.5 c 128,-1,2
 645 173 645 173 578 99 c 128,-1,3
 511 25 511 25 404 1 c 1,4,5
 419 -54 419 -54 487 -54 c 0,6,7
 524.5 -54 524.5 -54 568.25 -41.5 c 132,-1,8
 612 -29 612 -29 612 -28 c 2,9,-1
 600 -116 l 1,10,11
 530 -153 530 -153 437.5 -153 c 128,-1,12
 345 -153 345 -153 300 -109 c 128,-1,13
 255 -65 255 -65 251 -6 c 1,14,15
 159 9 159 9 103 74.5 c 128,-1,16
 47 140 47 140 47 241 c 0,17,18
 47 262 47 262 66.5 400.5 c 128,-1,19
 86 539 86 539 182 617 c 128,-1,20
 278 695 278 695 427 695 c 0,21,22
 538 695 538 695 609 626.5 c 128,-1,23
 680 558 680 558 680 443 c 0,0,1
498 272 m 0,24,25
 520 417 520 417 520 449 c 0,26,27
 520 506 520 506 485.5 539.5 c 128,-1,28
 451 573 451 573 395 573 c 0,29,30
 250 573 250 573 226 390 c 0,31,32
 208 261 208 261 208 236 c 0,33,34
 208 179 208 179 242 146 c 128,-1,35
 276 113 276 113 338 113 c 128,-1,36
 400 113 400 113 443.5 154 c 128,-1,37
 487 195 487 195 498 272 c 0,24,25
EndSplineSet
Position2: "'cpsp' Capital Spacing lookup 0 subtable" dx=5 dy=0 dh=10 dv=0
EndChar

StartChar: R
Encoding: 70 82 70
Width: 665
GlyphClass: 2
Flags: MW
HStem: -7 21G<481.5 527> 0 21G<24 176 24 24> 284 121<233 333 216 383> 563 123<255 405 255 255>
VStem: 418 156<201 212.5> 475 160<501 516.5>
AnchorPoint: "Bottom" 297 0 basechar 0
LayerCount: 2
Fore
SplineSet
410 86 m 1,0,-1
 418 176 l 1,1,2
 418 229 418 229 395 256.5 c 128,-1,3
 372 284 372 284 333 284 c 2,4,-1
 216 284 l 1,5,-1
 176 0 l 1,6,-1
 24 0 l 1,7,-1
 120 686 l 1,8,-1
 427 686 l 2,9,10
 521 686 521 686 578 652 c 128,-1,11
 635 618 635 618 635 546.5 c 128,-1,12
 635 475 635 475 597 421.5 c 128,-1,13
 559 368 559 368 489 355 c 1,14,-1
 488 348 l 1,15,16
 524 336 524 336 549 301 c 128,-1,17
 574 266 574 266 574 207 c 1,18,-1
 567 113 l 1,19,20
 567 53 567 53 605 40 c 1,21,-1
 601 6 l 1,22,23
 566 -7 566 -7 514 -7 c 128,-1,24
 462 -7 462 -7 436 13.5 c 128,-1,25
 410 34 410 34 410 86 c 1,0,-1
233 405 m 1,26,-1
 383 405 l 2,27,28
 421 405 421 405 448 431.5 c 128,-1,29
 475 458 475 458 475 492 c 128,-1,30
 475 526 475 526 456 544.5 c 128,-1,31
 437 563 437 563 405 563 c 2,32,-1
 255 563 l 1,33,-1
 233 405 l 1,26,-1
EndSplineSet
Position2: "'cpsp' Capital Spacing lookup 0 subtable" dx=5 dy=0 dh=10 dv=0
EndChar

StartChar: Racute
Encoding: 71 340 71
Width: 665
GlyphClass: 2
Flags: MW
HStem: -7 21G<481.5 527> 0 21G<24 176 24 24> 284 121<233 333 216 383> 563 123<255 405 255 255> 750 145<312 554 312 554>
VStem: 418 156<201 212.5> 475 160<501 516.5>
AnchorPoint: "Bottom" 297 0 basechar 0
LayerCount: 2
Fore
SplineSet
425 895 m 1,0,-1
 554 895 l 1,1,-1
 554 891 l 1,2,-1
 413 750 l 1,3,-1
 312 750 l 1,4,-1
 425 895 l 1,0,-1
410 86 m 1,5,-1
 418 176 l 1,6,7
 418 229 418 229 395 256.5 c 128,-1,8
 372 284 372 284 333 284 c 2,9,-1
 216 284 l 1,10,-1
 176 0 l 1,11,-1
 24 0 l 1,12,-1
 120 686 l 1,13,-1
 427 686 l 2,14,15
 521 686 521 686 578 652 c 128,-1,16
 635 618 635 618 635 546.5 c 128,-1,17
 635 475 635 475 597 421.5 c 128,-1,18
 559 368 559 368 489 355 c 1,19,-1
 488 348 l 1,20,21
 524 336 524 336 549 301 c 128,-1,22
 574 266 574 266 574 207 c 1,23,-1
 567 113 l 1,24,25
 567 53 567 53 605 40 c 1,26,-1
 601 6 l 1,27,28
 566 -7 566 -7 514 -7 c 128,-1,29
 462 -7 462 -7 436 13.5 c 128,-1,30
 410 34 410 34 410 86 c 1,5,-1
233 405 m 1,31,-1
 383 405 l 2,32,33
 421 405 421 405 448 431.5 c 128,-1,34
 475 458 475 458 475 492 c 128,-1,35
 475 526 475 526 456 544.5 c 128,-1,36
 437 563 437 563 405 563 c 2,37,-1
 255 563 l 1,38,-1
 233 405 l 1,31,-1
EndSplineSet
EndChar

StartChar: Rcaron
Encoding: 72 344 72
Width: 665
GlyphClass: 2
Flags: MW
HStem: -7 21G<481.5 527> 0 21G<24 176 24 24> 284 121<233 333 216 383> 563 123<255 405 255 255> 750 145<224 444 224 341>
VStem: 418 156<201 212.5> 475 160<501 516.5>
AnchorPoint: "Bottom" 297 0 basechar 0
LayerCount: 2
Fore
SplineSet
602 895 m 1,0,-1
 444 750 l 1,1,-1
 341 750 l 1,2,-1
 224 895 l 1,3,-1
 329 895 l 1,4,-1
 402 812 l 1,5,-1
 498 895 l 1,6,-1
 602 895 l 1,0,-1
410 86 m 1,7,-1
 418 176 l 1,8,9
 418 229 418 229 395 256.5 c 128,-1,10
 372 284 372 284 333 284 c 2,11,-1
 216 284 l 1,12,-1
 176 0 l 1,13,-1
 24 0 l 1,14,-1
 120 686 l 1,15,-1
 427 686 l 2,16,17
 521 686 521 686 578 652 c 128,-1,18
 635 618 635 618 635 546.5 c 128,-1,19
 635 475 635 475 597 421.5 c 128,-1,20
 559 368 559 368 489 355 c 1,21,-1
 488 348 l 1,22,23
 524 336 524 336 549 301 c 128,-1,24
 574 266 574 266 574 207 c 1,25,-1
 567 113 l 1,26,27
 567 53 567 53 605 40 c 1,28,-1
 601 6 l 1,29,30
 566 -7 566 -7 514 -7 c 128,-1,31
 462 -7 462 -7 436 13.5 c 128,-1,32
 410 34 410 34 410 86 c 1,7,-1
233 405 m 1,33,-1
 383 405 l 2,34,35
 421 405 421 405 448 431.5 c 128,-1,36
 475 458 475 458 475 492 c 128,-1,37
 475 526 475 526 456 544.5 c 128,-1,38
 437 563 437 563 405 563 c 2,39,-1
 255 563 l 1,40,-1
 233 405 l 1,33,-1
EndSplineSet
EndChar

StartChar: Rcommaaccent
Encoding: 73 342 73
Width: 665
GlyphClass: 2
Flags: MW
HStem: -167 137<225 269 206 371> -7 21G<481.5 527> 0 21G<24 176 24 24> 284 121<233 333 216 383> 563 123<255 405 255 255>
VStem: 418 156<201 212.5> 475 160<501 516.5>
AnchorPoint: "Bottom" 297 0 basechar 0
LayerCount: 2
Fore
SplineSet
410 86 m 1,0,-1
 418 176 l 1,1,2
 418 229 418 229 395 256.5 c 128,-1,3
 372 284 372 284 333 284 c 2,4,-1
 216 284 l 1,5,-1
 176 0 l 1,6,-1
 24 0 l 1,7,-1
 120 686 l 1,8,-1
 427 686 l 2,9,10
 521 686 521 686 578 652 c 128,-1,11
 635 618 635 618 635 546.5 c 128,-1,12
 635 475 635 475 597 421.5 c 128,-1,13
 559 368 559 368 489 355 c 1,14,-1
 488 348 l 1,15,16
 524 336 524 336 549 301 c 128,-1,17
 574 266 574 266 574 207 c 1,18,-1
 567 113 l 1,19,20
 567 53 567 53 605 40 c 1,21,-1
 601 6 l 1,22,23
 566 -7 566 -7 514 -7 c 128,-1,24
 462 -7 462 -7 436 13.5 c 128,-1,25
 410 34 410 34 410 86 c 1,0,-1
233 405 m 1,26,-1
 383 405 l 2,27,28
 421 405 421 405 448 431.5 c 128,-1,29
 475 458 475 458 475 492 c 128,-1,30
 475 526 475 526 456 544.5 c 128,-1,31
 437 563 437 563 405 563 c 2,32,-1
 255 563 l 1,33,-1
 233 405 l 1,26,-1
269 -167 m 1,34,-1
 206 -167 l 1,35,-1
 225 -30 l 1,36,-1
 371 -30 l 1,37,-1
 355 -143 l 1,38,-1
 315 -250 l 1,39,-1
 241 -250 l 1,40,-1
 269 -167 l 1,34,-1
EndSplineSet
EndChar

StartChar: S
Encoding: 74 83 74
Width: 635
GlyphClass: 2
Flags: MW
HStem: -10 125<236.5 323 236.5 371> 575 121<316.5 385.5>
VStem: 12 148<168.5 177> 68 159<441.5 524.5 441.5 546.5> 417 161<173.5 259> 456 146<521 527>
AnchorPoint: "Bottom" 282 0 basechar 0
LayerCount: 2
Fore
SplineSet
578 236 m 0,0,1
 578 122 578 122 499 56 c 128,-1,2
 420 -10 420 -10 262 -10 c 0,3,4
 152 -10 152 -10 82 34 c 128,-1,5
 12 78 12 78 12 168 c 0,6,7
 12 198 12 198 19 224 c 1,8,-1
 165 224 l 1,9,10
 160 216 160 216 160 193 c 0,11,12
 160 156 160 156 189 135.5 c 128,-1,13
 218 115 218 115 274 115 c 0,14,15
 417 115 417 115 417 200 c 0,16,17
 417 232 417 232 381 250.5 c 128,-1,18
 345 269 345 269 294 281 c 128,-1,19
 243 293 243 293 191.5 309.5 c 128,-1,20
 140 326 140 326 104 366.5 c 128,-1,21
 68 407 68 407 68 471 c 0,22,23
 68 580 68 580 151 638 c 128,-1,24
 234 696 234 696 368 696 c 0,25,26
 472 696 472 696 537 653.5 c 128,-1,27
 602 611 602 611 602 526 c 0,28,29
 602 504 602 504 598 483 c 1,30,-1
 453 483 l 1,31,32
 456 498 456 498 456 506 c 0,33,34
 456 538 456 538 428.5 556.5 c 128,-1,35
 401 575 401 575 348.5 575 c 0,36,37
 296 575 296 575 261.5 555.5 c 128,-1,38
 227 536 227 536 227 502 c 0,39,40
 227 468 227 468 263 449.5 c 128,-1,41
 299 431 299 431 350.5 419.5 c 128,-1,42
 402 408 402 408 454 391.5 c 128,-1,43
 506 375 506 375 542 336 c 128,-1,44
 578 297 578 297 578 236 c 0,0,1
EndSplineSet
Position2: "'cpsp' Capital Spacing lookup 0 subtable" dx=5 dy=0 dh=10 dv=0
EndChar

StartChar: Sacute
Encoding: 75 346 75
Width: 635
GlyphClass: 2
Flags: MW
HStem: -10 125<236.5 323 236.5 371> 575 121<316.5 385.5> 750 145<297 539 297 539>
VStem: 12 148<168.5 177> 68 159<441.5 524.5 441.5 546.5> 417 161<173.5 259> 456 146<521 527>
AnchorPoint: "Bottom" 282 0 basechar 0
LayerCount: 2
Fore
SplineSet
410 895 m 1,0,-1
 539 895 l 1,1,-1
 539 891 l 1,2,-1
 398 750 l 1,3,-1
 297 750 l 1,4,-1
 410 895 l 1,0,-1
578 236 m 0,5,6
 578 122 578 122 499 56 c 128,-1,7
 420 -10 420 -10 262 -10 c 0,8,9
 152 -10 152 -10 82 34 c 128,-1,10
 12 78 12 78 12 168 c 0,11,12
 12 198 12 198 19 224 c 1,13,-1
 165 224 l 1,14,15
 160 216 160 216 160 193 c 0,16,17
 160 156 160 156 189 135.5 c 128,-1,18
 218 115 218 115 274 115 c 0,19,20
 417 115 417 115 417 200 c 0,21,22
 417 232 417 232 381 250.5 c 128,-1,23
 345 269 345 269 294 281 c 128,-1,24
 243 293 243 293 191.5 309.5 c 128,-1,25
 140 326 140 326 104 366.5 c 128,-1,26
 68 407 68 407 68 471 c 0,27,28
 68 580 68 580 151 638 c 128,-1,29
 234 696 234 696 368 696 c 0,30,31
 472 696 472 696 537 653.5 c 128,-1,32
 602 611 602 611 602 526 c 0,33,34
 602 504 602 504 598 483 c 1,35,-1
 453 483 l 1,36,37
 456 498 456 498 456 506 c 0,38,39
 456 538 456 538 428.5 556.5 c 128,-1,40
 401 575 401 575 348.5 575 c 0,41,42
 296 575 296 575 261.5 555.5 c 128,-1,43
 227 536 227 536 227 502 c 0,44,45
 227 468 227 468 263 449.5 c 128,-1,46
 299 431 299 431 350.5 419.5 c 128,-1,47
 402 408 402 408 454 391.5 c 128,-1,48
 506 375 506 375 542 336 c 128,-1,49
 578 297 578 297 578 236 c 0,5,6
EndSplineSet
EndChar

StartChar: Scaron
Encoding: 76 352 76
Width: 635
GlyphClass: 2
Flags: MW
HStem: -10 125<236.5 323 236.5 371> 575 121<316.5 385.5> 750 145<197 417 197 314>
VStem: 12 148<168.5 177> 68 159<441.5 524.5 441.5 546.5> 417 161<173.5 259> 456 146<521 527>
LayerCount: 2
Fore
SplineSet
575 895 m 1,0,-1
 417 750 l 1,1,-1
 314 750 l 1,2,-1
 197 895 l 1,3,-1
 302 895 l 1,4,-1
 375 812 l 1,5,-1
 471 895 l 1,6,-1
 575 895 l 1,0,-1
578 236 m 0,7,8
 578 122 578 122 499 56 c 128,-1,9
 420 -10 420 -10 262 -10 c 0,10,11
 152 -10 152 -10 82 34 c 128,-1,12
 12 78 12 78 12 168 c 0,13,14
 12 198 12 198 19 224 c 1,15,-1
 165 224 l 1,16,17
 160 216 160 216 160 193 c 0,18,19
 160 156 160 156 189 135.5 c 128,-1,20
 218 115 218 115 274 115 c 0,21,22
 417 115 417 115 417 200 c 0,23,24
 417 232 417 232 381 250.5 c 128,-1,25
 345 269 345 269 294 281 c 128,-1,26
 243 293 243 293 191.5 309.5 c 128,-1,27
 140 326 140 326 104 366.5 c 128,-1,28
 68 407 68 407 68 471 c 0,29,30
 68 580 68 580 151 638 c 128,-1,31
 234 696 234 696 368 696 c 0,32,33
 472 696 472 696 537 653.5 c 128,-1,34
 602 611 602 611 602 526 c 0,35,36
 602 504 602 504 598 483 c 1,37,-1
 453 483 l 1,38,39
 456 498 456 498 456 506 c 0,40,41
 456 538 456 538 428.5 556.5 c 128,-1,42
 401 575 401 575 348.5 575 c 128,-1,43
 296 575 296 575 261.5 555.5 c 128,-1,44
 227 536 227 536 227 502 c 128,-1,45
 227 468 227 468 263 449.5 c 128,-1,46
 299 431 299 431 350.5 419.5 c 128,-1,47
 402 408 402 408 454 391.5 c 128,-1,48
 506 375 506 375 542 336 c 128,-1,49
 578 297 578 297 578 236 c 0,7,8
EndSplineSet
Position2: "'cpsp' Capital Spacing lookup 0 subtable" dx=5 dy=0 dh=10 dv=0
EndChar

StartChar: Scedilla
Encoding: 77 350 77
Width: 635
GlyphClass: 2
Flags: MW
HStem: -197 55<233.5 269.5 232.5 275> -68 51<257 270 250 280> -10 125<236.5 323 236.5 371> 575 121<316.5 385.5>
VStem: 12 148<168.5 177> 68 159<441.5 524.5 441.5 546.5> 310 75<-114.5 -89> 417 161<173.5 259> 456 146<521 527>
AnchorPoint: "Bottom" 282 0 basechar 0
LayerCount: 2
Fore
SplineSet
578 236 m 0,0,1
 578 122 578 122 499 56 c 128,-1,2
 420 -10 420 -10 262 -10 c 0,3,4
 152 -10 152 -10 82 34 c 128,-1,5
 12 78 12 78 12 168 c 0,6,7
 12 198 12 198 19 224 c 1,8,-1
 165 224 l 1,9,10
 160 216 160 216 160 193 c 0,11,12
 160 156 160 156 189 135.5 c 128,-1,13
 218 115 218 115 274 115 c 0,14,15
 417 115 417 115 417 200 c 0,16,17
 417 232 417 232 381 250.5 c 128,-1,18
 345 269 345 269 294 281 c 128,-1,19
 243 293 243 293 191.5 309.5 c 128,-1,20
 140 326 140 326 104 366.5 c 128,-1,21
 68 407 68 407 68 471 c 0,22,23
 68 580 68 580 151 638 c 128,-1,24
 234 696 234 696 368 696 c 0,25,26
 472 696 472 696 537 653.5 c 128,-1,27
 602 611 602 611 602 526 c 0,28,29
 602 504 602 504 598 483 c 1,30,-1
 453 483 l 1,31,32
 456 498 456 498 456 506 c 0,33,34
 456 538 456 538 428.5 556.5 c 128,-1,35
 401 575 401 575 348.5 575 c 128,-1,36
 296 575 296 575 261.5 555.5 c 128,-1,37
 227 536 227 536 227 502 c 128,-1,38
 227 468 227 468 263 449.5 c 128,-1,39
 299 431 299 431 350.5 419.5 c 128,-1,40
 402 408 402 408 454 391.5 c 128,-1,41
 506 375 506 375 542 336 c 128,-1,42
 578 297 578 297 578 236 c 0,0,1
148 -168 m 1,43,-1
 176 -116 l 2,44,45
 177 -116 177 -116 182 -119.5 c 128,-1,46
 187 -123 187 -123 193.5 -126.5 c 128,-1,47
 200 -130 200 -130 209 -133.5 c 0,48,49
 230.857142857 -142 230.857142857 -142 254.928571429 -142 c 128,-1,50
 279 -142 279 -142 294.5 -131.5 c 128,-1,51
 310 -121 310 -121 310 -99 c 0,52,53
 310 -68 310 -68 270 -68 c 2,54,-1
 250 -68 l 1,55,-1
 257 -17 l 1,56,-1
 280 -17 l 2,57,58
 385 -17 385 -17 385 -91 c 0,59,60
 385 -132 385 -132 360 -157.5 c 128,-1,61
 335 -183 335 -183 308 -190 c 128,-1,62
 281 -197 281 -197 252 -197 c 0,63,64
 185 -197 185 -197 148 -168 c 1,43,-1
EndSplineSet
EndChar

StartChar: Scommaaccent
Encoding: 78 536 78
Width: 635
GlyphClass: 2
Flags: MW
HStem: -167 137<210 254 191 356> -10 125<236.5 323 236.5 371> 575 121<316.5 385.5>
VStem: 12 148<168.5 177> 68 159<441.5 524.5 441.5 546.5> 417 161<173.5 259> 456 146<521 527>
AnchorPoint: "Bottom" 282 0 basechar 0
LayerCount: 2
Fore
SplineSet
578 236 m 0,0,1
 578 122 578 122 499 56 c 128,-1,2
 420 -10 420 -10 262 -10 c 0,3,4
 152 -10 152 -10 82 34 c 128,-1,5
 12 78 12 78 12 168 c 0,6,7
 12 198 12 198 19 224 c 1,8,-1
 165 224 l 1,9,10
 160 216 160 216 160 193 c 0,11,12
 160 156 160 156 189 135.5 c 128,-1,13
 218 115 218 115 274 115 c 0,14,15
 417 115 417 115 417 200 c 0,16,17
 417 232 417 232 381 250.5 c 128,-1,18
 345 269 345 269 294 281 c 128,-1,19
 243 293 243 293 191.5 309.5 c 128,-1,20
 140 326 140 326 104 366.5 c 128,-1,21
 68 407 68 407 68 471 c 0,22,23
 68 580 68 580 151 638 c 128,-1,24
 234 696 234 696 368 696 c 0,25,26
 472 696 472 696 537 653.5 c 128,-1,27
 602 611 602 611 602 526 c 0,28,29
 602 504 602 504 598 483 c 1,30,-1
 453 483 l 1,31,32
 456 498 456 498 456 506 c 0,33,34
 456 538 456 538 428.5 556.5 c 128,-1,35
 401 575 401 575 348.5 575 c 0,36,37
 296 575 296 575 261.5 555.5 c 128,-1,38
 227 536 227 536 227 502 c 0,39,40
 227 468 227 468 263 449.5 c 128,-1,41
 299 431 299 431 350.5 419.5 c 128,-1,42
 402 408 402 408 454 391.5 c 128,-1,43
 506 375 506 375 542 336 c 128,-1,44
 578 297 578 297 578 236 c 0,0,1
254 -167 m 1,45,-1
 191 -167 l 1,46,-1
 210 -30 l 1,47,-1
 356 -30 l 1,48,-1
 340 -143 l 1,49,-1
 300 -250 l 1,50,-1
 226 -250 l 1,51,-1
 254 -167 l 1,45,-1
EndSplineSet
EndChar

StartChar: T
Encoding: 79 84 79
Width: 557
GlyphClass: 2
Flags: MW
HStem: 0 21G<153 306 153 153> 562 124<55 232 37 597 385 385 385 579>
VStem: 37 560<562 686>
AnchorPoint: "Bottom" 230 0 basechar 0
LayerCount: 2
Fore
SplineSet
306 0 m 1,0,-1
 153 0 l 1,1,-1
 232 562 l 1,2,-1
 37 562 l 1,3,-1
 55 686 l 1,4,-1
 597 686 l 1,5,-1
 579 562 l 1,6,-1
 385 562 l 1,7,-1
 306 0 l 1,0,-1
EndSplineSet
Position2: "'cpsp' Capital Spacing lookup 0 subtable" dx=5 dy=0 dh=10 dv=0
EndChar

StartChar: Tcaron
Encoding: 80 356 80
Width: 557
GlyphClass: 2
Flags: MW
HStem: 0 21G<153 306 153 153> 562 124<55 232 37 597 385 385 385 579> 750 145<170 390 170 287>
VStem: 37 560<562 686>
AnchorPoint: "Bottom" 230 0 basechar 0
LayerCount: 2
Fore
SplineSet
548 895 m 1,0,-1
 390 750 l 1,1,-1
 287 750 l 1,2,-1
 170 895 l 1,3,-1
 275 895 l 1,4,-1
 348 812 l 1,5,-1
 444 895 l 1,6,-1
 548 895 l 1,0,-1
306 0 m 1,7,-1
 153 0 l 1,8,-1
 232 562 l 1,9,-1
 37 562 l 1,10,-1
 55 686 l 1,11,-1
 597 686 l 1,12,-1
 579 562 l 1,13,-1
 385 562 l 1,14,-1
 306 0 l 1,7,-1
EndSplineSet
EndChar

StartChar: Tcedilla
Encoding: 81 354 81
Width: 557
GlyphClass: 2
Flags: MW
HStem: -197 55<181.5 217.5 180.5 223> -68 51<205 218 198 228> 0 21G<153 306 153 153> 562 124<55 232 37 597 385 385 385 579>
VStem: 258 75<-114.5 -89>
AnchorPoint: "Bottom" 230 0 basechar 0
LayerCount: 2
Fore
SplineSet
306 0 m 1,0,-1
 153 0 l 1,1,-1
 232 562 l 1,2,-1
 37 562 l 1,3,-1
 55 686 l 1,4,-1
 597 686 l 1,5,-1
 579 562 l 1,6,-1
 385 562 l 1,7,-1
 306 0 l 1,0,-1
96 -168 m 1,8,-1
 124 -116 l 2,9,10
 125 -116 125 -116 130 -119.5 c 128,-1,11
 135 -123 135 -123 141.5 -126.5 c 128,-1,12
 148 -130 148 -130 157 -133.5 c 0,13,14
 178.857142857 -142 178.857142857 -142 202.928571429 -142 c 128,-1,15
 227 -142 227 -142 242.5 -131.5 c 128,-1,16
 258 -121 258 -121 258 -99 c 0,17,18
 258 -68 258 -68 218 -68 c 2,19,-1
 198 -68 l 1,20,-1
 205 -17 l 1,21,-1
 228 -17 l 2,22,23
 333 -17 333 -17 333 -91 c 0,24,25
 333 -132 333 -132 308 -157.5 c 128,-1,26
 283 -183 283 -183 256 -190 c 128,-1,27
 229 -197 229 -197 200 -197 c 0,28,29
 133 -197 133 -197 96 -168 c 1,8,-1
EndSplineSet
EndChar

StartChar: Tcommaaccent
Encoding: 82 538 82
Width: 557
GlyphClass: 2
Flags: MW
HStem: -167 137<158 202 139 304> 0 21G<153 306 153 153> 562 124<55 232 37 597 385 385 385 579>
VStem: 37 560<562 686>
AnchorPoint: "Bottom" 230 0 basechar 0
LayerCount: 2
Fore
SplineSet
306 0 m 1,0,-1
 153 0 l 1,1,-1
 232 562 l 1,2,-1
 37 562 l 1,3,-1
 55 686 l 1,4,-1
 597 686 l 1,5,-1
 579 562 l 1,6,-1
 385 562 l 1,7,-1
 306 0 l 1,0,-1
202 -167 m 1,8,-1
 139 -167 l 1,9,-1
 158 -30 l 1,10,-1
 304 -30 l 1,11,-1
 288 -143 l 1,12,-1
 248 -250 l 1,13,-1
 174 -250 l 1,14,-1
 202 -167 l 1,8,-1
EndSplineSet
EndChar

StartChar: U
Encoding: 83 85 83
Width: 673
GlyphClass: 2
Flags: MW
HStem: -10 122<202 340.5 273 301> 666 20G<112 266 266 266 503 657 657 657>
VStem: 44 156<177.5 189.5>
LayerCount: 2
Fore
SplineSet
657 686 m 1,0,-1
 592 218 l 2,1,2
 577 112 577 112 498 51 c 128,-1,3
 419 -10 419 -10 301 -10 c 2,4,-1
 273 -10 l 2,5,6
 167 -10 167 -10 105.5 41.5 c 128,-1,7
 44 93 44 93 44 181 c 0,8,9
 44 198 44 198 112 686 c 1,10,-1
 266 686 l 1,11,12
 200 215 200 215 200 205 c 0,13,14
 200 163 200 163 228.5 137.5 c 128,-1,15
 257 112 257 112 307.5 112 c 0,16,17
 358 112 358 112 394.5 142.5 c 128,-1,18
 431 173 431 173 438 221 c 2,19,-1
 503 686 l 1,20,-1
 657 686 l 1,0,-1
EndSplineSet
Position2: "'cpsp' Capital Spacing lookup 0 subtable" dx=5 dy=0 dh=10 dv=0
EndChar

StartChar: Uacute
Encoding: 84 218 84
Width: 673
GlyphClass: 2
Flags: MW
HStem: -10 122<202 340.5 273 301> 666 20G<112 266 266 266 503 657 657 657> 750 145<342 584 342 584>
VStem: 44 156<177.5 189.5>
LayerCount: 2
Fore
SplineSet
455 895 m 1,0,-1
 584 895 l 1,1,-1
 584 891 l 1,2,-1
 443 750 l 1,3,-1
 342 750 l 1,4,-1
 455 895 l 1,0,-1
657 686 m 1,5,-1
 592 218 l 2,6,7
 577 112 577 112 498 51 c 128,-1,8
 419 -10 419 -10 301 -10 c 2,9,-1
 273 -10 l 2,10,11
 167 -10 167 -10 105.5 41.5 c 128,-1,12
 44 93 44 93 44 181 c 0,13,14
 44 198 44 198 112 686 c 1,15,-1
 266 686 l 1,16,17
 200 215 200 215 200 205 c 0,18,19
 200 163 200 163 228.5 137.5 c 128,-1,20
 257 112 257 112 307.5 112 c 0,21,22
 358 112 358 112 394.5 142.5 c 128,-1,23
 431 173 431 173 438 221 c 2,24,-1
 503 686 l 1,25,-1
 657 686 l 1,5,-1
EndSplineSet
Position2: "'cpsp' Capital Spacing lookup 0 subtable" dx=5 dy=0 dh=10 dv=0
EndChar

StartChar: Ucircumflex
Encoding: 85 219 85
Width: 673
GlyphClass: 2
Flags: MW
HStem: -10 122<202 340.5 273 301> 666 20G<112 266 266 266 503 657 657 657> 750 145<197 459 356 575 356 470>
VStem: 44 156<177.5 189.5>
LayerCount: 2
Fore
SplineSet
356 895 m 1,0,-1
 459 895 l 1,1,2
 528 808 528 808 575 750 c 1,3,-1
 470 750 l 1,4,-1
 398 833 l 1,5,-1
 301 750 l 1,6,-1
 197 750 l 1,7,-1
 356 895 l 1,0,-1
657 686 m 1,8,-1
 592 218 l 2,9,10
 577 112 577 112 498 51 c 128,-1,11
 419 -10 419 -10 301 -10 c 2,12,-1
 273 -10 l 2,13,14
 167 -10 167 -10 105.5 41.5 c 128,-1,15
 44 93 44 93 44 181 c 0,16,17
 44 198 44 198 112 686 c 1,18,-1
 266 686 l 1,19,20
 200 215 200 215 200 205 c 0,21,22
 200 163 200 163 228.5 137.5 c 128,-1,23
 257 112 257 112 307.5 112 c 0,24,25
 358 112 358 112 394.5 142.5 c 128,-1,26
 431 173 431 173 438 221 c 2,27,-1
 503 686 l 1,28,-1
 657 686 l 1,8,-1
EndSplineSet
Position2: "'cpsp' Capital Spacing lookup 0 subtable" dx=5 dy=0 dh=10 dv=0
EndChar

StartChar: Udieresis
Encoding: 86 220 86
Width: 673
GlyphClass: 2
Flags: MW
HStem: -10 122<202 340.5 273 301> 666 20G<112 266 266 266 503 657 657 657> 750 122<243 347 226 364 243 430 447 551>
VStem: 44 156<177.5 189.5>
LayerCount: 2
Fore
SplineSet
364 872 m 1,0,-1
 347 750 l 1,1,-1
 226 750 l 1,2,-1
 243 872 l 1,3,-1
 364 872 l 1,0,-1
568 872 m 1,4,-1
 551 750 l 1,5,-1
 430 750 l 1,6,-1
 447 872 l 1,7,-1
 568 872 l 1,4,-1
657 686 m 1,8,-1
 592 218 l 2,9,10
 577 112 577 112 498 51 c 128,-1,11
 419 -10 419 -10 301 -10 c 2,12,-1
 273 -10 l 2,13,14
 167 -10 167 -10 105.5 41.5 c 128,-1,15
 44 93 44 93 44 181 c 0,16,17
 44 198 44 198 112 686 c 1,18,-1
 266 686 l 1,19,20
 200 215 200 215 200 205 c 0,21,22
 200 163 200 163 228.5 137.5 c 128,-1,23
 257 112 257 112 307.5 112 c 0,24,25
 358 112 358 112 394.5 142.5 c 128,-1,26
 431 173 431 173 438 221 c 2,27,-1
 503 686 l 1,28,-1
 657 686 l 1,8,-1
EndSplineSet
Position2: "'cpsp' Capital Spacing lookup 0 subtable" dx=5 dy=0 dh=10 dv=0
EndChar

StartChar: Ugrave
Encoding: 87 217 87
Width: 673
GlyphClass: 2
Flags: MW
HStem: -10 122<202 340.5 273 301> 666 20G<112 266 266 266 503 657 657 657> 750 145<335 365 237 437 335 335>
VStem: 44 156<177.5 189.5>
LayerCount: 2
Fore
SplineSet
235 892 m 1,0,-1
 237 895 l 1,1,-1
 365 895 l 1,2,-1
 437 750 l 1,3,-1
 335 750 l 1,4,-1
 235 892 l 1,0,-1
657 686 m 1,5,-1
 592 218 l 2,6,7
 577 112 577 112 498 51 c 128,-1,8
 419 -10 419 -10 301 -10 c 2,9,-1
 273 -10 l 2,10,11
 167 -10 167 -10 105.5 41.5 c 128,-1,12
 44 93 44 93 44 181 c 0,13,14
 44 198 44 198 112 686 c 1,15,-1
 266 686 l 1,16,17
 200 215 200 215 200 205 c 0,18,19
 200 163 200 163 228.5 137.5 c 128,-1,20
 257 112 257 112 307.5 112 c 0,21,22
 358 112 358 112 394.5 142.5 c 128,-1,23
 431 173 431 173 438 221 c 2,24,-1
 503 686 l 1,25,-1
 657 686 l 1,5,-1
EndSplineSet
Position2: "'cpsp' Capital Spacing lookup 0 subtable" dx=5 dy=0 dh=10 dv=0
EndChar

StartChar: Uhungarumlaut
Encoding: 88 368 88
Width: 673
GlyphClass: 2
Flags: MW
HStem: -10 122<202 340.5 273 301> 666 20G<112 266 266 266 503 657 657 657> 750 145<210 452 210 452 401 401 401 452 324 503>
VStem: 44 156<177.5 189.5>
LayerCount: 2
Fore
SplineSet
324 895 m 1,0,-1
 452 895 l 1,1,-1
 453 892 l 1,2,-1
 312 750 l 1,3,-1
 210 750 l 1,4,-1
 324 895 l 1,0,-1
515 895 m 1,5,-1
 643 895 l 1,6,-1
 644 892 l 1,7,-1
 503 750 l 1,8,-1
 401 750 l 1,9,-1
 515 895 l 1,5,-1
657 686 m 1,10,-1
 592 218 l 2,11,12
 577 112 577 112 498 51 c 128,-1,13
 419 -10 419 -10 301 -10 c 2,14,-1
 273 -10 l 2,15,16
 167 -10 167 -10 105.5 41.5 c 128,-1,17
 44 93 44 93 44 181 c 0,18,19
 44 198 44 198 112 686 c 1,20,-1
 266 686 l 1,21,22
 200 215 200 215 200 205 c 0,23,24
 200 163 200 163 228.5 137.5 c 128,-1,25
 257 112 257 112 307.5 112 c 0,26,27
 358 112 358 112 394.5 142.5 c 128,-1,28
 431 173 431 173 438 221 c 2,29,-1
 503 686 l 1,30,-1
 657 686 l 1,10,-1
EndSplineSet
EndChar

StartChar: Umacron
Encoding: 89 362 89
Width: 673
GlyphClass: 2
Flags: MW
HStem: -10 122<202 340.5 273 301> 666 20G<112 266 266 266 503 657 657 657> 837 74<271 578 260 589>
VStem: 44 156<177.5 189.5>
LayerCount: 2
Fore
SplineSet
271 911 m 1,0,-1
 589 911 l 1,1,-1
 578 837 l 1,2,-1
 260 837 l 1,3,-1
 271 911 l 1,0,-1
657 686 m 1,4,-1
 592 218 l 2,5,6
 577 112 577 112 498 51 c 128,-1,7
 419 -10 419 -10 301 -10 c 2,8,-1
 273 -10 l 2,9,10
 167 -10 167 -10 105.5 41.5 c 128,-1,11
 44 93 44 93 44 181 c 0,12,13
 44 198 44 198 112 686 c 1,14,-1
 266 686 l 1,15,16
 200 215 200 215 200 205 c 0,17,18
 200 163 200 163 228.5 137.5 c 128,-1,19
 257 112 257 112 307.5 112 c 0,20,21
 358 112 358 112 394.5 142.5 c 128,-1,22
 431 173 431 173 438 221 c 2,23,-1
 503 686 l 1,24,-1
 657 686 l 1,4,-1
EndSplineSet
EndChar

StartChar: Uogonek
Encoding: 90 370 90
Width: 673
GlyphClass: 2
Flags: MW
HStem: -143 50<351.5 354.5> -10 122<202 340.5 273 300> 666 20G<112 266 266 266 503 657 657 657>
VStem: 44 156<177.5 189.5> 251 71<-75 -66.5>
LayerCount: 2
Fore
SplineSet
657 686 m 1,0,-1
 592 218 l 2,1,2
 579 128 579 128 520.5 70.5 c 128,-1,3
 462 13 462 13 371 -4 c 1,4,5
 322 -31 322 -31 322 -64 c 0,6,7
 322 -93 322 -93 357 -93 c 0,8,9
 392 -93 392 -93 430 -79 c 1,10,-1
 438 -119 l 1,11,12
 392 -143 392 -143 338 -143 c 0,13,14
 251 -143 251 -143 251 -83 c 0,15,16
 251 -44 251 -44 300 -10 c 1,17,-1
 273 -10 l 2,18,19
 167 -10 167 -10 105.5 41.5 c 128,-1,20
 44 93 44 93 44 181 c 0,21,22
 44 198 44 198 112 686 c 1,23,-1
 266 686 l 1,24,25
 200 215 200 215 200 205 c 0,26,27
 200 163 200 163 228.5 137.5 c 128,-1,28
 257 112 257 112 307.5 112 c 0,29,30
 358 112 358 112 394.5 142.5 c 128,-1,31
 431 173 431 173 438 221 c 2,32,-1
 503 686 l 1,33,-1
 657 686 l 1,0,-1
EndSplineSet
EndChar

StartChar: Uring
Encoding: 91 366 91
Width: 673
GlyphClass: 2
Flags: MW
HStem: -10 122<202 340.5 273 301> 666 20G<112 266 266 266 503 657 657 657> 720 53<400.5 425.5 400.5 437> 868 53<407.5 433.5>
VStem: 44 156<177.5 189.5> 315 56<804 831 804 841.5> 464 55<808.5 836.5>
LayerCount: 2
Fore
SplineSet
493 895.5 m 128,-1,1
 519 870 519 870 519 827.5 c 128,-1,2
 519 785 519 785 485.5 752.5 c 128,-1,3
 452 720 452 720 409.5 720 c 128,-1,4
 367 720 367 720 341 745.5 c 128,-1,5
 315 771 315 771 315 813.5 c 128,-1,6
 315 856 315 856 349 888.5 c 128,-1,7
 383 921 383 921 425 921 c 128,-1,0
 467 921 467 921 493 895.5 c 128,-1,1
383 785.5 m 128,-1,9
 395 773 395 773 414 773 c 128,-1,10
 433 773 433 773 448.5 787.5 c 128,-1,11
 464 802 464 802 464 822.5 c 128,-1,12
 464 843 464 843 452 855.5 c 128,-1,13
 440 868 440 868 420 868 c 128,-1,14
 400 868 400 868 385.5 853 c 128,-1,15
 371 838 371 838 371 818 c 128,-1,8
 371 798 371 798 383 785.5 c 128,-1,9
657 686 m 1,16,-1
 592 218 l 2,17,18
 577 112 577 112 498 51 c 128,-1,19
 419 -10 419 -10 301 -10 c 2,20,-1
 273 -10 l 2,21,22
 167 -10 167 -10 105.5 41.5 c 128,-1,23
 44 93 44 93 44 181 c 0,24,25
 44 198 44 198 112 686 c 1,26,-1
 266 686 l 1,27,28
 200 215 200 215 200 205 c 0,29,30
 200 163 200 163 228.5 137.5 c 128,-1,31
 257 112 257 112 307.5 112 c 128,-1,32
 358 112 358 112 394.5 142.5 c 128,-1,33
 431 173 431 173 438 221 c 2,34,-1
 503 686 l 1,35,-1
 657 686 l 1,16,-1
EndSplineSet
EndChar

StartChar: V
Encoding: 92 86 92
Width: 643
GlyphClass: 2
Flags: MW
HStem: 0 21G<183 360 183 183> 666 20G<55 217 217 217 535 683 683 683>
VStem: 55 628<686 686>
LayerCount: 2
Fore
SplineSet
535 686 m 1,0,-1
 683 686 l 1,1,-1
 360 0 l 1,2,-1
 183 0 l 1,3,-1
 55 686 l 1,4,-1
 217 686 l 1,5,-1
 304 196 l 1,6,-1
 309 196 l 1,7,-1
 535 686 l 1,0,-1
EndSplineSet
Position2: "'cpsp' Capital Spacing lookup 0 subtable" dx=5 dy=0 dh=10 dv=0
EndChar

StartChar: W
Encoding: 93 87 93
Width: 972
GlyphClass: 2
Flags: MW
HStem: 0 21G<150 321 150 150 553 553 553 722> 666 20G<55 216 216 216 464 619 619 619 866 1012 1012 1012>
VStem: 55 957<686 686>
LayerCount: 2
Fore
SplineSet
682 237 m 1,0,-1
 866 686 l 1,1,-1
 1012 686 l 1,2,-1
 722 0 l 1,3,-1
 553 0 l 1,4,-1
 499 412 l 1,5,-1
 493 412 l 1,6,-1
 321 0 l 1,7,-1
 150 0 l 1,8,-1
 55 686 l 1,9,-1
 216 686 l 1,10,11
 240.25 492 240.25 492 274 237 c 1,12,-1
 279 237 l 1,13,14
 320.25 336 320.25 336 464 686 c 1,15,-1
 619 686 l 1,16,17
 643.25 492 643.25 492 677 237 c 1,18,-1
 682 237 l 1,0,-1
EndSplineSet
Position2: "'cpsp' Capital Spacing lookup 0 subtable" dx=5 dy=0 dh=10 dv=0
EndChar

StartChar: X
Encoding: 94 88 94
Width: 658
GlyphClass: 2
Flags: MW
HStem: 0 21G<-48 118 -48 -48 428 609 428 428> 666 20G<70 251 251 251 518 685 685 685>
VStem: -48 733<0 686>
LayerCount: 2
Fore
SplineSet
234 360 m 1,0,-1
 70 686 l 1,1,-1
 251 686 l 1,2,-1
 351 476 l 1,3,-1
 355 476 l 1,4,5
 477 626 477 626 518 686 c 1,6,-1
 685 686 l 1,7,8
 538 499 538 499 428 362 c 1,9,-1
 609 0 l 1,10,-1
 428 0 l 1,11,-1
 311 245 l 1,12,-1
 307 245 l 1,13,14
 144 38 144 38 118 0 c 1,15,-1
 -48 0 l 1,16,-1
 234 360 l 1,0,-1
EndSplineSet
Position2: "'cpsp' Capital Spacing lookup 0 subtable" dx=5 dy=0 dh=10 dv=0
EndChar

StartChar: Y
Encoding: 95 89 95
Width: 637
GlyphClass: 2
Flags: MW
HStem: 0 21G<193 347 193 193> 666 20G<55 229 229 229 520 678 678 678>
VStem: 55 623<686 686>
LayerCount: 2
Fore
SplineSet
347 0 m 1,0,-1
 193 0 l 1,1,-1
 230 263 l 1,2,-1
 55 686 l 1,3,-1
 229 686 l 1,4,-1
 333 414 l 1,5,-1
 338 414 l 1,6,-1
 520 686 l 1,7,-1
 678 686 l 1,8,-1
 384 263 l 1,9,-1
 347 0 l 1,0,-1
EndSplineSet
Position2: "'cpsp' Capital Spacing lookup 0 subtable" dx=5 dy=0 dh=10 dv=0
EndChar

StartChar: Yacute
Encoding: 96 221 96
Width: 637
GlyphClass: 2
Flags: MW
HStem: 0 21G<193 347 193 193> 666 20G<55 229 229 229 520 678 678 678> 750 145<332 574 332 574>
VStem: 55 623<686 686>
LayerCount: 2
Fore
SplineSet
445 895 m 1,0,-1
 574 895 l 1,1,-1
 574 891 l 1,2,-1
 433 750 l 1,3,-1
 332 750 l 1,4,-1
 445 895 l 1,0,-1
347 0 m 1,5,-1
 193 0 l 1,6,-1
 230 263 l 1,7,-1
 55 686 l 1,8,-1
 229 686 l 1,9,-1
 333 414 l 1,10,-1
 338 414 l 1,11,-1
 520 686 l 1,12,-1
 678 686 l 1,13,-1
 384 263 l 1,14,-1
 347 0 l 1,5,-1
EndSplineSet
Position2: "'cpsp' Capital Spacing lookup 0 subtable" dx=5 dy=0 dh=10 dv=0
EndChar

StartChar: Ydieresis
Encoding: 97 376 97
Width: 637
GlyphClass: 2
Flags: MW
HStem: 0 21G<193 347 193 193> 666 20G<55 229 229 229 520 678 678 678> 750 122<234 338 217 355 234 421 438 542>
VStem: 55 623<686 686>
LayerCount: 2
Fore
SplineSet
355 872 m 1,0,-1
 338 750 l 1,1,-1
 217 750 l 1,2,-1
 234 872 l 1,3,-1
 355 872 l 1,0,-1
559 872 m 1,4,-1
 542 750 l 1,5,-1
 421 750 l 1,6,-1
 438 872 l 1,7,-1
 559 872 l 1,4,-1
347 0 m 1,8,-1
 193 0 l 1,9,-1
 230 263 l 1,10,-1
 55 686 l 1,11,-1
 229 686 l 1,12,-1
 333 414 l 1,13,-1
 338 414 l 1,14,-1
 520 686 l 1,15,-1
 678 686 l 1,16,-1
 384 263 l 1,17,-1
 347 0 l 1,8,-1
EndSplineSet
Position2: "'cpsp' Capital Spacing lookup 0 subtable" dx=5 dy=0 dh=10 dv=0
EndChar

StartChar: Z
Encoding: 98 90 98
Width: 631
GlyphClass: 2
Flags: MW
HStem: 0 123<235 540> 563 123<114 388 96 629>
VStem: -6 635
LayerCount: 2
Fore
SplineSet
0 49 m 1,0,-1
 388 563 l 1,1,-1
 96 563 l 1,2,-1
 114 686 l 1,3,-1
 629 686 l 1,4,-1
 622 636 l 1,5,-1
 235 123 l 1,6,-1
 558 123 l 1,7,-1
 540 0 l 1,8,-1
 -6 0 l 1,9,-1
 0 49 l 1,0,-1
EndSplineSet
Position2: "'cpsp' Capital Spacing lookup 0 subtable" dx=5 dy=0 dh=10 dv=0
EndChar

StartChar: Zacute
Encoding: 99 377 99
Width: 631
GlyphClass: 2
Flags: MW
HStem: 0 123<235 540> 563 123<114 388 96 629> 750 145<295 537 295 537>
VStem: -6 635
LayerCount: 2
Fore
SplineSet
408 895 m 1,0,-1
 537 895 l 1,1,-1
 537 891 l 1,2,-1
 396 750 l 1,3,-1
 295 750 l 1,4,-1
 408 895 l 1,0,-1
0 49 m 1,5,-1
 388 563 l 1,6,-1
 96 563 l 1,7,-1
 114 686 l 1,8,-1
 629 686 l 1,9,-1
 622 636 l 1,10,-1
 235 123 l 1,11,-1
 558 123 l 1,12,-1
 540 0 l 1,13,-1
 -6 0 l 1,14,-1
 0 49 l 1,5,-1
EndSplineSet
EndChar

StartChar: Zcaron
Encoding: 100 381 100
Width: 631
GlyphClass: 2
Flags: MW
HStem: 0 123<235 540> 563 123<114 388 96 629> 750 145<199 419 199 316>
VStem: -6 635
LayerCount: 2
Fore
SplineSet
577 895 m 1,0,-1
 419 750 l 1,1,-1
 316 750 l 1,2,-1
 199 895 l 1,3,-1
 304 895 l 1,4,-1
 377 812 l 1,5,-1
 473 895 l 1,6,-1
 577 895 l 1,0,-1
0 49 m 1,7,-1
 388 563 l 1,8,-1
 96 563 l 1,9,-1
 114 686 l 1,10,-1
 629 686 l 1,11,-1
 622 636 l 1,12,-1
 235 123 l 1,13,-1
 558 123 l 1,14,-1
 540 0 l 1,15,-1
 -6 0 l 1,16,-1
 0 49 l 1,7,-1
EndSplineSet
Position2: "'cpsp' Capital Spacing lookup 0 subtable" dx=5 dy=0 dh=10 dv=0
EndChar

StartChar: Zdotaccent
Encoding: 101 379 101
Width: 631
GlyphClass: 2
Flags: MW
HStem: 0 123<235 540> 563 123<114 388 96 629> 779 132<386.5 409.5>
VStem: 333 133<833.5 854.5>
LayerCount: 2
Fore
SplineSet
449.5 894 m 128,-1,1
 466 877 466 877 466 850 c 128,-1,2
 466 823 466 823 443 801 c 128,-1,3
 420 779 420 779 392.5 779 c 128,-1,4
 365 779 365 779 349 795 c 128,-1,5
 333 811 333 811 333 838 c 128,-1,6
 333 865 333 865 354.5 888 c 128,-1,7
 376 911 376 911 404.5 911 c 128,-1,0
 433 911 433 911 449.5 894 c 128,-1,1
0 49 m 1,8,-1
 388 563 l 1,9,-1
 96 563 l 1,10,-1
 114 686 l 1,11,-1
 629 686 l 1,12,-1
 622 636 l 1,13,-1
 235 123 l 1,14,-1
 558 123 l 1,15,-1
 540 0 l 1,16,-1
 -6 0 l 1,17,-1
 0 49 l 1,8,-1
EndSplineSet
EndChar

StartChar: a
Encoding: 102 97 102
Width: 598
GlyphClass: 2
Flags: MW
HStem: -10 100<232 234.5> 415 106<274.5 302.5 197 325.5> 491 20G<450 557 557 557>
VStem: 31 144<152 187.5 152 281>
LayerCount: 2
Fore
SplineSet
450 511 m 1,0,-1
 557 511 l 1,1,2
 503 137 503 137 503 113.5 c 0,3,4
 503 90 503 90 528 90 c 0,5,6
 550 90 550 90 570 104 c 1,7,-1
 556 11 l 1,8,9
 516 -10 516 -10 466 -10 c 0,10,11
 368 -10 368 -10 360 66 c 1,12,13
 294 -10 294 -10 207 -10 c 0,14,15
 120 -10 120 -10 75.5 43 c 128,-1,16
 31 96 31 96 31 191 c 0,17,18
 31 331 31 331 97 426 c 128,-1,19
 163 521 163 521 272 521 c 0,20,21
 318 521 318 521 354.5 501.5 c 128,-1,22
 391 482 391 482 411 448 c 1,23,-1
 417 448 l 1,24,-1
 450 511 l 1,0,-1
369 211 m 0,25,26
 383 311 383 311 383 322 c 0,27,28
 383 367 383 367 361 391 c 128,-1,29
 339 415 339 415 299 415 c 0,30,31
 259 415 259 415 228.5 384 c 128,-1,32
 198 353 198 353 189 294 c 0,33,34
 175 194 175 194 175 183 c 0,35,36
 175 138 175 138 197 114 c 128,-1,37
 219 90 219 90 258.5 90 c 0,38,39
 298 90 298 90 329 121 c 128,-1,40
 360 152 360 152 369 211 c 0,25,26
EndSplineSet
Substitution2: "Single Substitution lookup 5 subtable" ordfeminine
Substitution2: "'aalt' Access All Alternates lookup 0 subtable" ordfeminine
EndChar

StartChar: aacute
Encoding: 103 225 103
Width: 598
GlyphClass: 2
Flags: MW
HStem: -10 100<232 234.5> 415 106<274.5 302.5 197 325.5> 491 20G<450 557 557 557> 575 145<263 505 263 505>
VStem: 31 144<152 187.5 152 281>
LayerCount: 2
Fore
SplineSet
376 720 m 1,0,-1
 505 720 l 1,1,-1
 505 716 l 1,2,-1
 364 575 l 1,3,-1
 263 575 l 1,4,-1
 376 720 l 1,0,-1
450 511 m 1,5,-1
 557 511 l 1,6,7
 503 137 503 137 503 113.5 c 0,8,9
 503 90 503 90 528 90 c 0,10,11
 550 90 550 90 570 104 c 1,12,-1
 556 11 l 1,13,14
 516 -10 516 -10 466 -10 c 0,15,16
 368 -10 368 -10 360 66 c 1,17,18
 294 -10 294 -10 207 -10 c 0,19,20
 120 -10 120 -10 75.5 43 c 128,-1,21
 31 96 31 96 31 191 c 0,22,23
 31 331 31 331 97 426 c 128,-1,24
 163 521 163 521 272 521 c 0,25,26
 318 521 318 521 354.5 501.5 c 128,-1,27
 391 482 391 482 411 448 c 1,28,-1
 417 448 l 1,29,-1
 450 511 l 1,5,-1
369 211 m 0,30,31
 383 311 383 311 383 322 c 0,32,33
 383 367 383 367 361 391 c 128,-1,34
 339 415 339 415 299 415 c 0,35,36
 259 415 259 415 228.5 384 c 128,-1,37
 198 353 198 353 189 294 c 0,38,39
 175 194 175 194 175 183 c 0,40,41
 175 138 175 138 197 114 c 128,-1,42
 219 90 219 90 258.5 90 c 0,43,44
 298 90 298 90 329 121 c 128,-1,45
 360 152 360 152 369 211 c 0,30,31
EndSplineSet
EndChar

StartChar: abreve
Encoding: 104 259 104
Width: 598
GlyphClass: 2
Flags: MW
HStem: -10 100<232 234.5> 415 106<274.5 302.5 197 325.5> 491 20G<450 557 557 557> 613 74<322 379 322 394.5>
VStem: 31 144<152 187.5 152 281>
LayerCount: 2
Fore
SplineSet
481.5 652.5 m 128,-1,1
 418 613 418 613 343 613 c 128,-1,2
 268 613 268 613 216.5 649.5 c 128,-1,3
 165 686 165 686 165 729 c 0,4,5
 165 734 165 734 166 737 c 1,6,-1
 247 737 l 1,7,8
 249 718 249 718 279 702.5 c 128,-1,9
 309 687 309 687 350 687 c 128,-1,10
 391 687 391 687 427 703 c 128,-1,11
 463 719 463 719 469 737 c 1,12,-1
 551 737 l 1,13,0
 545 692 545 692 481.5 652.5 c 128,-1,1
450 511 m 1,14,-1
 557 511 l 1,15,16
 503 137 503 137 503 113.5 c 128,-1,17
 503 90 503 90 528 90 c 0,18,19
 550 90 550 90 570 104 c 1,20,-1
 556 11 l 1,21,22
 516 -10 516 -10 466 -10 c 0,23,24
 368 -10 368 -10 360 66 c 1,25,26
 294 -10 294 -10 207 -10 c 128,-1,27
 120 -10 120 -10 75.5 43 c 128,-1,28
 31 96 31 96 31 191 c 0,29,30
 31 331 31 331 97 426 c 128,-1,31
 163 521 163 521 272 521 c 0,32,33
 318 521 318 521 354.5 501.5 c 128,-1,34
 391 482 391 482 411 448 c 1,35,-1
 417 448 l 1,36,-1
 450 511 l 1,14,-1
369 211 m 0,37,38
 383 311 383 311 383 322 c 0,39,40
 383 367 383 367 361 391 c 128,-1,41
 339 415 339 415 299 415 c 128,-1,42
 259 415 259 415 228.5 384 c 128,-1,43
 198 353 198 353 189 294 c 0,44,45
 175 194 175 194 175 183 c 0,46,47
 175 138 175 138 197 114 c 128,-1,48
 219 90 219 90 258.5 90 c 128,-1,49
 298 90 298 90 329 121 c 128,-1,50
 360 152 360 152 369 211 c 0,37,38
EndSplineSet
EndChar

StartChar: acircumflex
Encoding: 105 226 105
Width: 598
GlyphClass: 2
Flags: MW
HStem: -10 100<232 234.5> 415 106<274.5 302.5 197 325.5> 491 20G<450 557 557 557> 575 145<143 405 302 521 302 416>
VStem: 31 144<152 187.5 152 281>
LayerCount: 2
Fore
SplineSet
302 720 m 1,0,-1
 405 720 l 1,1,2
 474 633 474 633 521 575 c 1,3,-1
 416 575 l 1,4,-1
 344 658 l 1,5,-1
 247 575 l 1,6,-1
 143 575 l 1,7,-1
 302 720 l 1,0,-1
450 511 m 1,8,-1
 557 511 l 1,9,10
 503 137 503 137 503 113.5 c 0,11,12
 503 90 503 90 528 90 c 0,13,14
 550 90 550 90 570 104 c 1,15,-1
 556 11 l 1,16,17
 516 -10 516 -10 466 -10 c 0,18,19
 368 -10 368 -10 360 66 c 1,20,21
 294 -10 294 -10 207 -10 c 0,22,23
 120 -10 120 -10 75.5 43 c 128,-1,24
 31 96 31 96 31 191 c 0,25,26
 31 331 31 331 97 426 c 128,-1,27
 163 521 163 521 272 521 c 0,28,29
 318 521 318 521 354.5 501.5 c 128,-1,30
 391 482 391 482 411 448 c 1,31,-1
 417 448 l 1,32,-1
 450 511 l 1,8,-1
369 211 m 0,33,34
 383 311 383 311 383 322 c 0,35,36
 383 367 383 367 361 391 c 128,-1,37
 339 415 339 415 299 415 c 0,38,39
 259 415 259 415 228.5 384 c 128,-1,40
 198 353 198 353 189 294 c 0,41,42
 175 194 175 194 175 183 c 0,43,44
 175 138 175 138 197 114 c 128,-1,45
 219 90 219 90 258.5 90 c 0,46,47
 298 90 298 90 329 121 c 128,-1,48
 360 152 360 152 369 211 c 0,33,34
EndSplineSet
EndChar

StartChar: adieresis
Encoding: 106 228 106
Width: 598
GlyphClass: 2
Flags: MW
HStem: -10 100<232 234.5> 415 106<274.5 302.5 197 325.5> 491 20G<450 557 557 557> 598 122<178 282 161 299 178 365 382 486>
VStem: 31 144<152 187.5 152 281>
LayerCount: 2
Fore
SplineSet
299 720 m 1,0,-1
 282 598 l 1,1,-1
 161 598 l 1,2,-1
 178 720 l 1,3,-1
 299 720 l 1,0,-1
503 720 m 1,4,-1
 486 598 l 1,5,-1
 365 598 l 1,6,-1
 382 720 l 1,7,-1
 503 720 l 1,4,-1
450 511 m 1,8,-1
 557 511 l 1,9,10
 503 137 503 137 503 113.5 c 0,11,12
 503 90 503 90 528 90 c 0,13,14
 550 90 550 90 570 104 c 1,15,-1
 556 11 l 1,16,17
 516 -10 516 -10 466 -10 c 0,18,19
 368 -10 368 -10 360 66 c 1,20,21
 294 -10 294 -10 207 -10 c 0,22,23
 120 -10 120 -10 75.5 43 c 128,-1,24
 31 96 31 96 31 191 c 0,25,26
 31 331 31 331 97 426 c 128,-1,27
 163 521 163 521 272 521 c 0,28,29
 318 521 318 521 354.5 501.5 c 128,-1,30
 391 482 391 482 411 448 c 1,31,-1
 417 448 l 1,32,-1
 450 511 l 1,8,-1
369 211 m 0,33,34
 383 311 383 311 383 322 c 0,35,36
 383 367 383 367 361 391 c 128,-1,37
 339 415 339 415 299 415 c 0,38,39
 259 415 259 415 228.5 384 c 128,-1,40
 198 353 198 353 189 294 c 0,41,42
 175 194 175 194 175 183 c 0,43,44
 175 138 175 138 197 114 c 128,-1,45
 219 90 219 90 258.5 90 c 0,46,47
 298 90 298 90 329 121 c 128,-1,48
 360 152 360 152 369 211 c 0,33,34
EndSplineSet
EndChar

StartChar: agrave
Encoding: 107 224 107
Width: 598
GlyphClass: 2
Flags: MW
HStem: -10 100<232 234.5> 415 106<274.5 302.5 197 325.5> 491 20G<450 557 557 557> 575 145<270 300 172 372 270 270>
VStem: 31 144<152 187.5 152 281>
LayerCount: 2
Fore
SplineSet
170 717 m 1,0,-1
 172 720 l 1,1,-1
 300 720 l 1,2,-1
 372 575 l 1,3,-1
 270 575 l 1,4,-1
 170 717 l 1,0,-1
450 511 m 1,5,-1
 557 511 l 1,6,7
 503 137 503 137 503 113.5 c 0,8,9
 503 90 503 90 528 90 c 0,10,11
 550 90 550 90 570 104 c 1,12,-1
 556 11 l 1,13,14
 516 -10 516 -10 466 -10 c 0,15,16
 368 -10 368 -10 360 66 c 1,17,18
 294 -10 294 -10 207 -10 c 0,19,20
 120 -10 120 -10 75.5 43 c 128,-1,21
 31 96 31 96 31 191 c 0,22,23
 31 331 31 331 97 426 c 128,-1,24
 163 521 163 521 272 521 c 0,25,26
 318 521 318 521 354.5 501.5 c 128,-1,27
 391 482 391 482 411 448 c 1,28,-1
 417 448 l 1,29,-1
 450 511 l 1,5,-1
369 211 m 0,30,31
 383 311 383 311 383 322 c 0,32,33
 383 367 383 367 361 391 c 128,-1,34
 339 415 339 415 299 415 c 0,35,36
 259 415 259 415 228.5 384 c 128,-1,37
 198 353 198 353 189 294 c 0,38,39
 175 194 175 194 175 183 c 0,40,41
 175 138 175 138 197 114 c 128,-1,42
 219 90 219 90 258.5 90 c 0,43,44
 298 90 298 90 329 121 c 128,-1,45
 360 152 360 152 369 211 c 0,30,31
EndSplineSet
EndChar

StartChar: amacron
Encoding: 108 257 108
Width: 598
GlyphClass: 2
Flags: MW
HStem: -10 100<232 234.5> 415 106<274.5 302.5 197 325.5> 491 20G<450 557 557 557> 662 74<208 515 197 526>
VStem: 31 144<152 187.5 152 281>
LayerCount: 2
Fore
SplineSet
208 736 m 1,0,-1
 526 736 l 1,1,-1
 515 662 l 1,2,-1
 197 662 l 1,3,-1
 208 736 l 1,0,-1
450 511 m 1,4,-1
 557 511 l 1,5,6
 503 137 503 137 503 113.5 c 0,7,8
 503 90 503 90 528 90 c 0,9,10
 550 90 550 90 570 104 c 1,11,-1
 556 11 l 1,12,13
 516 -10 516 -10 466 -10 c 0,14,15
 368 -10 368 -10 360 66 c 1,16,17
 294 -10 294 -10 207 -10 c 0,18,19
 120 -10 120 -10 75.5 43 c 128,-1,20
 31 96 31 96 31 191 c 0,21,22
 31 331 31 331 97 426 c 128,-1,23
 163 521 163 521 272 521 c 0,24,25
 318 521 318 521 354.5 501.5 c 128,-1,26
 391 482 391 482 411 448 c 1,27,-1
 417 448 l 1,28,-1
 450 511 l 1,4,-1
369 211 m 0,29,30
 383 311 383 311 383 322 c 0,31,32
 383 367 383 367 361 391 c 128,-1,33
 339 415 339 415 299 415 c 0,34,35
 259 415 259 415 228.5 384 c 128,-1,36
 198 353 198 353 189 294 c 0,37,38
 175 194 175 194 175 183 c 0,39,40
 175 138 175 138 197 114 c 128,-1,41
 219 90 219 90 258.5 90 c 0,42,43
 298 90 298 90 329 121 c 128,-1,44
 360 152 360 152 369 211 c 0,29,30
EndSplineSet
EndChar

StartChar: aogonek
Encoding: 109 261 109
Width: 598
GlyphClass: 2
Flags: MW
HStem: -143 50<473.5 476.5> -10 100<232 234.5> -6 21G 415 106<274.5 302.5 197 325.5> 491 20G<450 557 557 557>
VStem: 31 144<152 187.5 152 281> 373 71<-75 -65.5>
LayerCount: 2
Fore
SplineSet
444 -64 m 128,-1,1
 444 -93 444 -93 479 -93 c 128,-1,2
 514 -93 514 -93 552 -79 c 1,3,-1
 560 -119 l 1,4,5
 514 -143 514 -143 460 -143 c 0,6,7
 373 -143 373 -143 373 -83 c 0,8,9
 373 -42 373 -42 428 -6 c 1,10,11
 366 5 366 5 360 66 c 1,12,13
 294 -10 294 -10 207 -10 c 128,-1,14
 120 -10 120 -10 75.5 43 c 128,-1,15
 31 96 31 96 31 191 c 0,16,17
 31 331 31 331 97 426 c 128,-1,18
 163 521 163 521 272 521 c 0,19,20
 318 521 318 521 354.5 501.5 c 128,-1,21
 391 482 391 482 411 448 c 1,22,-1
 417 448 l 1,23,-1
 450 511 l 1,24,-1
 557 511 l 1,25,26
 503 137 503 137 503 113.5 c 128,-1,27
 503 90 503 90 528 90 c 0,28,29
 550 90 550 90 570 104 c 1,30,-1
 556 11 l 1,31,32
 527 -4 527 -4 484 -9 c 1,33,0
 444 -35 444 -35 444 -64 c 128,-1,1
369 211 m 0,34,35
 383 311 383 311 383 322 c 0,36,37
 383 367 383 367 361 391 c 128,-1,38
 339 415 339 415 299 415 c 128,-1,39
 259 415 259 415 228.5 384 c 128,-1,40
 198 353 198 353 189 294 c 0,41,42
 175 194 175 194 175 183 c 0,43,44
 175 138 175 138 197 114 c 128,-1,45
 219 90 219 90 258.5 90 c 128,-1,46
 298 90 298 90 329 121 c 128,-1,47
 360 152 360 152 369 211 c 0,34,35
EndSplineSet
EndChar

StartChar: aring
Encoding: 110 229 110
Width: 598
GlyphClass: 2
Flags: MW
HStem: -10 100<232 234.5> 415 106<274.5 302.5 197 325.5> 491 20G<450 557 557 557> 557 53<323.5 348.5 323.5 360> 705 53<330.5 356.5>
VStem: 31 144<152 187.5 152 281> 238 56<641 668 641 678.5> 387 55<645.5 673.5>
LayerCount: 2
Fore
SplineSet
416 732.5 m 128,-1,1
 442 707 442 707 442 664.5 c 128,-1,2
 442 622 442 622 408.5 589.5 c 128,-1,3
 375 557 375 557 332.5 557 c 128,-1,4
 290 557 290 557 264 582.5 c 128,-1,5
 238 608 238 608 238 650.5 c 128,-1,6
 238 693 238 693 272 725.5 c 128,-1,7
 306 758 306 758 348 758 c 128,-1,0
 390 758 390 758 416 732.5 c 128,-1,1
306 622.5 m 128,-1,9
 318 610 318 610 337 610 c 128,-1,10
 356 610 356 610 371.5 624.5 c 128,-1,11
 387 639 387 639 387 659.5 c 128,-1,12
 387 680 387 680 375 692.5 c 128,-1,13
 363 705 363 705 343 705 c 128,-1,14
 323 705 323 705 308.5 690 c 128,-1,15
 294 675 294 675 294 655 c 128,-1,8
 294 635 294 635 306 622.5 c 128,-1,9
450 511 m 1,16,-1
 557 511 l 1,17,18
 503 137 503 137 503 113.5 c 128,-1,19
 503 90 503 90 528 90 c 0,20,21
 550 90 550 90 570 104 c 1,22,-1
 556 11 l 1,23,24
 516 -10 516 -10 466 -10 c 0,25,26
 368 -10 368 -10 360 66 c 1,27,28
 294 -10 294 -10 207 -10 c 128,-1,29
 120 -10 120 -10 75.5 43 c 128,-1,30
 31 96 31 96 31 191 c 0,31,32
 31 331 31 331 97 426 c 128,-1,33
 163 521 163 521 272 521 c 0,34,35
 318 521 318 521 354.5 501.5 c 128,-1,36
 391 482 391 482 411 448 c 1,37,-1
 417 448 l 1,38,-1
 450 511 l 1,16,-1
369 211 m 0,39,40
 383 311 383 311 383 322 c 0,41,42
 383 367 383 367 361 391 c 128,-1,43
 339 415 339 415 299 415 c 128,-1,44
 259 415 259 415 228.5 384 c 128,-1,45
 198 353 198 353 189 294 c 0,46,47
 175 194 175 194 175 183 c 0,48,49
 175 138 175 138 197 114 c 128,-1,50
 219 90 219 90 258.5 90 c 128,-1,51
 298 90 298 90 329 121 c 128,-1,52
 360 152 360 152 369 211 c 0,39,40
EndSplineSet
EndChar

StartChar: atilde
Encoding: 111 227 111
Width: 598
GlyphClass: 2
Flags: MW
HStem: -10 100<232 234.5> 415 106<274.5 302.5 197 325.5> 491 20G<450 557 557 557> 596 86<398 439 398 444> 633 87<225 266>
VStem: 31 144<152 187.5 152 281>
LayerCount: 2
Fore
SplineSet
483 720 m 1,0,-1
 548 720 l 1,1,2
 542 672 542 672 501.5 634 c 128,-1,3
 461 596 461 596 405 596 c 0,4,5
 372 596 372 596 318.5 614.5 c 128,-1,6
 265 633 265 633 239 633 c 0,7,8
 198 633 198 633 182 596 c 1,9,-1
 117 596 l 1,10,11
 123 643 123 643 163.5 681.5 c 128,-1,12
 204 720 204 720 260 720 c 0,13,14
 293 720 293 720 346 701 c 128,-1,15
 399 682 399 682 425 682 c 0,16,17
 466 682 466 682 483 720 c 1,0,-1
450 511 m 1,18,-1
 557 511 l 1,19,20
 503 137 503 137 503 113.5 c 0,21,22
 503 90 503 90 528 90 c 0,23,24
 550 90 550 90 570 104 c 1,25,-1
 556 11 l 1,26,27
 516 -10 516 -10 466 -10 c 0,28,29
 368 -10 368 -10 360 66 c 1,30,31
 294 -10 294 -10 207 -10 c 0,32,33
 120 -10 120 -10 75.5 43 c 128,-1,34
 31 96 31 96 31 191 c 0,35,36
 31 331 31 331 97 426 c 128,-1,37
 163 521 163 521 272 521 c 0,38,39
 318 521 318 521 354.5 501.5 c 128,-1,40
 391 482 391 482 411 448 c 1,41,-1
 417 448 l 1,42,-1
 450 511 l 1,18,-1
369 211 m 0,43,44
 383 311 383 311 383 322 c 0,45,46
 383 367 383 367 361 391 c 128,-1,47
 339 415 339 415 299 415 c 0,48,49
 259 415 259 415 228.5 384 c 128,-1,50
 198 353 198 353 189 294 c 0,51,52
 175 194 175 194 175 183 c 0,53,54
 175 138 175 138 197 114 c 128,-1,55
 219 90 219 90 258.5 90 c 0,56,57
 298 90 298 90 329 121 c 128,-1,58
 360 152 360 152 369 211 c 0,43,44
EndSplineSet
EndChar

StartChar: ae
Encoding: 112 230 112
Width: 918
GlyphClass: 2
Flags: MW
HStem: -10 98<145.5 276.5 579 593 593 603> 231 80<536 736> 425 96<318 339 339 342.5>
VStem: 21 154<118 171 118 195.5> 71 142<362 362 362 401.5> 739 142<338 366.5>
LayerCount: 2
Fore
SplineSet
869 231 m 1,0,-1
 524 231 l 1,1,2
 521 209 521 209 521 188 c 0,3,4
 521 88 521 88 613 88 c 0,5,6
 667 88 667 88 694 120 c 128,-1,7
 721 152 721 152 726 191 c 1,8,-1
 862 191 l 1,9,10
 850 102 850 102 779 46 c 128,-1,11
 708 -10 708 -10 603 -10 c 2,12,-1
 593 -10 l 2,13,14
 462 -10 462 -10 405 79 c 1,15,16
 366 37 366 37 306 13.5 c 128,-1,17
 246 -10 246 -10 183 -10 c 0,18,19
 21 -10 21 -10 21 109 c 0,20,21
 21 206.6 21 206.6 87 255 c 0,22,23
 163.363636364 311 163.363636364 311 386 311 c 1,24,25
 393 353 393 353 393 362 c 0,26,27
 393 425 393 425 311 425 c 0,28,29
 265 425 265 425 240.5 404 c 128,-1,30
 216 383 216 383 213 362 c 2,31,-1
 212 354 l 1,32,-1
 71 354 l 1,33,34
 71 426 71 426 141 473.5 c 128,-1,35
 211 521 211 521 318 521 c 2,36,-1
 339 521 l 2,37,38
 450 521 450 521 499 472 c 1,39,40
 568 521 568 521 663 521 c 2,41,-1
 679 521 l 2,42,43
 773 521 773 521 827 471 c 128,-1,44
 881 421 881 421 881 337 c 0,45,46
 881 318 881 318 878 298 c 2,47,-1
 869 231 l 1,0,-1
715.5 401 m 128,-1,49
 692 423 692 423 650.5 423 c 128,-1,50
 609 423 609 423 578.5 393 c 128,-1,51
 548 363 548 363 536 311 c 1,52,-1
 736 311 l 1,53,54
 739 330 739 330 739 341 c 0,55,48
 739 379 739 379 715.5 401 c 128,-1,49
370 197 m 2,56,-1
 375 229 l 1,57,58
 273 229 273 229 224 208 c 128,-1,59
 175 187 175 187 175 137.5 c 128,-1,60
 175 88 175 88 249 88 c 0,61,62
 292 88 292 88 327 118 c 128,-1,63
 362 148 362 148 370 197 c 2,56,-1
EndSplineSet
EndChar

StartChar: b
Encoding: 113 98 113
Width: 595
GlyphClass: 2
Flags: MW
HStem: -10 100<251 297 246 378> 0 21G<16 69 16 16> 415 106<288.5 425.5>
VStem: 397 146<317.5 353>
LayerCount: 2
Fore
SplineSet
263 720 m 1,0,-1
 225 452 l 1,1,2
 288 521 288 521 378 521 c 0,3,4
 452 521 452 521 497.5 470 c 128,-1,5
 543 419 543 419 543 324 c 0,6,7
 543 198.338983051 543 198.338983051 483.5 98.5 c 0,8,9
 454 49 454 49 403.5 19.5 c 128,-1,10
 353 -10 353 -10 288 -10 c 0,11,12
 177 -10 177 -10 131 78 c 1,13,-1
 69 0 l 1,14,-1
 16 0 l 1,15,-1
 117 720 l 1,16,-1
 263 720 l 1,0,-1
383 211 m 0,17,18
 397 311 397 311 397 322 c 0,19,20
 397 367 397 367 375 391 c 128,-1,21
 353 415 353 415 313 415 c 128,-1,22
 273 415 273 415 242.5 384 c 128,-1,23
 212 353 212 353 203 294 c 0,24,25
 189 194 189 194 189 183 c 0,26,27
 189 138 189 138 211 114 c 128,-1,28
 233 90 233 90 272.5 90 c 128,-1,29
 312 90 312 90 343 121 c 128,-1,30
 374 152 374 152 383 211 c 0,17,18
EndSplineSet
EndChar

StartChar: c
Encoding: 114 99 114
Width: 567
GlyphClass: 2
Flags: MW
HStem: -10 100<236.5 249 249 265> 307 214<386 393 324 531 386 386> 421 100<324 337.5>
VStem: 36 146<156.5 187 156.5 273.5> 388 145<335.5 360>
AnchorPoint: "Bottom" 248 0 basechar 0
LayerCount: 2
Fore
SplineSet
388 334 m 0,0,1
 388 421 388 421 311 421 c 0,2,3
 266 421 266 421 234.5 385 c 128,-1,4
 203 349 203 349 196 296 c 0,5,6
 182 192 182 192 182 183 c 0,7,8
 182 142 182 142 203 116 c 128,-1,9
 224 90 224 90 266.5 90 c 128,-1,10
 309 90 309 90 339.5 118.5 c 128,-1,11
 370 147 370 147 378 203 c 1,12,-1
 516 203 l 1,13,14
 501 98 501 98 430 44 c 128,-1,15
 359 -10 359 -10 265 -10 c 2,16,-1
 249 -10 l 2,17,18
 149 -10 149 -10 92.5 43 c 128,-1,19
 36 96 36 96 36 192 c 0,20,21
 36 322.5 36 322.5 104 417.5 c 0,22,23
 138 465 138 465 194.5 493 c 128,-1,24
 251 521 251 521 324 521 c 2,25,-1
 340 521 l 2,26,27
 423 521 423 521 478 473 c 128,-1,28
 533 425 533 425 533 341 c 0,29,30
 533 319 533 319 531 307 c 1,31,-1
 386 307 l 1,32,33
 388 325 388 325 388 334 c 0,0,1
EndSplineSet
EndChar

StartChar: cacute
Encoding: 115 263 115
Width: 567
GlyphClass: 2
Flags: MW
HStem: -10 100<236.5 249 249 265> 307 214<386 393 324 531 386 386> 421 100<324 337.5> 575 145<238 480 238 480>
VStem: 36 146<156.5 187 156.5 273.5> 388 145<335.5 360>
AnchorPoint: "Bottom" 248 0 basechar 0
LayerCount: 2
Fore
SplineSet
351 720 m 1,0,-1
 480 720 l 1,1,-1
 480 716 l 1,2,-1
 339 575 l 1,3,-1
 238 575 l 1,4,-1
 351 720 l 1,0,-1
388 334 m 0,5,6
 388 421 388 421 311 421 c 0,7,8
 266 421 266 421 234.5 385 c 128,-1,9
 203 349 203 349 196 296 c 0,10,11
 182 192 182 192 182 183 c 0,12,13
 182 142 182 142 203 116 c 128,-1,14
 224 90 224 90 266.5 90 c 128,-1,15
 309 90 309 90 339.5 118.5 c 128,-1,16
 370 147 370 147 378 203 c 1,17,-1
 516 203 l 1,18,19
 501 98 501 98 430 44 c 128,-1,20
 359 -10 359 -10 265 -10 c 2,21,-1
 249 -10 l 2,22,23
 149 -10 149 -10 92.5 43 c 128,-1,24
 36 96 36 96 36 192 c 0,25,26
 36 322.5 36 322.5 104 417.5 c 0,27,28
 138 465 138 465 194.5 493 c 128,-1,29
 251 521 251 521 324 521 c 2,30,-1
 340 521 l 2,31,32
 423 521 423 521 478 473 c 128,-1,33
 533 425 533 425 533 341 c 0,34,35
 533 319 533 319 531 307 c 1,36,-1
 386 307 l 1,37,38
 388 325 388 325 388 334 c 0,5,6
EndSplineSet
EndChar

StartChar: ccaron
Encoding: 116 269 116
Width: 567
GlyphClass: 2
Flags: MW
HStem: -10 100<236.5 249 249 265> 307 214<386 393 324 531 386 386> 421 100<324 337.5> 575 145<150 370 150 267>
VStem: 36 146<156.5 187 156.5 273.5> 388 145<335.5 360>
AnchorPoint: "Bottom" 248 0 basechar 0
LayerCount: 2
Fore
SplineSet
528 720 m 1,0,-1
 370 575 l 1,1,-1
 267 575 l 1,2,-1
 150 720 l 1,3,-1
 255 720 l 1,4,-1
 328 637 l 1,5,-1
 424 720 l 1,6,-1
 528 720 l 1,0,-1
388 334 m 0,7,8
 388 421 388 421 311 421 c 0,9,10
 266 421 266 421 234.5 385 c 128,-1,11
 203 349 203 349 196 296 c 0,12,13
 182 192 182 192 182 183 c 0,14,15
 182 142 182 142 203 116 c 128,-1,16
 224 90 224 90 266.5 90 c 128,-1,17
 309 90 309 90 339.5 118.5 c 128,-1,18
 370 147 370 147 378 203 c 1,19,-1
 516 203 l 1,20,21
 501 98 501 98 430 44 c 128,-1,22
 359 -10 359 -10 265 -10 c 2,23,-1
 249 -10 l 2,24,25
 149 -10 149 -10 92.5 43 c 128,-1,26
 36 96 36 96 36 192 c 0,27,28
 36 322.5 36 322.5 104 417.5 c 0,29,30
 138 465 138 465 194.5 493 c 128,-1,31
 251 521 251 521 324 521 c 2,32,-1
 340 521 l 2,33,34
 423 521 423 521 478 473 c 128,-1,35
 533 425 533 425 533 341 c 0,36,37
 533 319 533 319 531 307 c 1,38,-1
 386 307 l 1,39,40
 388 325 388 325 388 334 c 0,7,8
EndSplineSet
EndChar

StartChar: ccedilla
Encoding: 117 231 117
Width: 571
GlyphClass: 2
Flags: MW
HStem: -197 55<192.5 228.5 191.5 234> -68 51<216 229 209 239> -10 100<238.5 251 251 267> 307 214<388 395 326 533 388 388> 421 100<326 339.5>
VStem: 38 146<156.5 187 156.5 273.5> 269 75<-114.5 -89> 390 145<335.5 360>
LayerCount: 2
Fore
SplineSet
390 334 m 0,0,1
 390 421 390 421 313 421 c 0,2,3
 268 421 268 421 236.5 385 c 128,-1,4
 205 349 205 349 198 296 c 0,5,6
 184 192 184 192 184 183 c 0,7,8
 184 142 184 142 205 116 c 128,-1,9
 226 90 226 90 268.5 90 c 128,-1,10
 311 90 311 90 341.5 118.5 c 128,-1,11
 372 147 372 147 380 203 c 1,12,-1
 518 203 l 1,13,14
 503 98 503 98 432 44 c 128,-1,15
 361 -10 361 -10 267 -10 c 2,16,-1
 251 -10 l 2,17,18
 151 -10 151 -10 94.5 43 c 128,-1,19
 38 96 38 96 38 192 c 0,20,21
 38 322.5 38 322.5 106 417.5 c 0,22,23
 140 465 140 465 196.5 493 c 128,-1,24
 253 521 253 521 326 521 c 2,25,-1
 342 521 l 2,26,27
 425 521 425 521 480 473 c 128,-1,28
 535 425 535 425 535 341 c 0,29,30
 535 319 535 319 533 307 c 1,31,-1
 388 307 l 1,32,33
 390 325 390 325 390 334 c 0,0,1
107 -168 m 1,34,-1
 135 -116 l 2,35,36
 136 -116 136 -116 141 -119.5 c 128,-1,37
 146 -123 146 -123 152.5 -126.5 c 128,-1,38
 159 -130 159 -130 168 -133.5 c 0,39,40
 189.857142857 -142 189.857142857 -142 213.928571429 -142 c 128,-1,41
 238 -142 238 -142 253.5 -131.5 c 128,-1,42
 269 -121 269 -121 269 -99 c 0,43,44
 269 -68 269 -68 229 -68 c 2,45,-1
 209 -68 l 1,46,-1
 216 -17 l 1,47,-1
 239 -17 l 2,48,49
 344 -17 344 -17 344 -91 c 0,50,51
 344 -132 344 -132 319 -157.5 c 128,-1,52
 294 -183 294 -183 267 -190 c 128,-1,53
 240 -197 240 -197 211 -197 c 0,54,55
 144 -197 144 -197 107 -168 c 1,34,-1
EndSplineSet
EndChar

StartChar: d
Encoding: 118 100 118
Width: 595
GlyphClass: 2
Flags: MW
HStem: -10 100<225 235> 415 106<267.5 298 174.5 318.5>
VStem: 23 145<152 187.5 152 259>
LayerCount: 2
Fore
SplineSet
434 720 m 1,0,-1
 580 720 l 1,1,2
 495 127 495 127 495 117 c 0,3,4
 495 90 495 90 520 90 c 0,5,6
 542 90 542 90 562 104 c 1,7,-1
 548 11 l 1,8,9
 508 -10 508 -10 458 -10 c 0,10,11
 364 -10 364 -10 353 59 c 1,12,13
 287 -10 287 -10 204.5 -10 c 128,-1,14
 122 -10 122 -10 72.5 41 c 128,-1,15
 23 92 23 92 23 192 c 0,16,17
 23 305.888888889 23 305.888888889 76 406 c 0,18,19
 103 457 103 457 151.5 489 c 128,-1,20
 200 521 200 521 263 521 c 0,21,22
 354 521 354 521 396 452 c 1,23,-1
 434 720 l 1,0,-1
362 211 m 0,24,25
 376 311 376 311 376 322 c 0,26,27
 376 367 376 367 354 391 c 128,-1,28
 332 415 332 415 292 415 c 128,-1,29
 252 415 252 415 221.5 384 c 128,-1,30
 191 353 191 353 182 294 c 0,31,32
 168 194 168 194 168 183 c 0,33,34
 168 138 168 138 190 114 c 128,-1,35
 212 90 212 90 251.5 90 c 128,-1,36
 291 90 291 90 322 121 c 128,-1,37
 353 152 353 152 362 211 c 0,24,25
EndSplineSet
EndChar

StartChar: eth
Encoding: 119 240 119
Width: 614
GlyphClass: 2
Flags: MW
HStem: -10 100<236.5 242 242 258> 421 93<336 338.5> 672 20G<156 156>
VStem: 24 146<155 192 155 289> 405 146<319 356>
LayerCount: 2
Fore
SplineSet
144 597 m 1,0,-1
 235 637 l 1,1,2
 197 667 197 667 156 692 c 1,3,-1
 249 734 l 1,4,5
 290 714 290 714 336 684 c 1,6,-1
 424 722 l 1,7,-1
 461 680 l 1,8,9
 393 650 393 650 383 646 c 1,10,11
 459 579 459 579 505 493 c 128,-1,12
 551 407 551 407 551 315 c 0,13,14
 551 176 551 176 473.5 83 c 128,-1,15
 396 -10 396 -10 258 -10 c 2,16,-1
 242 -10 l 2,17,18
 144 -10 144 -10 84 45 c 128,-1,19
 24 100 24 100 24 197 c 0,20,21
 24 341 24 341 103 427.5 c 128,-1,22
 182 514 182 514 336 514 c 2,23,-1
 343 514 l 1,24,25
 318 557 318 557 280 596 c 1,26,-1
 185 555 l 1,27,-1
 144 597 l 1,0,-1
392 215 m 0,28,29
 405 314 405 314 405 323 c 0,30,31
 405 371 405 371 379.5 396 c 128,-1,32
 354 421 354 421 307.5 421 c 0,33,34
 261 421 261 421 226 389 c 128,-1,35
 191 357 191 357 183 296 c 0,36,37
 170 205 170 205 170 188 c 0,38,39
 170 140 170 140 195.5 115 c 128,-1,40
 221 90 221 90 266.5 90 c 0,41,42
 312 90 312 90 347.5 122.5 c 128,-1,43
 383 155 383 155 392 215 c 0,28,29
EndSplineSet
EndChar

StartChar: dcaron
Encoding: 120 271 120
Width: 595
GlyphClass: 2
Flags: MW
HStem: -10 100<225 235> 415 106<267.5 298 174.5 318.5> 539 147<633 675 612 779> 539 181<434 675 434 612>
VStem: 23 145<152 187.5 152 259>
LayerCount: 2
Fore
SplineSet
434 720 m 1,0,-1
 580 720 l 1,1,2
 495 127 495 127 495 117 c 0,3,4
 495 90 495 90 520 90 c 0,5,6
 542 90 542 90 562 104 c 1,7,-1
 548 11 l 1,8,9
 508 -10 508 -10 458 -10 c 0,10,11
 364 -10 364 -10 353 59 c 1,12,13
 287 -10 287 -10 204.5 -10 c 128,-1,14
 122 -10 122 -10 72.5 41 c 128,-1,15
 23 92 23 92 23 192 c 0,16,17
 23 305.888888889 23 305.888888889 76 406 c 0,18,19
 103 457 103 457 151.5 489 c 128,-1,20
 200 521 200 521 263 521 c 0,21,22
 354 521 354 521 396 452 c 1,23,-1
 434 720 l 1,0,-1
675 539 m 1,24,-1
 612 539 l 1,25,-1
 633 686 l 1,26,-1
 779 686 l 1,27,-1
 762 563 l 1,28,-1
 696 395 l 1,29,-1
 623 395 l 1,30,-1
 675 539 l 1,24,-1
362 211 m 0,31,32
 376 311 376 311 376 322 c 0,33,34
 376 367 376 367 354 391 c 128,-1,35
 332 415 332 415 292 415 c 128,-1,36
 252 415 252 415 221.5 384 c 128,-1,37
 191 353 191 353 182 294 c 0,38,39
 168 194 168 194 168 183 c 0,40,41
 168 138 168 138 190 114 c 128,-1,42
 212 90 212 90 251.5 90 c 128,-1,43
 291 90 291 90 322 121 c 128,-1,44
 353 152 353 152 362 211 c 0,31,32
EndSplineSet
EndChar

StartChar: dcroat
Encoding: 121 273 121
Width: 595
GlyphClass: 2
Flags: MW
HStem: -10 100<225 235> 415 106<267.5 298 174.5 318.5> 592 74<271 416 258 426 572 640>
VStem: 23 145<152 187.5 152 259>
LayerCount: 2
Fore
SplineSet
640 592 m 1,0,-1
 562 592 l 1,1,2
 495 123 495 123 495 117 c 0,3,4
 495 90 495 90 520 90 c 0,5,6
 542 90 542 90 562 104 c 1,7,-1
 548 11 l 1,8,9
 508 -10 508 -10 458 -10 c 0,10,11
 364 -10 364 -10 353 59 c 1,12,13
 287 -10 287 -10 204.5 -10 c 128,-1,14
 122 -10 122 -10 72.5 41 c 128,-1,15
 23 92 23 92 23 192 c 0,16,17
 23 305.888888889 23 305.888888889 76 406 c 0,18,19
 103 457 103 457 151.5 489 c 128,-1,20
 200 521 200 521 263 521 c 0,21,22
 354 521 354 521 396 452 c 1,23,-1
 416 592 l 1,24,-1
 258 592 l 1,25,-1
 271 666 l 1,26,-1
 426 666 l 1,27,-1
 434 720 l 1,28,-1
 580 720 l 1,29,-1
 572 666 l 1,30,-1
 653 666 l 1,31,-1
 640 592 l 1,0,-1
362 211 m 0,32,33
 376 311 376 311 376 322 c 0,34,35
 376 367 376 367 354 391 c 128,-1,36
 332 415 332 415 292 415 c 128,-1,37
 252 415 252 415 221.5 384 c 128,-1,38
 191 353 191 353 182 294 c 0,39,40
 168 194 168 194 168 183 c 0,41,42
 168 138 168 138 190 114 c 128,-1,43
 212 90 212 90 251.5 90 c 128,-1,44
 291 90 291 90 322 121 c 128,-1,45
 353 152 353 152 362 211 c 0,32,33
EndSplineSet
EndChar

StartChar: e
Encoding: 122 101 122
Width: 584
GlyphClass: 2
Flags: MW
HStem: -10 100<246 255 255 271> 231 80<198 400 198 537 187 400> 421 100<330 346 346 348>
VStem: 37 145<158.5 189.5 158.5 291> 402 148<334.5 362.5>
AnchorPoint: "Bottom" 256 0 basechar 0
LayerCount: 2
Fore
SplineSet
390 191 m 1,0,-1
 530 191 l 1,1,2
 517 92 517 92 442.5 41 c 128,-1,3
 368 -10 368 -10 271 -10 c 2,4,-1
 255 -10 l 2,5,6
 157 -10 157 -10 97 45 c 128,-1,7
 37 100 37 100 37 197 c 0,8,9
 37 340 37 340 116.5 430.5 c 128,-1,10
 196 521 196 521 330 521 c 2,11,-1
 346 521 l 2,12,13
 433 521 433 521 491.5 472.5 c 128,-1,14
 550 424 550 424 550 340 c 0,15,16
 550 329 550 329 548 307 c 1,17,-1
 537 231 l 1,18,-1
 187 231 l 1,19,20
 182 211 182 211 182 177 c 0,21,22
 182 143 182 143 207 116.5 c 128,-1,23
 232 90 232 90 277.5 90 c 0,24,25
 323 90 323 90 353 115.5 c 128,-1,26
 383 141 383 141 390 191 c 1,0,-1
317 421 m 0,27,28
 273 421 273 421 241 390 c 128,-1,29
 209 359 209 359 198 311 c 1,30,-1
 400 311 l 1,31,32
 402 329 402 329 402 338 c 0,33,34
 402 421 402 421 317 421 c 0,27,28
EndSplineSet
EndChar

StartChar: eacute
Encoding: 123 233 123
Width: 588
GlyphClass: 2
Flags: MW
HStem: -10 100<248 257 257 273> 231 80<200 402 200 539 189 402> 421 100<332 348 348 350> 575 145<282 524 282 524>
VStem: 39 145<158.5 189.5 158.5 291> 404 148<334.5 362.5>
LayerCount: 2
Fore
SplineSet
395 720 m 1,0,-1
 524 720 l 1,1,-1
 524 716 l 1,2,-1
 383 575 l 1,3,-1
 282 575 l 1,4,-1
 395 720 l 1,0,-1
392 191 m 1,5,-1
 532 191 l 1,6,7
 519 92 519 92 444.5 41 c 128,-1,8
 370 -10 370 -10 273 -10 c 2,9,-1
 257 -10 l 2,10,11
 159 -10 159 -10 99 45 c 128,-1,12
 39 100 39 100 39 197 c 0,13,14
 39 340 39 340 118.5 430.5 c 128,-1,15
 198 521 198 521 332 521 c 2,16,-1
 348 521 l 2,17,18
 435 521 435 521 493.5 472.5 c 128,-1,19
 552 424 552 424 552 340 c 0,20,21
 552 329 552 329 550 307 c 1,22,-1
 539 231 l 1,23,-1
 189 231 l 1,24,25
 184 211 184 211 184 177 c 0,26,27
 184 143 184 143 209 116.5 c 128,-1,28
 234 90 234 90 279.5 90 c 0,29,30
 325 90 325 90 355 115.5 c 128,-1,31
 385 141 385 141 392 191 c 1,5,-1
319 421 m 0,32,33
 275 421 275 421 243 390 c 128,-1,34
 211 359 211 359 200 311 c 1,35,-1
 402 311 l 1,36,37
 404 329 404 329 404 338 c 0,38,39
 404 421 404 421 319 421 c 0,32,33
EndSplineSet
EndChar

StartChar: ecaron
Encoding: 124 283 124
Width: 584
GlyphClass: 2
Flags: MW
HStem: -10 100<246 255 255 271> 231 80<198 400 198 537 187 400> 421 100<330 346 346 348> 575 145<158 378 158 275>
VStem: 37 145<158.5 189.5 158.5 291> 402 148<334.5 362.5>
AnchorPoint: "Bottom" 256 0 basechar 0
LayerCount: 2
Fore
SplineSet
536 720 m 1,0,-1
 378 575 l 1,1,-1
 275 575 l 1,2,-1
 158 720 l 1,3,-1
 263 720 l 1,4,-1
 336 637 l 1,5,-1
 432 720 l 1,6,-1
 536 720 l 1,0,-1
390 191 m 1,7,-1
 530 191 l 1,8,9
 517 92 517 92 442.5 41 c 128,-1,10
 368 -10 368 -10 271 -10 c 2,11,-1
 255 -10 l 2,12,13
 157 -10 157 -10 97 45 c 128,-1,14
 37 100 37 100 37 197 c 0,15,16
 37 340 37 340 116.5 430.5 c 128,-1,17
 196 521 196 521 330 521 c 2,18,-1
 346 521 l 2,19,20
 433 521 433 521 491.5 472.5 c 128,-1,21
 550 424 550 424 550 340 c 0,22,23
 550 329 550 329 548 307 c 1,24,-1
 537 231 l 1,25,-1
 187 231 l 1,26,27
 182 211 182 211 182 177 c 128,-1,28
 182 143 182 143 207 116.5 c 128,-1,29
 232 90 232 90 277.5 90 c 128,-1,30
 323 90 323 90 353 115.5 c 128,-1,31
 383 141 383 141 390 191 c 1,7,-1
317 421 m 0,32,33
 273 421 273 421 241 390 c 128,-1,34
 209 359 209 359 198 311 c 1,35,-1
 400 311 l 1,36,37
 402 329 402 329 402 338 c 0,38,39
 402 421 402 421 317 421 c 0,32,33
EndSplineSet
EndChar

StartChar: ecircumflex
Encoding: 125 234 125
Width: 588
GlyphClass: 2
Flags: MW
HStem: -10 100<248 257 257 273> 231 80<200 402 200 539 189 402> 421 100<332 348 348 350> 575 145<163 425 322 541 322 436>
VStem: 39 145<158.5 189.5 158.5 291> 404 148<334.5 362.5>
LayerCount: 2
Fore
SplineSet
322 720 m 1,0,-1
 425 720 l 1,1,2
 494 633 494 633 541 575 c 1,3,-1
 436 575 l 1,4,-1
 364 658 l 1,5,-1
 267 575 l 1,6,-1
 163 575 l 1,7,-1
 322 720 l 1,0,-1
392 191 m 1,8,-1
 532 191 l 1,9,10
 519 92 519 92 444.5 41 c 128,-1,11
 370 -10 370 -10 273 -10 c 2,12,-1
 257 -10 l 2,13,14
 159 -10 159 -10 99 45 c 128,-1,15
 39 100 39 100 39 197 c 0,16,17
 39 340 39 340 118.5 430.5 c 128,-1,18
 198 521 198 521 332 521 c 2,19,-1
 348 521 l 2,20,21
 435 521 435 521 493.5 472.5 c 128,-1,22
 552 424 552 424 552 340 c 0,23,24
 552 329 552 329 550 307 c 1,25,-1
 539 231 l 1,26,-1
 189 231 l 1,27,28
 184 211 184 211 184 177 c 0,29,30
 184 143 184 143 209 116.5 c 128,-1,31
 234 90 234 90 279.5 90 c 0,32,33
 325 90 325 90 355 115.5 c 128,-1,34
 385 141 385 141 392 191 c 1,8,-1
319 421 m 0,35,36
 275 421 275 421 243 390 c 128,-1,37
 211 359 211 359 200 311 c 1,38,-1
 402 311 l 1,39,40
 404 329 404 329 404 338 c 0,41,42
 404 421 404 421 319 421 c 0,35,36
EndSplineSet
EndChar

StartChar: edieresis
Encoding: 126 235 126
Width: 588
GlyphClass: 2
Flags: MW
HStem: -10 100<248 257 257 273> 231 80<200 402 200 539 189 402> 421 100<332 348 348 350> 598 122<204 308 187 325 204 391 408 512>
VStem: 39 145<158.5 189.5 158.5 291> 404 148<334.5 362.5>
LayerCount: 2
Fore
SplineSet
325 720 m 1,0,-1
 308 598 l 1,1,-1
 187 598 l 1,2,-1
 204 720 l 1,3,-1
 325 720 l 1,0,-1
529 720 m 1,4,-1
 512 598 l 1,5,-1
 391 598 l 1,6,-1
 408 720 l 1,7,-1
 529 720 l 1,4,-1
392 191 m 1,8,-1
 532 191 l 1,9,10
 519 92 519 92 444.5 41 c 128,-1,11
 370 -10 370 -10 273 -10 c 2,12,-1
 257 -10 l 2,13,14
 159 -10 159 -10 99 45 c 128,-1,15
 39 100 39 100 39 197 c 0,16,17
 39 340 39 340 118.5 430.5 c 128,-1,18
 198 521 198 521 332 521 c 2,19,-1
 348 521 l 2,20,21
 435 521 435 521 493.5 472.5 c 128,-1,22
 552 424 552 424 552 340 c 0,23,24
 552 329 552 329 550 307 c 1,25,-1
 539 231 l 1,26,-1
 189 231 l 1,27,28
 184 211 184 211 184 177 c 0,29,30
 184 143 184 143 209 116.5 c 128,-1,31
 234 90 234 90 279.5 90 c 0,32,33
 325 90 325 90 355 115.5 c 128,-1,34
 385 141 385 141 392 191 c 1,8,-1
319 421 m 0,35,36
 275 421 275 421 243 390 c 128,-1,37
 211 359 211 359 200 311 c 1,38,-1
 402 311 l 1,39,40
 404 329 404 329 404 338 c 0,41,42
 404 421 404 421 319 421 c 0,35,36
EndSplineSet
EndChar

StartChar: edotaccent
Encoding: 127 279 127
Width: 584
GlyphClass: 2
Flags: MW
HStem: -10 100<246 255 255 271> 231 80<198 400 198 537 187 400> 421 100<330 346 346 348> 604 132<337.5 360.5>
VStem: 37 145<158.5 189.5 158.5 291> 284 133<658.5 679.5> 402 148<334.5 362.5>
AnchorPoint: "Bottom" 256 0 basechar 0
LayerCount: 2
Fore
SplineSet
400.5 719 m 128,-1,1
 417 702 417 702 417 675 c 128,-1,2
 417 648 417 648 394 626 c 128,-1,3
 371 604 371 604 343.5 604 c 128,-1,4
 316 604 316 604 300 620 c 128,-1,5
 284 636 284 636 284 663 c 128,-1,6
 284 690 284 690 305.5 713 c 128,-1,7
 327 736 327 736 355.5 736 c 128,-1,0
 384 736 384 736 400.5 719 c 128,-1,1
390 191 m 1,8,-1
 530 191 l 1,9,10
 517 92 517 92 442.5 41 c 128,-1,11
 368 -10 368 -10 271 -10 c 2,12,-1
 255 -10 l 2,13,14
 157 -10 157 -10 97 45 c 128,-1,15
 37 100 37 100 37 197 c 0,16,17
 37 340 37 340 116.5 430.5 c 128,-1,18
 196 521 196 521 330 521 c 2,19,-1
 346 521 l 2,20,21
 433 521 433 521 491.5 472.5 c 128,-1,22
 550 424 550 424 550 340 c 0,23,24
 550 329 550 329 548 307 c 1,25,-1
 537 231 l 1,26,-1
 187 231 l 1,27,28
 182 211 182 211 182 177 c 128,-1,29
 182 143 182 143 207 116.5 c 128,-1,30
 232 90 232 90 277.5 90 c 128,-1,31
 323 90 323 90 353 115.5 c 128,-1,32
 383 141 383 141 390 191 c 1,8,-1
317 421 m 0,33,34
 273 421 273 421 241 390 c 128,-1,35
 209 359 209 359 198 311 c 1,36,-1
 400 311 l 1,37,38
 402 329 402 329 402 338 c 0,39,40
 402 421 402 421 317 421 c 0,33,34
EndSplineSet
EndChar

StartChar: egrave
Encoding: 128 232 128
Width: 588
GlyphClass: 2
Flags: MW
HStem: -10 100<248 257 257 273> 231 80<200 402 200 539 189 402> 421 100<332 348 348 350> 575 145<300 330 202 402 300 300>
VStem: 39 145<158.5 189.5 158.5 291> 404 148<334.5 362.5>
LayerCount: 2
Fore
SplineSet
200 717 m 1,0,-1
 202 720 l 1,1,-1
 330 720 l 1,2,-1
 402 575 l 1,3,-1
 300 575 l 1,4,-1
 200 717 l 1,0,-1
392 191 m 1,5,-1
 532 191 l 1,6,7
 519 92 519 92 444.5 41 c 128,-1,8
 370 -10 370 -10 273 -10 c 2,9,-1
 257 -10 l 2,10,11
 159 -10 159 -10 99 45 c 128,-1,12
 39 100 39 100 39 197 c 0,13,14
 39 340 39 340 118.5 430.5 c 128,-1,15
 198 521 198 521 332 521 c 2,16,-1
 348 521 l 2,17,18
 435 521 435 521 493.5 472.5 c 128,-1,19
 552 424 552 424 552 340 c 0,20,21
 552 329 552 329 550 307 c 1,22,-1
 539 231 l 1,23,-1
 189 231 l 1,24,25
 184 211 184 211 184 177 c 0,26,27
 184 143 184 143 209 116.5 c 128,-1,28
 234 90 234 90 279.5 90 c 0,29,30
 325 90 325 90 355 115.5 c 128,-1,31
 385 141 385 141 392 191 c 1,5,-1
319 421 m 0,32,33
 275 421 275 421 243 390 c 128,-1,34
 211 359 211 359 200 311 c 1,35,-1
 402 311 l 1,36,37
 404 329 404 329 404 338 c 0,38,39
 404 421 404 421 319 421 c 0,32,33
EndSplineSet
EndChar

StartChar: emacron
Encoding: 129 275 129
Width: 584
GlyphClass: 2
Flags: MW
HStem: -10 100<246 255 255 271> 231 80<198 400 198 537 187 400> 421 100<330 346 346 348> 662 74<201 508 190 519>
VStem: 37 145<158.5 189.5 158.5 291> 402 148<334.5 362.5>
AnchorPoint: "Bottom" 256 0 basechar 0
LayerCount: 2
Fore
SplineSet
201 736 m 1,0,-1
 519 736 l 1,1,-1
 508 662 l 1,2,-1
 190 662 l 1,3,-1
 201 736 l 1,0,-1
390 191 m 1,4,-1
 530 191 l 1,5,6
 517 92 517 92 442.5 41 c 128,-1,7
 368 -10 368 -10 271 -10 c 2,8,-1
 255 -10 l 2,9,10
 157 -10 157 -10 97 45 c 128,-1,11
 37 100 37 100 37 197 c 0,12,13
 37 340 37 340 116.5 430.5 c 128,-1,14
 196 521 196 521 330 521 c 2,15,-1
 346 521 l 2,16,17
 433 521 433 521 491.5 472.5 c 128,-1,18
 550 424 550 424 550 340 c 0,19,20
 550 329 550 329 548 307 c 1,21,-1
 537 231 l 1,22,-1
 187 231 l 1,23,24
 182 211 182 211 182 177 c 0,25,26
 182 143 182 143 207 116.5 c 128,-1,27
 232 90 232 90 277.5 90 c 0,28,29
 323 90 323 90 353 115.5 c 128,-1,30
 383 141 383 141 390 191 c 1,4,-1
317 421 m 0,31,32
 273 421 273 421 241 390 c 128,-1,33
 209 359 209 359 198 311 c 1,34,-1
 400 311 l 1,35,36
 402 329 402 329 402 338 c 0,37,38
 402 421 402 421 317 421 c 0,31,32
EndSplineSet
EndChar

StartChar: eogonek
Encoding: 130 281 130
Width: 584
GlyphClass: 2
Flags: MW
HStem: -143 50<321.5 324.5> -10 100<246 255 255 270> 231 80<198 400 198 537 187 400> 421 100<330 346 346 348>
VStem: 37 145<158.5 189.5 158.5 291> 221 71<-75 -66.5> 402 148<334.5 362.5>
AnchorPoint: "Bottom" 256 0 basechar 0
LayerCount: 2
Fore
SplineSet
330 521 m 2,0,-1
 346 521 l 2,1,2
 433 521 433 521 491.5 472.5 c 128,-1,3
 550 424 550 424 550 340 c 0,4,5
 550 329 550 329 548 307 c 1,6,-1
 537 231 l 1,7,-1
 187 231 l 1,8,9
 182 211 182 211 182 177 c 0,10,11
 182 143 182 143 207 116.5 c 128,-1,12
 232 90 232 90 277.5 90 c 0,13,14
 323 90 323 90 353 115.5 c 128,-1,15
 383 141 383 141 390 191 c 1,16,-1
 530 191 l 1,17,18
 519 111 519 111 468 62.5 c 128,-1,19
 417 14 417 14 344 -2 c 1,20,21
 292 -30 292 -30 292 -64 c 0,22,23
 292 -93 292 -93 327 -93 c 0,24,25
 362 -93 362 -93 400 -79 c 1,26,-1
 408 -119 l 1,27,28
 362 -143 362 -143 308 -143 c 0,29,30
 221 -143 221 -143 221 -83 c 0,31,32
 221 -44 221 -44 270 -10 c 1,33,-1
 255 -10 l 2,34,35
 157 -10 157 -10 97 45 c 128,-1,36
 37 100 37 100 37 197 c 0,37,38
 37 340 37 340 116.5 430.5 c 128,-1,39
 196 521 196 521 330 521 c 2,0,-1
198 311 m 1,40,-1
 400 311 l 1,41,42
 402 329 402 329 402 338 c 0,43,44
 402 421 402 421 317 421 c 0,45,46
 273 421 273 421 241 390 c 128,-1,47
 209 359 209 359 198 311 c 1,40,-1
EndSplineSet
EndChar

StartChar: f
Encoding: 131 102 131
Width: 363
GlyphClass: 2
Flags: MW
HStem: -185 20 411 100<44 91 31 105 251 356> 630 98<296 305 242 333>
VStem: -108 505 109.5 141.5
LayerCount: 2
Fore
SplineSet
397 707 m 1,0,-1
 385 618 l 1,1,2
 349 630 349 630 325 630 c 0,3,4
 285 630 285 630 271.5 604 c 128,-1,5
 258 578 258 578 251 511 c 1,6,-1
 371 511 l 1,7,-1
 356 411 l 1,8,-1
 237 411 l 1,9,10
 201 153 201 153 180 -1 c 0,11,12
 156 -185 156 -185 -9 -185 c 0,13,14
 -73 -185 -73 -185 -108 -165 c 1,15,-1
 -96 -74 l 1,16,17
 -68 -87 -68 -87 -36 -87 c 0,18,19
 21 -87 21 -87 30 -21 c 0,20,21
 60 200 60 200 91 411 c 1,22,-1
 31 411 l 1,23,-1
 44 511 l 1,24,-1
 105 511 l 1,25,-1
 114 574 l 2,26,27
 136 728 136 728 290 728 c 0,28,29
 358 728 358 728 397 707 c 1,0,-1
EndSplineSet
EndChar

StartChar: g
Encoding: 132 103 132
Width: 572
GlyphClass: 2
Flags: MW
HStem: -186 99<229.5 309 229.5 323> 19 100<163 303.5> 421 100<295 338 215 346.5> 491 20G<522 575 575 575>
VStem: 28 146<-37 -19 -37 -19> 50 144<177 210 177 287>
LayerCount: 2
Fore
SplineSet
28 -19 m 1,0,-1
 174 -19 l 1,1,2
 174 -48 174 -48 196 -67.5 c 128,-1,3
 218 -87 218 -87 248.5 -87 c 128,-1,4
 279 -87 279 -87 295.5 -81.5 c 128,-1,5
 312 -76 312 -76 323.5 -62.5 c 128,-1,6
 335 -49 335 -49 342 -39 c 128,-1,7
 349 -29 349 -29 354.5 -6.5 c 128,-1,8
 360 16 360 16 361.5 24.5 c 0,9,10
 369 67 369 67 369 88 c 1,11,12
 307 19 307 19 222.5 19 c 128,-1,13
 138 19 138 19 94 72 c 128,-1,14
 50 125 50 125 50 208 c 128,-1,15
 50 291 50 291 75.5 359 c 128,-1,16
 101 427 101 427 160 474 c 128,-1,17
 219 521 219 521 303 521 c 0,18,19
 414 521 414 521 460 433 c 1,20,21
 480 459 480 459 522 511 c 1,22,-1
 575 511 l 1,23,-1
 508 37 l 2,24,25
 494 -69 494 -69 426.5 -127.5 c 128,-1,26
 359 -186 359 -186 254 -186 c 128,-1,27
 149 -186 149 -186 88.5 -142.5 c 128,-1,28
 28 -99 28 -99 28 -19 c 1,0,-1
208 309 m 0,29,30
 194 215 194 215 194 206 c 0,31,32
 194 164 194 164 216.5 141.5 c 128,-1,33
 239 119 239 119 279 119 c 128,-1,34
 319 119 319 119 350.5 148 c 128,-1,35
 382 177 382 177 390 231 c 0,36,37
 402 315 402 315 402 326 c 0,38,39
 402 373 402 373 381 397 c 128,-1,40
 360 421 360 421 320 421 c 128,-1,41
 280 421 280 421 248.5 392 c 128,-1,42
 217 363 217 363 208 309 c 0,29,30
EndSplineSet
EndChar

StartChar: gbreve
Encoding: 133 287 133
Width: 572
GlyphClass: 2
Flags: MW
HStem: -186 99<229.5 309 229.5 323> 19 100<163 303.5> 421 100<295 338 215 346.5> 491 20G<522 575 575 575> 613 74<309 366 309 381.5>
VStem: 28 146<-37 -19 -37 -19> 50 144<177 210 177 287>
LayerCount: 2
Fore
SplineSet
468.5 652.5 m 128,-1,1
 405 613 405 613 330 613 c 128,-1,2
 255 613 255 613 203.5 649.5 c 128,-1,3
 152 686 152 686 152 729 c 0,4,5
 152 734 152 734 153 737 c 1,6,-1
 234 737 l 1,7,8
 236 718 236 718 266 702.5 c 128,-1,9
 296 687 296 687 337 687 c 128,-1,10
 378 687 378 687 414 703 c 128,-1,11
 450 719 450 719 456 737 c 1,12,-1
 538 737 l 1,13,0
 532 692 532 692 468.5 652.5 c 128,-1,1
28 -19 m 1,14,-1
 174 -19 l 1,15,16
 174 -48 174 -48 196 -67.5 c 128,-1,17
 218 -87 218 -87 248.5 -87 c 128,-1,18
 279 -87 279 -87 295.5 -81.5 c 128,-1,19
 312 -76 312 -76 323.5 -62.5 c 128,-1,20
 335 -49 335 -49 342 -39 c 128,-1,21
 349 -29 349 -29 354.5 -6.5 c 128,-1,22
 360 16 360 16 361.5 24.5 c 0,23,24
 369 67 369 67 369 88 c 1,25,26
 307 19 307 19 222.5 19 c 128,-1,27
 138 19 138 19 94 72 c 128,-1,28
 50 125 50 125 50 208 c 128,-1,29
 50 291 50 291 75.5 359 c 128,-1,30
 101 427 101 427 160 474 c 128,-1,31
 219 521 219 521 303 521 c 0,32,33
 414 521 414 521 460 433 c 1,34,35
 480 459 480 459 522 511 c 1,36,-1
 575 511 l 1,37,-1
 508 37 l 2,38,39
 494 -69 494 -69 426.5 -127.5 c 128,-1,40
 359 -186 359 -186 254 -186 c 128,-1,41
 149 -186 149 -186 88.5 -142.5 c 128,-1,42
 28 -99 28 -99 28 -19 c 1,14,-1
208 309 m 0,43,44
 194 215 194 215 194 206 c 0,45,46
 194 164 194 164 216.5 141.5 c 128,-1,47
 239 119 239 119 279 119 c 128,-1,48
 319 119 319 119 350.5 148 c 128,-1,49
 382 177 382 177 390 231 c 0,50,51
 402 315 402 315 402 326 c 0,52,53
 402 373 402 373 381 397 c 128,-1,54
 360 421 360 421 320 421 c 128,-1,55
 280 421 280 421 248.5 392 c 128,-1,56
 217 363 217 363 208 309 c 0,43,44
EndSplineSet
EndChar

StartChar: gcommaaccent
Encoding: 134 291 134
Width: 572
GlyphClass: 2
Flags: MW
HStem: -186 99<229.5 309 229.5 323> 19 100<163 303.5> 421 100<295 338 215 346.5> 491 20G<522 575 575 575> 571 137<370 414 268 433>
VStem: 28 146<-37 -19 -37 -19> 50 144<177 210 177 287>
LayerCount: 2
Fore
SplineSet
370 708 m 1,0,-1
 433 708 l 1,1,-1
 414 571 l 1,2,-1
 268 571 l 1,3,-1
 284 684 l 1,4,-1
 324 791 l 1,5,-1
 398 791 l 1,6,-1
 370 708 l 1,0,-1
28 -19 m 1,7,-1
 174 -19 l 1,8,9
 174 -48 174 -48 196 -67.5 c 128,-1,10
 218 -87 218 -87 248.5 -87 c 128,-1,11
 279 -87 279 -87 295.5 -81.5 c 128,-1,12
 312 -76 312 -76 323.5 -62.5 c 128,-1,13
 335 -49 335 -49 342 -39 c 128,-1,14
 349 -29 349 -29 354.5 -6.5 c 128,-1,15
 360 16 360 16 361.5 24.5 c 0,16,17
 369 67 369 67 369 88 c 1,18,19
 307 19 307 19 222.5 19 c 128,-1,20
 138 19 138 19 94 72 c 128,-1,21
 50 125 50 125 50 208 c 128,-1,22
 50 291 50 291 75.5 359 c 128,-1,23
 101 427 101 427 160 474 c 128,-1,24
 219 521 219 521 303 521 c 0,25,26
 414 521 414 521 460 433 c 1,27,28
 480 459 480 459 522 511 c 1,29,-1
 575 511 l 1,30,-1
 508 37 l 2,31,32
 494 -69 494 -69 426.5 -127.5 c 128,-1,33
 359 -186 359 -186 254 -186 c 128,-1,34
 149 -186 149 -186 88.5 -142.5 c 128,-1,35
 28 -99 28 -99 28 -19 c 1,7,-1
208 309 m 0,36,37
 194 215 194 215 194 206 c 0,38,39
 194 164 194 164 216.5 141.5 c 128,-1,40
 239 119 239 119 279 119 c 128,-1,41
 319 119 319 119 350.5 148 c 128,-1,42
 382 177 382 177 390 231 c 0,43,44
 402 315 402 315 402 326 c 0,45,46
 402 373 402 373 381 397 c 128,-1,47
 360 421 360 421 320 421 c 128,-1,48
 280 421 280 421 248.5 392 c 128,-1,49
 217 363 217 363 208 309 c 0,36,37
EndSplineSet
EndChar

StartChar: h
Encoding: 135 104 135
Width: 598
GlyphClass: 2
Flags: MW
HStem: 0 21G<15 161 15 15 336 482 336 336> 415 106<288.5 420.5>
VStem: 15 519<0 431.5> 383 151<337.5 431.5>
LayerCount: 2
Fore
SplineSet
262 720 m 1,0,-1
 226 461 l 1,1,2
 291 521 291 521 368.5 521 c 0,3,4
 446 521 446 521 490 486.5 c 128,-1,5
 534 452 534 452 534 386 c 0,6,7
 534 374 534 374 482 0 c 1,8,-1
 336 0 l 1,9,10
 383 330 383 330 383 340 c 0,11,12
 383 373 383 373 364 394 c 128,-1,13
 345 415 345 415 310 415 c 0,14,15
 275 415 275 415 243 385.5 c 128,-1,16
 211 356 211 356 205 314 c 2,17,-1
 161 0 l 1,18,-1
 15 0 l 1,19,-1
 116 720 l 1,20,-1
 262 720 l 1,0,-1
EndSplineSet
EndChar

StartChar: i
Encoding: 136 105 136
Width: 278
GlyphClass: 2
Flags: MW
HStem: 0 21G<15 161 15 15> 491 20G<87 233 233 233> 605 115<115 247 99 263>
VStem: 15 248
LayerCount: 2
Fore
SplineSet
263 720 m 1,0,-1
 247 605 l 1,1,-1
 99 605 l 1,2,-1
 115 720 l 1,3,-1
 263 720 l 1,0,-1
87 511 m 1,4,-1
 233 511 l 1,5,-1
 161 0 l 1,6,-1
 15 0 l 1,7,-1
 87 511 l 1,4,-1
EndSplineSet
EndChar

StartChar: dotlessi
Encoding: 137 305 137
Width: 278
GlyphClass: 2
Flags: MW
HStem: 0 21G<30 176 30 30> 491 20G<101 247 247 247>
VStem: 30 217
LayerCount: 2
Fore
SplineSet
101 511 m 1,0,-1
 247 511 l 1,1,-1
 176 0 l 1,2,-1
 30 0 l 1,3,-1
 101 511 l 1,0,-1
EndSplineSet
EndChar

StartChar: iacute
Encoding: 138 237 138
Width: 278
GlyphClass: 2
Flags: MW
HStem: 0 21G<30 176 30 30> 491 20G<101 247 247 247> 575 145<111 353 111 353>
VStem: 30 323
LayerCount: 2
Fore
SplineSet
224 720 m 1,0,-1
 353 720 l 1,1,-1
 353 716 l 1,2,-1
 212 575 l 1,3,-1
 111 575 l 1,4,-1
 224 720 l 1,0,-1
101 511 m 1,5,-1
 247 511 l 1,6,-1
 176 0 l 1,7,-1
 30 0 l 1,8,-1
 101 511 l 1,5,-1
EndSplineSet
EndChar

StartChar: icircumflex
Encoding: 139 238 139
Width: 278
GlyphClass: 2
Flags: MW
HStem: 0 21G<30 176 30 30> 491 20G<101 247 247 247> 575 145<-13 249 146 365 146 260>
VStem: -13 378<575 575>
LayerCount: 2
Fore
SplineSet
146 720 m 1,0,-1
 249 720 l 1,1,2
 318 633 318 633 365 575 c 1,3,-1
 260 575 l 1,4,-1
 188 658 l 1,5,-1
 91 575 l 1,6,-1
 -13 575 l 1,7,-1
 146 720 l 1,0,-1
101 511 m 1,8,-1
 247 511 l 1,9,-1
 176 0 l 1,10,-1
 30 0 l 1,11,-1
 101 511 l 1,8,-1
EndSplineSet
EndChar

StartChar: idieresis
Encoding: 140 239 140
Width: 278
GlyphClass: 2
Flags: MW
HStem: 0 21G<30 176 30 30> 491 20G<101 247 247 247> 598 122<41 145 24 162 41 228 245 349>
VStem: 24 342<598 720>
LayerCount: 2
Fore
SplineSet
162 720 m 1,0,-1
 145 598 l 1,1,-1
 24 598 l 1,2,-1
 41 720 l 1,3,-1
 162 720 l 1,0,-1
366 720 m 1,4,-1
 349 598 l 1,5,-1
 228 598 l 1,6,-1
 245 720 l 1,7,-1
 366 720 l 1,4,-1
101 511 m 1,8,-1
 247 511 l 1,9,-1
 176 0 l 1,10,-1
 30 0 l 1,11,-1
 101 511 l 1,8,-1
EndSplineSet
EndChar

StartChar: igrave
Encoding: 141 236 141
Width: 278
GlyphClass: 2
Flags: MW
HStem: 0 21G<30 176 30 30> 491 20G<101 247 247 247> 575 145<142 172 44 244 142 142>
VStem: 30 217
LayerCount: 2
Fore
SplineSet
42 717 m 1,0,-1
 44 720 l 1,1,-1
 172 720 l 1,2,-1
 244 575 l 1,3,-1
 142 575 l 1,4,-1
 42 717 l 1,0,-1
101 511 m 1,5,-1
 247 511 l 1,6,-1
 176 0 l 1,7,-1
 30 0 l 1,8,-1
 101 511 l 1,5,-1
EndSplineSet
EndChar

StartChar: imacron
Encoding: 142 299 142
Width: 278
GlyphClass: 2
Flags: MW
HStem: 0 21G<30 176 30 30> 491 20G<101 247 247 247> 662 74<48 355 37 366>
VStem: 30 336
LayerCount: 2
Fore
SplineSet
48 736 m 1,0,-1
 366 736 l 1,1,-1
 355 662 l 1,2,-1
 37 662 l 1,3,-1
 48 736 l 1,0,-1
101 511 m 1,4,-1
 247 511 l 1,5,-1
 176 0 l 1,6,-1
 30 0 l 1,7,-1
 101 511 l 1,4,-1
EndSplineSet
EndChar

StartChar: iogonek
Encoding: 143 303 143
Width: 278
GlyphClass: 2
Flags: MW
HStem: -143 50<145.5 148.5> 0 21G<30 110 30 30 172 176 172 172> 491 20G<101 247 247 247> 605 115<135 267 119 283>
VStem: 45 71<-75 -63.5>
LayerCount: 2
Fore
SplineSet
283 720 m 1,0,-1
 267 605 l 1,1,-1
 119 605 l 1,2,-1
 135 720 l 1,3,-1
 283 720 l 1,0,-1
176 0 m 1,4,-1
 172 0 l 1,5,6
 116 -29 116 -29 116 -64 c 0,7,8
 116 -93 116 -93 151 -93 c 0,9,10
 186 -93 186 -93 224 -79 c 1,11,-1
 232 -119 l 1,12,13
 186 -143 186 -143 132 -143 c 0,14,15
 45 -143 45 -143 45 -83 c 0,16,17
 45 -39 45 -39 110 0 c 1,18,-1
 30 0 l 1,19,-1
 101 511 l 1,20,-1
 247 511 l 1,21,-1
 176 0 l 1,4,-1
EndSplineSet
EndChar

StartChar: j
Encoding: 144 106 144
Width: 280
GlyphClass: 2
Flags: MW
HStem: -186 20 490 20G<101 247 247 247> 605 115<129 261 113 277>
VStem: -110 387
LayerCount: 2
Fore
SplineSet
277 720 m 1,0,-1
 261 605 l 1,1,-1
 113 605 l 1,2,-1
 129 720 l 1,3,-1
 277 720 l 1,0,-1
247 510 m 1,4,-1
 172 -20 l 2,5,6
 148 -186 148 -186 -4 -186 c 0,7,8
 -72 -186 -72 -186 -110 -166 c 1,9,-1
 -97 -73 l 1,10,11
 -71 -86 -71 -86 -42 -86 c 0,12,13
 -13 -86 -13 -86 4 -72 c 128,-1,14
 21 -58 21 -58 26 -18 c 2,15,-1
 101 510 l 1,16,-1
 247 510 l 1,4,-1
EndSplineSet
EndChar

StartChar: k
Encoding: 145 107 145
Width: 562
GlyphClass: 2
Flags: MW
HStem: 0 21G<15 161 15 15 339 339 339 513> 491 20G<412 577 577 577>
VStem: 15 562<0 511>
AnchorPoint: "Bottom" 245 0 basechar 0
LayerCount: 2
Fore
SplineSet
241 167 m 1,0,-1
 177 112 l 1,1,-1
 161 0 l 1,2,-1
 15 0 l 1,3,-1
 116 720 l 1,4,-1
 262 720 l 1,5,-1
 199 273 l 1,6,-1
 412 511 l 1,7,-1
 577 511 l 1,8,-1
 355 271 l 1,9,-1
 513 0 l 1,10,-1
 339 0 l 1,11,-1
 241 167 l 1,0,-1
EndSplineSet
EndChar

StartChar: kcommaaccent
Encoding: 146 311 146
Width: 562
GlyphClass: 2
Flags: MW
HStem: -167 137<173 217 154 319> 0 21G<15 161 15 15 339 339 339 513> 491 20G<412 577 577 577>
VStem: 15 562<0 511>
AnchorPoint: "Bottom" 245 0 basechar 0
LayerCount: 2
Fore
SplineSet
241 167 m 1,0,-1
 177 112 l 1,1,-1
 161 0 l 1,2,-1
 15 0 l 1,3,-1
 116 720 l 1,4,-1
 262 720 l 1,5,-1
 199 273 l 1,6,-1
 412 511 l 1,7,-1
 577 511 l 1,8,-1
 355 271 l 1,9,-1
 513 0 l 1,10,-1
 339 0 l 1,11,-1
 241 167 l 1,0,-1
217 -167 m 1,12,-1
 154 -167 l 1,13,-1
 173 -30 l 1,14,-1
 319 -30 l 1,15,-1
 303 -143 l 1,16,-1
 263 -250 l 1,17,-1
 189 -250 l 1,18,-1
 217 -167 l 1,12,-1
EndSplineSet
EndChar

StartChar: l
Encoding: 147 108 147
Width: 279
GlyphClass: 2
Flags: MW
HStem: 0 21G<15 161 15 15>
VStem: 15 247
AnchorPoint: "Bottom" 104 0 basechar 0
LayerCount: 2
Fore
SplineSet
116 720 m 1,0,-1
 262 720 l 1,1,-1
 161 0 l 1,2,-1
 15 0 l 1,3,-1
 116 720 l 1,0,-1
EndSplineSet
EndChar

StartChar: lacute
Encoding: 148 314 148
Width: 279
GlyphClass: 2
Flags: MW
HStem: 0 21G<15 161 15 15> 750 145<132 374 132 374>
VStem: 15 359
AnchorPoint: "Bottom" 104 0 basechar 0
LayerCount: 2
Fore
SplineSet
245 895 m 1,0,-1
 374 895 l 1,1,-1
 374 891 l 1,2,-1
 233 750 l 1,3,-1
 132 750 l 1,4,-1
 245 895 l 1,0,-1
116 720 m 1,5,-1
 262 720 l 1,6,-1
 161 0 l 1,7,-1
 15 0 l 1,8,-1
 116 720 l 1,5,-1
EndSplineSet
EndChar

StartChar: lcaron
Encoding: 149 318 149
Width: 279
GlyphClass: 2
Flags: MW
HStem: 0 21G<15 161 15 15> 539 147<352 394 331 498> 539 181<116 394 116 331>
VStem: 15 483
AnchorPoint: "Bottom" 104 0 basechar 0
LayerCount: 2
Fore
SplineSet
116 720 m 1,0,-1
 262 720 l 1,1,-1
 161 0 l 1,2,-1
 15 0 l 1,3,-1
 116 720 l 1,0,-1
394 539 m 1,4,-1
 331 539 l 1,5,-1
 352 686 l 1,6,-1
 498 686 l 1,7,-1
 481 563 l 1,8,-1
 415 395 l 1,9,-1
 342 395 l 1,10,-1
 394 539 l 1,4,-1
EndSplineSet
EndChar

StartChar: lcommaaccent
Encoding: 150 316 150
Width: 279
GlyphClass: 2
Flags: MW
HStem: -167 137<32 76 13 178> 0 21G<15 161 15 15>
VStem: 13 249
AnchorPoint: "Bottom" 104 0 basechar 0
LayerCount: 2
Fore
SplineSet
116 720 m 1,0,-1
 262 720 l 1,1,-1
 161 0 l 1,2,-1
 15 0 l 1,3,-1
 116 720 l 1,0,-1
76 -167 m 1,4,-1
 13 -167 l 1,5,-1
 32 -30 l 1,6,-1
 178 -30 l 1,7,-1
 162 -143 l 1,8,-1
 122 -250 l 1,9,-1
 48 -250 l 1,10,-1
 76 -167 l 1,4,-1
EndSplineSet
EndChar

StartChar: lslash
Encoding: 151 322 151
Width: 279
GlyphClass: 2
Flags: MW
HStem: 0 21G<15 161 15 15>
VStem: -16 318<268 500>
LayerCount: 2
Fore
SplineSet
-16 268 m 1,0,-1
 -4 355 l 1,1,2
 10 362 10 362 70 390 c 1,3,-1
 116 720 l 1,4,-1
 262 720 l 1,5,-1
 226 464 l 1,6,-1
 302 500 l 1,7,-1
 290 412 l 1,8,-1
 214 377 l 1,9,-1
 161 0 l 1,10,-1
 15 0 l 1,11,-1
 57 303 l 1,12,13
 30 291 30 291 12 282 c 2,14,15
 -16 268 l 1,0,-1
EndSplineSet
EndChar

StartChar: m
Encoding: 152 109 152
Width: 870
GlyphClass: 2
Flags: MW
HStem: 0 21G<29 175 29 29 326 472 326 326 623 769 623 623> 415 106<292 410> 491 20G<101 211 211 211>
VStem: 29 792<0 430> 670 151<370 370.5>
LayerCount: 2
Fore
SplineSet
821 386 m 2,0,-1
 821 371.5 l 2,1,2
 821 364 821 364 769 0 c 1,3,-1
 623 0 l 1,4,5
 670 336 670 336 670 349 c 0,6,7
 670 415 670 415 613 415 c 0,8,9
 578 415 578 415 550 387 c 128,-1,10
 522 359 522 359 516 317 c 2,11,-1
 472 0 l 1,12,-1
 326 0 l 1,13,14
 373 335 373 335 373 358 c 128,-1,15
 373 381 373 381 357.5 398 c 128,-1,16
 342 415 342 415 311 415 c 128,-1,17
 280 415 280 415 252.5 387 c 128,-1,18
 225 359 225 359 219 317 c 2,19,-1
 175 0 l 1,20,-1
 29 0 l 1,21,-1
 101 511 l 1,22,-1
 211 511 l 1,23,24
 215 461 215 461 216 436 c 1,25,26
 282 521 282 521 378 521 c 0,27,28
 427 521 427 521 463.5 500 c 128,-1,29
 500 479 500 479 515 439 c 1,30,31
 579 521 579 521 675 521 c 0,32,33
 740 521 740 521 780.5 485.5 c 128,-1,34
 821 450 821 450 821 386 c 2,0,-1
EndSplineSet
EndChar

StartChar: n
Encoding: 153 110 153
Width: 597
GlyphClass: 2
Flags: MW
HStem: 0 21G<29 175 29 29 350 496 350 350> 415 106<302.5 434.5> 491 20G<101 210 210 210>
VStem: 29 519<0 431.5> 397 151<335.5 431.5>
AnchorPoint: "Bottom" 263 0 basechar 0
LayerCount: 2
Fore
SplineSet
210 511 m 1,0,-1
 215 436 l 1,1,2
 290 521 290 521 390 521 c 0,3,4
 460 521 460 521 504 486.5 c 128,-1,5
 548 452 548 452 548 386 c 0,6,7
 548 374 548 374 496 0 c 1,8,-1
 350 0 l 1,9,10
 397 330 397 330 397 340 c 0,11,12
 397 373 397 373 378 394 c 128,-1,13
 359 415 359 415 324 415 c 0,14,15
 289 415 289 415 257 385.5 c 128,-1,16
 225 356 225 356 219 314 c 2,17,-1
 175 0 l 1,18,-1
 29 0 l 1,19,-1
 101 511 l 1,20,-1
 210 511 l 1,0,-1
EndSplineSet
EndChar

StartChar: nacute
Encoding: 154 324 154
Width: 597
GlyphClass: 2
Flags: MW
HStem: 0 21G<29 175 29 29 350 496 350 350> 415 106<302.5 434.5> 491 20G<101 210 210 210> 575 145<253 495 253 495>
VStem: 29 519<0 431.5> 397 151<335.5 431.5>
AnchorPoint: "Bottom" 263 0 basechar 0
LayerCount: 2
Fore
SplineSet
366 720 m 1,0,-1
 495 720 l 1,1,-1
 495 716 l 1,2,-1
 354 575 l 1,3,-1
 253 575 l 1,4,-1
 366 720 l 1,0,-1
210 511 m 1,5,-1
 215 436 l 1,6,7
 290 521 290 521 390 521 c 0,8,9
 460 521 460 521 504 486.5 c 128,-1,10
 548 452 548 452 548 386 c 0,11,12
 548 374 548 374 496 0 c 1,13,-1
 350 0 l 1,14,15
 397 330 397 330 397 340 c 0,16,17
 397 373 397 373 378 394 c 128,-1,18
 359 415 359 415 324 415 c 0,19,20
 289 415 289 415 257 385.5 c 128,-1,21
 225 356 225 356 219 314 c 2,22,-1
 175 0 l 1,23,-1
 29 0 l 1,24,-1
 101 511 l 1,25,-1
 210 511 l 1,5,-1
EndSplineSet
EndChar

StartChar: ncaron
Encoding: 155 328 155
Width: 597
GlyphClass: 2
Flags: MW
HStem: 0 21G<29 175 29 29 350 496 350 350> 415 106<302.5 434.5> 491 20G<101 210 210 210> 575 145<165 385 165 282>
VStem: 29 519<0 431.5> 397 151<335.5 431.5>
AnchorPoint: "Bottom" 263 0 basechar 0
LayerCount: 2
Fore
SplineSet
543 720 m 1,0,-1
 385 575 l 1,1,-1
 282 575 l 1,2,-1
 165 720 l 1,3,-1
 270 720 l 1,4,-1
 343 637 l 1,5,-1
 439 720 l 1,6,-1
 543 720 l 1,0,-1
210 511 m 1,7,-1
 215 436 l 1,8,9
 290 521 290 521 390 521 c 0,10,11
 460 521 460 521 504 486.5 c 128,-1,12
 548 452 548 452 548 386 c 0,13,14
 548 374 548 374 496 0 c 1,15,-1
 350 0 l 1,16,17
 397 330 397 330 397 340 c 0,18,19
 397 373 397 373 378 394 c 128,-1,20
 359 415 359 415 324 415 c 128,-1,21
 289 415 289 415 257 385.5 c 128,-1,22
 225 356 225 356 219 314 c 2,23,-1
 175 0 l 1,24,-1
 29 0 l 1,25,-1
 101 511 l 1,26,-1
 210 511 l 1,7,-1
EndSplineSet
EndChar

StartChar: ncommaaccent
Encoding: 156 326 156
Width: 597
GlyphClass: 2
Flags: MW
HStem: -167 137<191 235 172 337> 0 21G<29 175 29 29 350 496 350 350> 415 106<302.5 434.5> 491 20G<101 210 210 210>
VStem: 29 519<0 431.5> 397 151<335.5 431.5>
AnchorPoint: "Bottom" 263 0 basechar 0
LayerCount: 2
Fore
SplineSet
210 511 m 1,0,-1
 215 436 l 1,1,2
 290 521 290 521 390 521 c 0,3,4
 460 521 460 521 504 486.5 c 128,-1,5
 548 452 548 452 548 386 c 0,6,7
 548 374 548 374 496 0 c 1,8,-1
 350 0 l 1,9,10
 397 330 397 330 397 340 c 0,11,12
 397 373 397 373 378 394 c 128,-1,13
 359 415 359 415 324 415 c 0,14,15
 289 415 289 415 257 385.5 c 128,-1,16
 225 356 225 356 219 314 c 2,17,-1
 175 0 l 1,18,-1
 29 0 l 1,19,-1
 101 511 l 1,20,-1
 210 511 l 1,0,-1
235 -167 m 1,21,-1
 172 -167 l 1,22,-1
 191 -30 l 1,23,-1
 337 -30 l 1,24,-1
 321 -143 l 1,25,-1
 281 -250 l 1,26,-1
 207 -250 l 1,27,-1
 235 -167 l 1,21,-1
EndSplineSet
EndChar

StartChar: ntilde
Encoding: 157 241 157
Width: 598
GlyphClass: 2
Flags: MW
HStem: 0 21G<29 175 29 29 350 496 350 350> 415 106<302.5 434.5> 491 20G<101 210 210 210> 596 86<414 455 414 460> 633 87<241 282>
VStem: 29 535 397 151<335.5 431.5>
LayerCount: 2
Fore
SplineSet
499 720 m 1,0,-1
 564 720 l 1,1,2
 558 672 558 672 517.5 634 c 128,-1,3
 477 596 477 596 421 596 c 0,4,5
 388 596 388 596 334.5 614.5 c 128,-1,6
 281 633 281 633 255 633 c 0,7,8
 214 633 214 633 198 596 c 1,9,-1
 133 596 l 1,10,11
 139 643 139 643 179.5 681.5 c 128,-1,12
 220 720 220 720 276 720 c 0,13,14
 309 720 309 720 362 701 c 128,-1,15
 415 682 415 682 441 682 c 0,16,17
 482 682 482 682 499 720 c 1,0,-1
210 511 m 1,18,-1
 215 436 l 1,19,20
 290 521 290 521 390 521 c 0,21,22
 460 521 460 521 504 486.5 c 128,-1,23
 548 452 548 452 548 386 c 0,24,25
 548 374 548 374 496 0 c 1,26,-1
 350 0 l 1,27,28
 397 330 397 330 397 340 c 0,29,30
 397 373 397 373 378 394 c 128,-1,31
 359 415 359 415 324 415 c 0,32,33
 289 415 289 415 257 385.5 c 128,-1,34
 225 356 225 356 219 314 c 2,35,-1
 175 0 l 1,36,-1
 29 0 l 1,37,-1
 101 511 l 1,38,-1
 210 511 l 1,18,-1
EndSplineSet
EndChar

StartChar: o
Encoding: 158 111 158
Width: 602
GlyphClass: 2
Flags: MW
HStem: -10 100<249.5 255 255 271> 421 100<330 346 346 351.5>
VStem: 37 146<155 192 155 294> 418 146<319 356>
LayerCount: 2
Fore
SplineSet
564 314 m 0,0,1
 564 171 564 171 487 80.5 c 128,-1,2
 410 -10 410 -10 271 -10 c 2,3,-1
 255 -10 l 2,4,5
 157 -10 157 -10 97 45 c 128,-1,6
 37 100 37 100 37 197 c 0,7,8
 37 344 37 344 116 432.5 c 128,-1,9
 195 521 195 521 330 521 c 2,10,-1
 346 521 l 2,11,12
 443 521 443 521 503.5 466 c 128,-1,13
 564 411 564 411 564 314 c 0,0,1
405 215 m 0,14,15
 418 314 418 314 418 323 c 0,16,17
 418 371 418 371 392.5 396 c 128,-1,18
 367 421 367 421 321 421 c 0,19,20
 275 421 275 421 239.5 388.5 c 128,-1,21
 204 356 204 356 196 296 c 0,22,23
 183 197 183 197 183 188 c 0,24,25
 183 140 183 140 208.5 115 c 128,-1,26
 234 90 234 90 279.5 90 c 0,27,28
 325 90 325 90 360.5 122.5 c 128,-1,29
 396 155 396 155 405 215 c 0,14,15
EndSplineSet
Substitution2: "Single Substitution lookup 5 subtable" ordmasculine
Substitution2: "'aalt' Access All Alternates lookup 0 subtable" ordmasculine
EndChar

StartChar: oacute
Encoding: 159 243 159
Width: 606
GlyphClass: 2
Flags: MW
HStem: -10 100<251.5 257 257 273> 421 100<332 348 348 353.5> 575 145<287 529 287 529>
VStem: 39 146<155 192 155 294> 420 146<319 356>
LayerCount: 2
Fore
SplineSet
400 720 m 1,0,-1
 529 720 l 1,1,-1
 529 716 l 1,2,-1
 388 575 l 1,3,-1
 287 575 l 1,4,-1
 400 720 l 1,0,-1
566 314 m 0,5,6
 566 171 566 171 489 80.5 c 128,-1,7
 412 -10 412 -10 273 -10 c 2,8,-1
 257 -10 l 2,9,10
 159 -10 159 -10 99 45 c 128,-1,11
 39 100 39 100 39 197 c 0,12,13
 39 344 39 344 118 432.5 c 128,-1,14
 197 521 197 521 332 521 c 2,15,-1
 348 521 l 2,16,17
 445 521 445 521 505.5 466 c 128,-1,18
 566 411 566 411 566 314 c 0,5,6
407 215 m 0,19,20
 420 314 420 314 420 323 c 0,21,22
 420 371 420 371 394.5 396 c 128,-1,23
 369 421 369 421 323 421 c 0,24,25
 277 421 277 421 241.5 388.5 c 128,-1,26
 206 356 206 356 198 296 c 0,27,28
 185 197 185 197 185 188 c 0,29,30
 185 140 185 140 210.5 115 c 128,-1,31
 236 90 236 90 281.5 90 c 0,32,33
 327 90 327 90 362.5 122.5 c 128,-1,34
 398 155 398 155 407 215 c 0,19,20
EndSplineSet
EndChar

StartChar: ocircumflex
Encoding: 160 244 160
Width: 606
GlyphClass: 2
Flags: MW
HStem: -10 100<251.5 257 257 273> 421 100<332 348 348 353.5> 575 145<154 416 313 532 313 427>
VStem: 39 146<155 192 155 294> 420 146<319 356>
LayerCount: 2
Fore
SplineSet
313 720 m 1,0,-1
 416 720 l 1,1,2
 485 633 485 633 532 575 c 1,3,-1
 427 575 l 1,4,-1
 355 658 l 1,5,-1
 258 575 l 1,6,-1
 154 575 l 1,7,-1
 313 720 l 1,0,-1
566 314 m 0,8,9
 566 171 566 171 489 80.5 c 128,-1,10
 412 -10 412 -10 273 -10 c 2,11,-1
 257 -10 l 2,12,13
 159 -10 159 -10 99 45 c 128,-1,14
 39 100 39 100 39 197 c 0,15,16
 39 344 39 344 118 432.5 c 128,-1,17
 197 521 197 521 332 521 c 2,18,-1
 348 521 l 2,19,20
 445 521 445 521 505.5 466 c 128,-1,21
 566 411 566 411 566 314 c 0,8,9
407 215 m 0,22,23
 420 314 420 314 420 323 c 0,24,25
 420 371 420 371 394.5 396 c 128,-1,26
 369 421 369 421 323 421 c 0,27,28
 277 421 277 421 241.5 388.5 c 128,-1,29
 206 356 206 356 198 296 c 0,30,31
 185 197 185 197 185 188 c 0,32,33
 185 140 185 140 210.5 115 c 128,-1,34
 236 90 236 90 281.5 90 c 0,35,36
 327 90 327 90 362.5 122.5 c 128,-1,37
 398 155 398 155 407 215 c 0,22,23
EndSplineSet
EndChar

StartChar: odieresis
Encoding: 161 246 161
Width: 606
GlyphClass: 2
Flags: MW
HStem: -10 100<251.5 257 257 273> 421 100<332 348 348 353.5> 598 122<199 303 182 320 199 386 403 507>
VStem: 39 146<155 192 155 294> 420 146<319 356>
LayerCount: 2
Fore
SplineSet
320 720 m 1,0,-1
 303 598 l 1,1,-1
 182 598 l 1,2,-1
 199 720 l 1,3,-1
 320 720 l 1,0,-1
524 720 m 1,4,-1
 507 598 l 1,5,-1
 386 598 l 1,6,-1
 403 720 l 1,7,-1
 524 720 l 1,4,-1
566 314 m 0,8,9
 566 171 566 171 489 80.5 c 128,-1,10
 412 -10 412 -10 273 -10 c 2,11,-1
 257 -10 l 2,12,13
 159 -10 159 -10 99 45 c 128,-1,14
 39 100 39 100 39 197 c 0,15,16
 39 344 39 344 118 432.5 c 128,-1,17
 197 521 197 521 332 521 c 2,18,-1
 348 521 l 2,19,20
 445 521 445 521 505.5 466 c 128,-1,21
 566 411 566 411 566 314 c 0,8,9
407 215 m 0,22,23
 420 314 420 314 420 323 c 0,24,25
 420 371 420 371 394.5 396 c 128,-1,26
 369 421 369 421 323 421 c 0,27,28
 277 421 277 421 241.5 388.5 c 128,-1,29
 206 356 206 356 198 296 c 0,30,31
 185 197 185 197 185 188 c 0,32,33
 185 140 185 140 210.5 115 c 128,-1,34
 236 90 236 90 281.5 90 c 0,35,36
 327 90 327 90 362.5 122.5 c 128,-1,37
 398 155 398 155 407 215 c 0,22,23
EndSplineSet
EndChar

StartChar: ograve
Encoding: 162 242 162
Width: 606
GlyphClass: 2
Flags: MW
HStem: -10 100<251.5 257 257 273> 421 100<332 348 348 353.5> 575 145<298 328 200 400 298 298>
VStem: 39 146<155 192 155 294> 420 146<319 356>
LayerCount: 2
Fore
SplineSet
198 717 m 1,0,-1
 200 720 l 1,1,-1
 328 720 l 1,2,-1
 400 575 l 1,3,-1
 298 575 l 1,4,-1
 198 717 l 1,0,-1
566 314 m 0,5,6
 566 171 566 171 489 80.5 c 128,-1,7
 412 -10 412 -10 273 -10 c 2,8,-1
 257 -10 l 2,9,10
 159 -10 159 -10 99 45 c 128,-1,11
 39 100 39 100 39 197 c 0,12,13
 39 344 39 344 118 432.5 c 128,-1,14
 197 521 197 521 332 521 c 2,15,-1
 348 521 l 2,16,17
 445 521 445 521 505.5 466 c 128,-1,18
 566 411 566 411 566 314 c 0,5,6
407 215 m 0,19,20
 420 314 420 314 420 323 c 0,21,22
 420 371 420 371 394.5 396 c 128,-1,23
 369 421 369 421 323 421 c 0,24,25
 277 421 277 421 241.5 388.5 c 128,-1,26
 206 356 206 356 198 296 c 0,27,28
 185 197 185 197 185 188 c 0,29,30
 185 140 185 140 210.5 115 c 128,-1,31
 236 90 236 90 281.5 90 c 0,32,33
 327 90 327 90 362.5 122.5 c 128,-1,34
 398 155 398 155 407 215 c 0,19,20
EndSplineSet
EndChar

StartChar: ohungarumlaut
Encoding: 163 337 163
Width: 602
GlyphClass: 2
Flags: MW
HStem: -10 100<249.5 255 255 271> 421 100<330 346 346 351.5> 575 145<149 391 149 391 340 340 340 391 263 442>
VStem: 37 146<155 192 155 294> 418 146<319 356>
LayerCount: 2
Fore
SplineSet
263 720 m 1,0,-1
 391 720 l 1,1,-1
 392 717 l 1,2,-1
 251 575 l 1,3,-1
 149 575 l 1,4,-1
 263 720 l 1,0,-1
454 720 m 1,5,-1
 582 720 l 1,6,-1
 583 717 l 1,7,-1
 442 575 l 1,8,-1
 340 575 l 1,9,-1
 454 720 l 1,5,-1
564 314 m 0,10,11
 564 171 564 171 487 80.5 c 128,-1,12
 410 -10 410 -10 271 -10 c 2,13,-1
 255 -10 l 2,14,15
 157 -10 157 -10 97 45 c 128,-1,16
 37 100 37 100 37 197 c 0,17,18
 37 344 37 344 116 432.5 c 128,-1,19
 195 521 195 521 330 521 c 2,20,-1
 346 521 l 2,21,22
 443 521 443 521 503.5 466 c 128,-1,23
 564 411 564 411 564 314 c 0,10,11
405 215 m 0,24,25
 418 314 418 314 418 323 c 0,26,27
 418 371 418 371 392.5 396 c 128,-1,28
 367 421 367 421 321 421 c 0,29,30
 275 421 275 421 239.5 388.5 c 128,-1,31
 204 356 204 356 196 296 c 0,32,33
 183 197 183 197 183 188 c 0,34,35
 183 140 183 140 208.5 115 c 128,-1,36
 234 90 234 90 279.5 90 c 0,37,38
 325 90 325 90 360.5 122.5 c 128,-1,39
 396 155 396 155 405 215 c 0,24,25
EndSplineSet
EndChar

StartChar: omacron
Encoding: 164 333 164
Width: 602
GlyphClass: 2
Flags: MW
HStem: -10 100<249.5 255 255 271> 421 100<330 346 346 351.5> 662 74<210 517 199 528>
VStem: 37 146<155 192 155 294> 418 146<319 356>
LayerCount: 2
Fore
SplineSet
210 736 m 1,0,-1
 528 736 l 1,1,-1
 517 662 l 1,2,-1
 199 662 l 1,3,-1
 210 736 l 1,0,-1
564 314 m 0,4,5
 564 171 564 171 487 80.5 c 128,-1,6
 410 -10 410 -10 271 -10 c 2,7,-1
 255 -10 l 2,8,9
 157 -10 157 -10 97 45 c 128,-1,10
 37 100 37 100 37 197 c 0,11,12
 37 344 37 344 116 432.5 c 128,-1,13
 195 521 195 521 330 521 c 2,14,-1
 346 521 l 2,15,16
 443 521 443 521 503.5 466 c 128,-1,17
 564 411 564 411 564 314 c 0,4,5
405 215 m 0,18,19
 418 314 418 314 418 323 c 0,20,21
 418 371 418 371 392.5 396 c 128,-1,22
 367 421 367 421 321 421 c 0,23,24
 275 421 275 421 239.5 388.5 c 128,-1,25
 204 356 204 356 196 296 c 0,26,27
 183 197 183 197 183 188 c 0,28,29
 183 140 183 140 208.5 115 c 128,-1,30
 234 90 234 90 279.5 90 c 0,31,32
 325 90 325 90 360.5 122.5 c 128,-1,33
 396 155 396 155 405 215 c 0,18,19
EndSplineSet
EndChar

StartChar: oslash
Encoding: 165 248 165
Width: 606
GlyphClass: 2
Flags: MW
HStem: -10 100<235.5 307 266.5 271> 421 100<330 335>
VStem: 37 146<181.5 192 181.5 294> 418 146<319 328.5>
LayerCount: 2
Fore
SplineSet
453 499 m 1,0,-1
 505 568 l 1,1,-1
 580 568 l 1,2,-1
 502 467 l 1,3,4
 564 410 564 410 564 314 c 0,5,6
 564 171 564 171 487 80.5 c 128,-1,7
 410 -10 410 -10 271 -10 c 2,8,-1
 255 -10 l 2,9,10
 198 -10 198 -10 150 10 c 1,11,-1
 100 -55 l 1,12,-1
 25 -55 l 1,13,14
 86 25 86 25 100 42 c 1,15,16
 37 99 37 99 37 197 c 0,17,18
 37 344 37 344 116 432.5 c 128,-1,19
 195 521 195 521 330 521 c 2,20,-1
 346 521 l 2,21,22
 404 521 404 521 453 499 c 1,0,-1
187 154 m 1,23,-1
 380 405 l 1,24,25
 356 421 356 421 315.5 421 c 128,-1,26
 275 421 275 421 239.5 388.5 c 128,-1,27
 204 356 204 356 196 296 c 0,28,29
 183 197 183 197 183 182 c 128,-1,30
 183 167 183 167 187 154 c 1,23,-1
405 215 m 0,31,32
 418 314 418 314 418 324.5 c 128,-1,33
 418 335 418 335 414 353 c 1,34,-1
 222 104 l 1,35,36
 243 90 243 90 284 90 c 128,-1,37
 325 90 325 90 360.5 122.5 c 128,-1,38
 396 155 396 155 405 215 c 0,31,32
EndSplineSet
EndChar

StartChar: otilde
Encoding: 166 245 166
Width: 606
GlyphClass: 2
Flags: MW
HStem: -10 100<251.5 257 257 273> 421 100<332 348 348 353.5> 596 86<417 458 417 463> 633 87<244 285>
VStem: 39 146<155 192 155 294> 420 146<319 356>
LayerCount: 2
Fore
SplineSet
502 720 m 1,0,-1
 567 720 l 1,1,2
 561 672 561 672 520.5 634 c 128,-1,3
 480 596 480 596 424 596 c 0,4,5
 391 596 391 596 337.5 614.5 c 128,-1,6
 284 633 284 633 258 633 c 0,7,8
 217 633 217 633 201 596 c 1,9,-1
 136 596 l 1,10,11
 142 643 142 643 182.5 681.5 c 128,-1,12
 223 720 223 720 279 720 c 0,13,14
 312 720 312 720 365 701 c 128,-1,15
 418 682 418 682 444 682 c 0,16,17
 485 682 485 682 502 720 c 1,0,-1
566 314 m 0,18,19
 566 171 566 171 489 80.5 c 128,-1,20
 412 -10 412 -10 273 -10 c 2,21,-1
 257 -10 l 2,22,23
 159 -10 159 -10 99 45 c 128,-1,24
 39 100 39 100 39 197 c 0,25,26
 39 344 39 344 118 432.5 c 128,-1,27
 197 521 197 521 332 521 c 2,28,-1
 348 521 l 2,29,30
 445 521 445 521 505.5 466 c 128,-1,31
 566 411 566 411 566 314 c 0,18,19
407 215 m 0,32,33
 420 314 420 314 420 323 c 0,34,35
 420 371 420 371 394.5 396 c 128,-1,36
 369 421 369 421 323 421 c 0,37,38
 277 421 277 421 241.5 388.5 c 128,-1,39
 206 356 206 356 198 296 c 0,40,41
 185 197 185 197 185 188 c 0,42,43
 185 140 185 140 210.5 115 c 128,-1,44
 236 90 236 90 281.5 90 c 0,45,46
 327 90 327 90 362.5 122.5 c 128,-1,47
 398 155 398 155 407 215 c 0,32,33
EndSplineSet
EndChar

StartChar: oe
Encoding: 167 339 167
Width: 946
GlyphClass: 2
Flags: MW
HStem: -10 100<249.5 255 255 271 608 617 617 633> 231 80<560 762 560 899 549 762> 421 100<330 346 346 351.5 692 708 708 710>
VStem: 37 146<155 192 155 294> 764 148<334.5 362.5>
LayerCount: 2
Fore
SplineSet
330 521 m 2,0,-1
 346 521 l 2,1,2
 449 521 449 521 510 460 c 1,3,4
 585 521 585 521 692 521 c 2,5,-1
 708 521 l 2,6,7
 795 521 795 521 853.5 472.5 c 128,-1,8
 912 424 912 424 912 340 c 0,9,10
 912 329 912 329 910 307 c 1,11,-1
 899 231 l 1,12,-1
 549 231 l 1,13,14
 544 211 544 211 544 177 c 0,15,16
 544 143 544 143 569 116.5 c 128,-1,17
 594 90 594 90 639.5 90 c 0,18,19
 685 90 685 90 715 115.5 c 128,-1,20
 745 141 745 141 752 191 c 1,21,-1
 892 191 l 1,22,23
 879 92 879 92 804.5 41 c 128,-1,24
 730 -10 730 -10 633 -10 c 2,25,-1
 617 -10 l 2,26,27
 513 -10 513 -10 454 49 c 1,28,29
 381 -10 381 -10 271 -10 c 2,30,-1
 255 -10 l 2,31,32
 157 -10 157 -10 97 45 c 128,-1,33
 37 100 37 100 37 197 c 0,34,35
 37 344 37 344 116 432.5 c 128,-1,36
 195 521 195 521 330 521 c 2,0,-1
405 215 m 0,37,38
 418 314 418 314 418 323 c 0,39,40
 418 371 418 371 392.5 396 c 128,-1,41
 367 421 367 421 321 421 c 0,42,43
 275 421 275 421 239.5 388.5 c 128,-1,44
 204 356 204 356 196 296 c 0,45,46
 183 197 183 197 183 188 c 0,47,48
 183 140 183 140 208.5 115 c 128,-1,49
 234 90 234 90 279.5 90 c 0,50,51
 325 90 325 90 360.5 122.5 c 128,-1,52
 396 155 396 155 405 215 c 0,37,38
679 421 m 0,53,54
 635 421 635 421 603 390 c 128,-1,55
 571 359 571 359 560 311 c 1,56,-1
 762 311 l 1,57,58
 764 329 764 329 764 338 c 0,59,60
 764 421 764 421 679 421 c 0,53,54
EndSplineSet
EndChar

StartChar: p
Encoding: 168 112 168
Width: 595
GlyphClass: 2
Flags: MW
HStem: -181 21G<16 162 16 16> -10 106<294 324.5 273.5 414.5> 421 100<355.5 367> 491 20G<113 228 228 228>
VStem: 424 144<323.5 359>
LayerCount: 2
Fore
SplineSet
113 511 m 1,0,-1
 228 511 l 1,1,2
 234 449 234 449 234 447 c 1,3,4
 301 521 301 521 385.5 521 c 128,-1,5
 470 521 470 521 519 470 c 128,-1,6
 568 419 568 419 568 319 c 0,7,8
 568 196.296296296 568 196.296296296 513 97.5 c 0,9,10
 486 49 486 49 438 19.5 c 128,-1,11
 390 -10 390 -10 329 -10 c 0,12,13
 238 -10 238 -10 196 59 c 1,14,-1
 162 -181 l 1,15,-1
 16 -181 l 1,16,-1
 113 511 l 1,0,-1
230 300 m 0,17,18
 216 200 216 200 216 189 c 0,19,20
 216 144 216 144 238 120 c 128,-1,21
 260 96 260 96 300 96 c 128,-1,22
 340 96 340 96 370.5 127 c 128,-1,23
 401 158 401 158 410 217 c 0,24,25
 424 317 424 317 424 328 c 0,26,27
 424 373 424 373 402 397 c 128,-1,28
 380 421 380 421 340.5 421 c 128,-1,29
 301 421 301 421 270 390 c 128,-1,30
 239 359 239 359 230 300 c 0,17,18
EndSplineSet
EndChar

StartChar: thorn
Encoding: 169 254 169
Width: 597
GlyphClass: 2
Flags: MW
HStem: -181 21G<2 148 2 2> -10 106<280 310 259 400.5> 421 100<346.5 352.5>
VStem: 410 144<323.5 359>
LayerCount: 2
Fore
SplineSet
275 720 m 1,0,-1
 239 466 l 1,1,2
 299 521 299 521 377.5 521 c 0,3,4
 456 521 456 521 505 470 c 128,-1,5
 554 419 554 419 554 328.5 c 0,6,7
 554 238 554 238 531 166 c 128,-1,8
 508 94 508 94 452 42 c 128,-1,9
 396 -10 396 -10 310 -10 c 0,10,11
 224 -10 224 -10 182 59 c 1,12,-1
 148 -181 l 1,13,-1
 2 -181 l 1,14,-1
 129 720 l 1,15,-1
 275 720 l 1,0,-1
396 217 m 0,16,17
 410 317 410 317 410 328 c 0,18,19
 410 373 410 373 388 397 c 128,-1,20
 366 421 366 421 326 421 c 0,21,22
 286 421 286 421 255.5 390 c 128,-1,23
 225 359 225 359 216 300 c 0,24,25
 202 200 202 200 202 189 c 0,26,27
 202 144 202 144 224 120 c 128,-1,28
 246 96 246 96 285.5 96 c 0,29,30
 325 96 325 96 356 127 c 128,-1,31
 387 158 387 158 396 217 c 0,16,17
EndSplineSet
EndChar

StartChar: q
Encoding: 170 113 170
Width: 595
GlyphClass: 2
Flags: MW
HStem: -180 21G<332 332 332 478> -10 106<165.5 302.5> 421 100<294 340 213 345> 491 20G<522 575 575 575>
VStem: 48 146<158 193.5 158 265.5>
LayerCount: 2
Fore
SplineSet
332 -180 m 1,0,-1
 366 59 l 1,1,2
 303 -10 303 -10 213 -10 c 0,3,4
 139 -10 139 -10 93.5 41 c 128,-1,5
 48 92 48 92 48 187 c 0,6,7
 48 312.661016949 48 312.661016949 107.5 412.5 c 0,8,9
 137 462 137 462 187.5 491.5 c 128,-1,10
 238 521 238 521 303 521 c 0,11,12
 414 521 414 521 460 433 c 1,13,-1
 522 511 l 1,14,-1
 575 511 l 1,15,-1
 478 -180 l 1,16,-1
 332 -180 l 1,0,-1
208 300 m 0,17,18
 194 200 194 200 194 189 c 0,19,20
 194 144 194 144 216 120 c 128,-1,21
 238 96 238 96 278 96 c 128,-1,22
 318 96 318 96 348.5 127 c 128,-1,23
 379 158 379 158 388 217 c 0,24,25
 402 317 402 317 402 328 c 0,26,27
 402 373 402 373 380 397 c 128,-1,28
 358 421 358 421 318.5 421 c 128,-1,29
 279 421 279 421 248 390 c 128,-1,30
 217 359 217 359 208 300 c 0,17,18
EndSplineSet
EndChar

StartChar: r
Encoding: 171 114 171
Width: 489
GlyphClass: 2
Flags: MW
HStem: 0 21G<29 173 29 29> 313 208<360 412.5 323 482 360 360> 412 99<101 326> 412 109<323 326>
VStem: 29 466<0 433> 364 131<348.5 433>
AnchorPoint: "Bottom" 101 0 basechar 0
LayerCount: 2
Fore
SplineSet
482 313 m 1,0,-1
 360 313 l 1,1,2
 364 341 364 341 364 351 c 0,3,4
 364 412 364 412 303 412 c 0,5,6
 267 412 267 412 245 384.5 c 128,-1,7
 223 357 223 357 217 316 c 2,8,-1
 173 0 l 1,9,-1
 29 0 l 1,10,-1
 101 511 l 1,11,-1
 209 511 l 1,12,-1
 216 436 l 1,13,14
 234.996610169 470.827118644 234.996610169 470.827118644 281.498305085 495.913559322 c 128,-1,15
 328 521 328 521 380 521 c 128,-1,16
 432 521 432 521 463.5 487 c 128,-1,17
 495 453 495 453 495 396 c 0,18,19
 495 382 495 382 490 351.5 c 128,-1,20
 485 321 485 321 482 313 c 1,0,-1
EndSplineSet
EndChar

StartChar: racute
Encoding: 172 341 172
Width: 489
GlyphClass: 2
Flags: MW
HStem: 0 21G<29 173 29 29> 313 208<360 412.5 323 482 360 360> 412 99<101 326> 412 109<323 326> 575 145<199 441 199 441>
VStem: 29 466<0 433> 364 131<348.5 433>
AnchorPoint: "Bottom" 101 0 basechar 0
LayerCount: 2
Fore
SplineSet
312 720 m 1,0,-1
 441 720 l 1,1,-1
 441 716 l 1,2,-1
 300 575 l 1,3,-1
 199 575 l 1,4,-1
 312 720 l 1,0,-1
482 313 m 1,5,-1
 360 313 l 1,6,7
 364 341 364 341 364 351 c 0,8,9
 364 412 364 412 303 412 c 0,10,11
 267 412 267 412 245 384.5 c 128,-1,12
 223 357 223 357 217 316 c 2,13,-1
 173 0 l 1,14,-1
 29 0 l 1,15,-1
 101 511 l 1,16,-1
 209 511 l 1,17,-1
 216 436 l 1,18,19
 234.996610169 470.827118644 234.996610169 470.827118644 281.498305085 495.913559322 c 128,-1,20
 328 521 328 521 380 521 c 128,-1,21
 432 521 432 521 463.5 487 c 128,-1,22
 495 453 495 453 495 396 c 0,23,24
 495 382 495 382 490 351.5 c 128,-1,25
 485 321 485 321 482 313 c 1,5,-1
EndSplineSet
EndChar

StartChar: rcaron
Encoding: 173 345 173
Width: 489
GlyphClass: 2
Flags: MW
HStem: 0 21G<29 173 29 29> 313 208<360 412.5 323 482 360 360> 412 99<101 326> 412 109<323 326> 575 145<111 331 111 228>
VStem: 29 466<0 433> 364 131<348.5 433>
AnchorPoint: "Bottom" 101 0 basechar 0
LayerCount: 2
Fore
SplineSet
489 720 m 1,0,-1
 331 575 l 1,1,-1
 228 575 l 1,2,-1
 111 720 l 1,3,-1
 216 720 l 1,4,-1
 289 637 l 1,5,-1
 385 720 l 1,6,-1
 489 720 l 1,0,-1
482 313 m 1,7,-1
 360 313 l 1,8,9
 364 341 364 341 364 351 c 0,10,11
 364 412 364 412 303 412 c 0,12,13
 267 412 267 412 245 384.5 c 128,-1,14
 223 357 223 357 217 316 c 2,15,-1
 173 0 l 1,16,-1
 29 0 l 1,17,-1
 101 511 l 1,18,-1
 209 511 l 1,19,-1
 216 436 l 1,20,21
 234.996610169 470.827118644 234.996610169 470.827118644 281.498305085 495.913559322 c 128,-1,22
 328 521 328 521 380 521 c 128,-1,23
 432 521 432 521 463.5 487 c 128,-1,24
 495 453 495 453 495 396 c 0,25,26
 495 382 495 382 490 351.5 c 128,-1,27
 485 321 485 321 482 313 c 1,7,-1
EndSplineSet
EndChar

StartChar: rcommaaccent
Encoding: 174 343 174
Width: 489
GlyphClass: 2
Flags: MW
HStem: -167 137<29 73 10 175> 0 21G<29 173 29 29> 313 208<360 412.5 323 482 360 360> 412 99<101 326> 412 109<323 326>
VStem: 10 485 364 131<348.5 433>
AnchorPoint: "Bottom" 101 0 basechar 0
LayerCount: 2
Fore
SplineSet
482 313 m 1,0,-1
 360 313 l 1,1,2
 364 341 364 341 364 351 c 0,3,4
 364 412 364 412 303 412 c 0,5,6
 267 412 267 412 245 384.5 c 128,-1,7
 223 357 223 357 217 316 c 2,8,-1
 173 0 l 1,9,-1
 29 0 l 1,10,-1
 101 511 l 1,11,-1
 209 511 l 1,12,-1
 216 436 l 1,13,14
 234.996610169 470.827118644 234.996610169 470.827118644 281.498305085 495.913559322 c 128,-1,15
 328 521 328 521 380 521 c 128,-1,16
 432 521 432 521 463.5 487 c 128,-1,17
 495 453 495 453 495 396 c 0,18,19
 495 382 495 382 490 351.5 c 128,-1,20
 485 321 485 321 482 313 c 1,0,-1
73 -167 m 1,21,-1
 10 -167 l 1,22,-1
 29 -30 l 1,23,-1
 175 -30 l 1,24,-1
 159 -143 l 1,25,-1
 119 -250 l 1,26,-1
 45 -250 l 1,27,-1
 73 -167 l 1,21,-1
EndSplineSet
EndChar

StartChar: s
Encoding: 175 115 175
Width: 539
GlyphClass: 2
Flags: MW
HStem: -10 100<148 265 217 239> 200.78 120.03 421 100<304 320>
VStem: 12 131<124.5 131.5> 57 137<330.5 386.5 330.5 396.5> 352 140<124 189.5> 378 133<386.5 388.5>
AnchorPoint: "Bottom" 234 0 basechar 0
LayerCount: 2
Fore
SplineSet
511 397 m 0,0,1
 511 385 511 385 505 361 c 1,2,-1
 377 361 l 1,3,-1
 378 371 l 1,4,5
 378 421 378 421 294 421 c 0,6,7
 249 421 249 421 221.5 407.5 c 128,-1,8
 194 394 194 394 194 371.5 c 128,-1,9
 194 349 194 349 224.5 338 c 128,-1,10
 255 327 255 327 299 321 c 128,-1,11
 343 315 343 315 387 305 c 128,-1,12
 431 295 431 295 461.5 265.5 c 128,-1,13
 492 236 492 236 492 184.5 c 128,-1,14
 492 133 492 133 470 93.5 c 128,-1,15
 448 54 448 54 410.5 32 c 0,16,17
 338.909090909 -10 338.909090909 -10 239 -10 c 2,18,-1
 206 -10 l 2,19,20
 119 -10 119 -10 65.5 26.5 c 128,-1,21
 12 63 12 63 12 124 c 0,22,23
 12 143 12 143 16 163 c 1,24,-1
 144 163 l 1,25,26
 143 152 143 152 143 146 c 0,27,28
 143 90 143 90 242 90 c 0,29,30
 285 90 285 90 318.5 103 c 128,-1,31
 352 116 352 116 352 146 c 0,32,33
 352 183.907692308 352 183.907692308 275.5 194.5 c 0,34,35
 195.428571429 205.586813187 195.428571429 205.586813187 133.5 227.5 c 0,36,37
 101 239 101 239 79 266 c 128,-1,38
 57 293 57 293 57 343.5 c 128,-1,39
 57 394 57 394 93.5 437.5 c 0,40,41
 163.563218391 521 163.563218391 521 304 521 c 2,42,-1
 324 521 l 2,43,44
 400 521 400 521 455.5 486.5 c 128,-1,45
 511 452 511 452 511 397 c 0,0,1
EndSplineSet
EndChar

StartChar: sacute
Encoding: 176 347 176
Width: 539
GlyphClass: 2
Flags: MW
HStem: -10 100<148 265 217 239> 200.78 120.03 421 100<304 320> 575 145<224 466 224 466>
VStem: 12 131<124.5 131.5> 57 137<330.5 386.5 330.5 396.5> 352 140<124 189.5> 378 133<386.5 388.5>
AnchorPoint: "Bottom" 234 0 basechar 0
LayerCount: 2
Fore
SplineSet
337 720 m 1,0,-1
 466 720 l 1,1,-1
 466 716 l 1,2,-1
 325 575 l 1,3,-1
 224 575 l 1,4,-1
 337 720 l 1,0,-1
511 397 m 0,5,6
 511 385 511 385 505 361 c 1,7,-1
 377 361 l 1,8,-1
 378 371 l 1,9,10
 378 421 378 421 294 421 c 0,11,12
 249 421 249 421 221.5 407.5 c 128,-1,13
 194 394 194 394 194 371.5 c 128,-1,14
 194 349 194 349 224.5 338 c 128,-1,15
 255 327 255 327 299 321 c 128,-1,16
 343 315 343 315 387 305 c 128,-1,17
 431 295 431 295 461.5 265.5 c 128,-1,18
 492 236 492 236 492 184.5 c 128,-1,19
 492 133 492 133 470 93.5 c 128,-1,20
 448 54 448 54 410.5 32 c 0,21,22
 338.909090909 -10 338.909090909 -10 239 -10 c 2,23,-1
 206 -10 l 2,24,25
 119 -10 119 -10 65.5 26.5 c 128,-1,26
 12 63 12 63 12 124 c 0,27,28
 12 143 12 143 16 163 c 1,29,-1
 144 163 l 1,30,31
 143 152 143 152 143 146 c 0,32,33
 143 90 143 90 242 90 c 0,34,35
 285 90 285 90 318.5 103 c 128,-1,36
 352 116 352 116 352 146 c 0,37,38
 352 183.907692308 352 183.907692308 275.5 194.5 c 0,39,40
 195.428571429 205.586813187 195.428571429 205.586813187 133.5 227.5 c 0,41,42
 101 239 101 239 79 266 c 128,-1,43
 57 293 57 293 57 343.5 c 128,-1,44
 57 394 57 394 93.5 437.5 c 0,45,46
 163.563218391 521 163.563218391 521 304 521 c 2,47,-1
 324 521 l 2,48,49
 400 521 400 521 455.5 486.5 c 128,-1,50
 511 452 511 452 511 397 c 0,5,6
EndSplineSet
EndChar

StartChar: scaron
Encoding: 177 353 177
Width: 541
GlyphClass: 2
Flags: MW
HStem: -10 100<148 265 217 239> 200.78 120.03 421 100<304 320> 575 145<141 361 141 258>
VStem: 12 131<124.5 131.5> 57 137<330.5 386.5 330.5 396.5> 352 140<124 189.5> 378 133<386.5 388.5>
LayerCount: 2
Fore
SplineSet
519 720 m 1,0,-1
 361 575 l 1,1,-1
 258 575 l 1,2,-1
 141 720 l 1,3,-1
 246 720 l 1,4,-1
 319 637 l 1,5,-1
 415 720 l 1,6,-1
 519 720 l 1,0,-1
511 397 m 0,7,8
 511 385 511 385 505 361 c 1,9,-1
 377 361 l 1,10,-1
 378 371 l 1,11,12
 378 421 378 421 294 421 c 0,13,14
 249 421 249 421 221.5 407.5 c 128,-1,15
 194 394 194 394 194 371.5 c 128,-1,16
 194 349 194 349 224.5 338 c 128,-1,17
 255 327 255 327 299 321 c 128,-1,18
 343 315 343 315 387 305 c 128,-1,19
 431 295 431 295 461.5 265.5 c 128,-1,20
 492 236 492 236 492 184.5 c 128,-1,21
 492 133 492 133 470 93.5 c 128,-1,22
 448 54 448 54 410.5 32 c 0,23,24
 338.909090909 -10 338.909090909 -10 239 -10 c 2,25,-1
 206 -10 l 2,26,27
 119 -10 119 -10 65.5 26.5 c 128,-1,28
 12 63 12 63 12 124 c 0,29,30
 12 143 12 143 16 163 c 1,31,-1
 144 163 l 1,32,33
 143 152 143 152 143 146 c 0,34,35
 143 90 143 90 242 90 c 0,36,37
 285 90 285 90 318.5 103 c 128,-1,38
 352 116 352 116 352 146 c 0,39,40
 352 183.907692308 352 183.907692308 275.5 194.5 c 0,41,42
 195.428571429 205.586813187 195.428571429 205.586813187 133.5 227.5 c 0,43,44
 101 239 101 239 79 266 c 128,-1,45
 57 293 57 293 57 343.5 c 128,-1,46
 57 394 57 394 93.5 437.5 c 0,47,48
 163.563218391 521 163.563218391 521 304 521 c 2,49,-1
 324 521 l 2,50,51
 400 521 400 521 455.5 486.5 c 128,-1,52
 511 452 511 452 511 397 c 0,7,8
EndSplineSet
EndChar

StartChar: scedilla
Encoding: 178 351 178
Width: 539
GlyphClass: 2
Flags: MW
HStem: -197 55<185.5 221.5 184.5 227> -68 51<209 222 202 232> -10 100<148 265 217 239> 200.78 120.03 421 100<304 320>
VStem: 12 131<124.5 131.5> 57 137<330.5 386.5 330.5 396.5> 262 75<-114.5 -89> 352 140<124 189.5> 378 133<386.5 388.5>
AnchorPoint: "Bottom" 234 0 basechar 0
LayerCount: 2
Fore
SplineSet
511 397 m 0,0,1
 511 385 511 385 505 361 c 1,2,-1
 377 361 l 1,3,-1
 378 371 l 1,4,5
 378 421 378 421 294 421 c 0,6,7
 249 421 249 421 221.5 407.5 c 128,-1,8
 194 394 194 394 194 371.5 c 128,-1,9
 194 349 194 349 224.5 338 c 128,-1,10
 255 327 255 327 299 321 c 128,-1,11
 343 315 343 315 387 305 c 128,-1,12
 431 295 431 295 461.5 265.5 c 128,-1,13
 492 236 492 236 492 184.5 c 128,-1,14
 492 133 492 133 470 93.5 c 128,-1,15
 448 54 448 54 410.5 32 c 0,16,17
 338.909090909 -10 338.909090909 -10 239 -10 c 2,18,-1
 206 -10 l 2,19,20
 119 -10 119 -10 65.5 26.5 c 128,-1,21
 12 63 12 63 12 124 c 0,22,23
 12 143 12 143 16 163 c 1,24,-1
 144 163 l 1,25,26
 143 152 143 152 143 146 c 0,27,28
 143 90 143 90 242 90 c 0,29,30
 285 90 285 90 318.5 103 c 128,-1,31
 352 116 352 116 352 146 c 0,32,33
 352 183.907692308 352 183.907692308 275.5 194.5 c 0,34,35
 195.428571429 205.586813187 195.428571429 205.586813187 133.5 227.5 c 0,36,37
 101 239 101 239 79 266 c 128,-1,38
 57 293 57 293 57 343.5 c 128,-1,39
 57 394 57 394 93.5 437.5 c 0,40,41
 163.563218391 521 163.563218391 521 304 521 c 2,42,-1
 324 521 l 2,43,44
 400 521 400 521 455.5 486.5 c 128,-1,45
 511 452 511 452 511 397 c 0,0,1
100 -168 m 1,46,-1
 128 -116 l 2,47,48
 129 -116 129 -116 134 -119.5 c 128,-1,49
 139 -123 139 -123 145.5 -126.5 c 128,-1,50
 152 -130 152 -130 161 -133.5 c 0,51,52
 182.857142857 -142 182.857142857 -142 206.928571429 -142 c 128,-1,53
 231 -142 231 -142 246.5 -131.5 c 128,-1,54
 262 -121 262 -121 262 -99 c 0,55,56
 262 -68 262 -68 222 -68 c 2,57,-1
 202 -68 l 1,58,-1
 209 -17 l 1,59,-1
 232 -17 l 2,60,61
 337 -17 337 -17 337 -91 c 0,62,63
 337 -132 337 -132 312 -157.5 c 128,-1,64
 287 -183 287 -183 260 -190 c 128,-1,65
 233 -197 233 -197 204 -197 c 0,66,67
 137 -197 137 -197 100 -168 c 1,46,-1
EndSplineSet
EndChar

StartChar: scommaaccent
Encoding: 179 537 179
Width: 539
GlyphClass: 2
Flags: MW
HStem: -167 137<162 206 143 308> -10 100<148 265 217 239> 200.78 120.03 421 100<304 320>
VStem: 12 131<124.5 131.5> 57 137<330.5 386.5 330.5 396.5> 352 140<124 189.5> 378 133<386.5 388.5>
AnchorPoint: "Bottom" 234 0 basechar 0
LayerCount: 2
Fore
SplineSet
511 397 m 0,0,1
 511 385 511 385 505 361 c 1,2,-1
 377 361 l 1,3,-1
 378 371 l 1,4,5
 378 421 378 421 294 421 c 0,6,7
 249 421 249 421 221.5 407.5 c 128,-1,8
 194 394 194 394 194 371.5 c 128,-1,9
 194 349 194 349 224.5 338 c 128,-1,10
 255 327 255 327 299 321 c 128,-1,11
 343 315 343 315 387 305 c 128,-1,12
 431 295 431 295 461.5 265.5 c 128,-1,13
 492 236 492 236 492 184.5 c 128,-1,14
 492 133 492 133 470 93.5 c 128,-1,15
 448 54 448 54 410.5 32 c 0,16,17
 338.909090909 -10 338.909090909 -10 239 -10 c 2,18,-1
 206 -10 l 2,19,20
 119 -10 119 -10 65.5 26.5 c 128,-1,21
 12 63 12 63 12 124 c 0,22,23
 12 143 12 143 16 163 c 1,24,-1
 144 163 l 1,25,26
 143 152 143 152 143 146 c 0,27,28
 143 90 143 90 242 90 c 0,29,30
 285 90 285 90 318.5 103 c 128,-1,31
 352 116 352 116 352 146 c 0,32,33
 352 183.907692308 352 183.907692308 275.5 194.5 c 0,34,35
 195.428571429 205.586813187 195.428571429 205.586813187 133.5 227.5 c 0,36,37
 101 239 101 239 79 266 c 128,-1,38
 57 293 57 293 57 343.5 c 128,-1,39
 57 394 57 394 93.5 437.5 c 0,40,41
 163.563218391 521 163.563218391 521 304 521 c 2,42,-1
 324 521 l 2,43,44
 400 521 400 521 455.5 486.5 c 128,-1,45
 511 452 511 452 511 397 c 0,0,1
206 -167 m 1,46,-1
 143 -167 l 1,47,-1
 162 -30 l 1,48,-1
 308 -30 l 1,49,-1
 292 -143 l 1,50,-1
 252 -250 l 1,51,-1
 178 -250 l 1,52,-1
 206 -167 l 1,46,-1
EndSplineSet
EndChar

StartChar: germandbls
Encoding: 180 223 180
Width: 622
GlyphClass: 2
Flags: MW
HStem: 0 100<246 297 297 305 232 297> 331 100<293 330 279 339> 411 100<50 96 36 110> 628 100<337 390>
VStem: 425 145<197 269.5> 448 145<535.5 573.5>
LayerCount: 2
Fore
SplineSet
570 239 m 0,0,1
 570 136 570 136 494 68 c 128,-1,2
 418 0 418 0 305 0 c 2,3,-1
 232 0 l 1,4,-1
 246 100 l 1,5,-1
 297 100 l 2,6,7
 347 100 347 100 386 139 c 128,-1,8
 425 178 425 178 425 242 c 0,9,10
 425 283 425 283 398.5 307 c 128,-1,11
 372 331 372 331 330 331 c 2,12,-1
 279 331 l 1,13,-1
 293 431 l 1,14,-1
 339 431 l 2,15,16
 382 431 382 431 415 465 c 128,-1,17
 448 499 448 499 448 542 c 0,18,19
 448 585 448 585 425.5 606.5 c 128,-1,20
 403 628 403 628 363 628 c 0,21,22
 323 628 323 628 293.5 599 c 128,-1,23
 264 570 264 570 258 526 c 2,24,-1
 175 -66 l 1,25,-1
 29 -66 l 1,26,-1
 96 411 l 1,27,-1
 36 411 l 1,28,-1
 50 511 l 1,29,-1
 110 511 l 1,30,31
 127 610 127 610 206 669 c 128,-1,32
 285 728 285 728 378.5 728 c 0,33,34
 472 728 472 728 532.5 688 c 128,-1,35
 593 648 593 648 593 574 c 0,36,37
 593 516 593 516 558.5 464.5 c 128,-1,38
 524 413 524 413 472 393 c 1,39,-1
 473 388 l 1,40,41
 517 372 517 372 543.5 331 c 128,-1,42
 570 290 570 290 570 239 c 0,0,1
EndSplineSet
EndChar

StartChar: t
Encoding: 181 116 181
Width: 371
GlyphClass: 2
Flags: MW
HStem: -10 100<140.5 253.5> 411 100<47 89 33 104 249 354>
VStem: 33 335<411 511> 47 150<59 144.5>
AnchorPoint: "Bottom" 150 0 basechar 0
LayerCount: 2
Fore
SplineSet
310 103 m 1,0,-1
 297 9 l 1,1,2
 249 -10 249 -10 182.5 -10 c 0,3,4
 116 -10 116 -10 81.5 15.5 c 128,-1,5
 47 41 47 41 47 99 c 0,6,7
 47 114 47 114 89 411 c 1,8,-1
 33 411 l 1,9,-1
 47 511 l 1,10,-1
 104 511 l 1,11,-1
 127 674 l 1,12,-1
 281 674 l 1,13,-1
 249 511 l 1,14,-1
 368 511 l 1,15,-1
 354 411 l 1,16,-1
 235 411 l 1,17,18
 197 144 197 144 197 139 c 0,19,20
 197 90 197 90 246 90 c 0,21,22
 278 90 278 90 310 103 c 1,0,-1
EndSplineSet
EndChar

StartChar: tcaron
Encoding: 182 357 182
Width: 371
GlyphClass: 2
Flags: MW
HStem: -10 21G<140.5 200> -10 100<140.5 253.5> 395 116 411 100<47 89 33 104 249 354> 539 135<127 438 127 375> 539 147<396 438 375 542>
VStem: 33 509<411 686> 47 150<59 144.5>
AnchorPoint: "Bottom" 150 0 basechar 0
LayerCount: 2
Fore
SplineSet
438 539 m 1,0,-1
 375 539 l 1,1,-1
 396 686 l 1,2,-1
 542 686 l 1,3,-1
 525 563 l 1,4,-1
 459 395 l 1,5,-1
 386 395 l 1,6,-1
 438 539 l 1,0,-1
310 103 m 1,7,-1
 297 9 l 1,8,9
 249 -10 249 -10 182.5 -10 c 0,10,11
 116 -10 116 -10 81.5 15.5 c 128,-1,12
 47 41 47 41 47 99 c 0,13,14
 47 114 47 114 89 411 c 1,15,-1
 33 411 l 1,16,-1
 47 511 l 1,17,-1
 104 511 l 1,18,-1
 127 674 l 1,19,-1
 281 674 l 1,20,-1
 249 511 l 1,21,-1
 368 511 l 1,22,-1
 354 411 l 1,23,-1
 235 411 l 1,24,25
 197 144 197 144 197 139 c 0,26,27
 197 90 197 90 246 90 c 0,28,29
 278 90 278 90 310 103 c 1,7,-1
EndSplineSet
EndChar

StartChar: tcedilla
Encoding: 183 355 183
Width: 371
GlyphClass: 2
Flags: MW
HStem: -197 55<101.5 137.5 100.5 143> -68 51<125 138 118 148> -10 100<140.5 253.5> 411 100<47 89 33 104 249 354>
VStem: 47 150<59 144.5> 178 75<-114.5 -89>
AnchorPoint: "Bottom" 150 0 basechar 0
LayerCount: 2
Fore
SplineSet
310 103 m 1,0,-1
 297 9 l 1,1,2
 249 -10 249 -10 182.5 -10 c 128,-1,3
 116 -10 116 -10 81.5 15.5 c 128,-1,4
 47 41 47 41 47 99 c 0,5,6
 47 114 47 114 89 411 c 1,7,-1
 33 411 l 1,8,-1
 47 511 l 1,9,-1
 104 511 l 1,10,-1
 127 674 l 1,11,-1
 281 674 l 1,12,-1
 249 511 l 1,13,-1
 368 511 l 1,14,-1
 354 411 l 1,15,-1
 235 411 l 1,16,17
 197 144 197 144 197 139 c 0,18,19
 197 90 197 90 246 90 c 0,20,21
 278 90 278 90 310 103 c 1,0,-1
16 -168 m 1,22,-1
 44 -116 l 2,23,24
 45 -116 45 -116 50 -119.5 c 128,-1,25
 55 -123 55 -123 61.5 -126.5 c 128,-1,26
 68 -130 68 -130 77 -133.5 c 0,27,28
 98.8571428571 -142 98.8571428571 -142 122.928571429 -142 c 128,-1,29
 147 -142 147 -142 162.5 -131.5 c 128,-1,30
 178 -121 178 -121 178 -99 c 0,31,32
 178 -68 178 -68 138 -68 c 2,33,-1
 118 -68 l 1,34,-1
 125 -17 l 1,35,-1
 148 -17 l 2,36,37
 253 -17 253 -17 253 -91 c 0,38,39
 253 -132 253 -132 228 -157.5 c 128,-1,40
 203 -183 203 -183 176 -190 c 128,-1,41
 149 -197 149 -197 120 -197 c 0,42,43
 53 -197 53 -197 16 -168 c 1,22,-1
EndSplineSet
EndChar

StartChar: tcommaaccent
Encoding: 184 539 184
Width: 371
GlyphClass: 2
Flags: MW
HStem: -167 137<78 122 59 224> -10 21G<140.5 200> -10 100<140.5 253.5> 411 100<47 89 33 104 249 354>
VStem: 33 335<411 511> 47 150<59 144.5>
AnchorPoint: "Bottom" 150 0 basechar 0
LayerCount: 2
Fore
SplineSet
310 103 m 1,0,-1
 297 9 l 1,1,2
 249 -10 249 -10 182.5 -10 c 0,3,4
 116 -10 116 -10 81.5 15.5 c 128,-1,5
 47 41 47 41 47 99 c 0,6,7
 47 114 47 114 89 411 c 1,8,-1
 33 411 l 1,9,-1
 47 511 l 1,10,-1
 104 511 l 1,11,-1
 127 674 l 1,12,-1
 281 674 l 1,13,-1
 249 511 l 1,14,-1
 368 511 l 1,15,-1
 354 411 l 1,16,-1
 235 411 l 1,17,18
 197 144 197 144 197 139 c 0,19,20
 197 90 197 90 246 90 c 0,21,22
 278 90 278 90 310 103 c 1,0,-1
122 -167 m 1,23,-1
 59 -167 l 1,24,-1
 78 -30 l 1,25,-1
 224 -30 l 1,26,-1
 208 -143 l 1,27,-1
 168 -250 l 1,28,-1
 94 -250 l 1,29,-1
 122 -167 l 1,23,-1
EndSplineSet
EndChar

StartChar: u
Encoding: 185 117 185
Width: 612
GlyphClass: 2
Flags: MW
HStem: -10 100<441 544.5> -10 106<161.5 293.5> 491 20G<100 246 246 246 421 567 567 567>
VStem: 48 151<79 174.5>
LayerCount: 2
Fore
SplineSet
567 511 m 1,0,1
 511 114.058823529 511 114.058823529 511 114 c 0,2,3
 511 90 511 90 537 90 c 0,4,5
 557 90 557 90 579 101 c 1,6,-1
 567 11 l 1,7,8
 525 -10 525 -10 476 -10 c 0,9,10
 376 -10 376 -10 370 63 c 1,11,12
 297 -10 297 -10 206 -10 c 0,13,14
 136 -10 136 -10 92 24.5 c 128,-1,15
 48 59 48 59 48 125 c 0,16,17
 48 144 48 144 100 511 c 1,18,-1
 246 511 l 1,19,20
 199 181 199 181 199 170 c 0,21,22
 199 96 199 96 268 96 c 0,23,24
 307 96 307 96 339 125.5 c 128,-1,25
 371 155 371 155 377 197 c 2,26,-1
 421 511 l 1,27,-1
 567 511 l 1,0,1
EndSplineSet
EndChar

StartChar: uacute
Encoding: 186 250 186
Width: 611
GlyphClass: 2
Flags: MW
HStem: -10 100<441 544.5> -10 106<161.5 293.5> 491 20G<100 246 246 246 421 567 567 567> 575 145<292 534 292 534>
VStem: 48 151<79 174.5>
LayerCount: 2
Fore
SplineSet
405 720 m 1,0,-1
 534 720 l 1,1,-1
 534 716 l 1,2,-1
 393 575 l 1,3,-1
 292 575 l 1,4,-1
 405 720 l 1,0,-1
567 511 m 1,5,6
 511 114.058823529 511 114.058823529 511 114 c 0,7,8
 511 90 511 90 537 90 c 0,9,10
 557 90 557 90 579 101 c 1,11,-1
 567 11 l 1,12,13
 525 -10 525 -10 476 -10 c 0,14,15
 376 -10 376 -10 370 63 c 1,16,17
 297 -10 297 -10 206 -10 c 0,18,19
 136 -10 136 -10 92 24.5 c 128,-1,20
 48 59 48 59 48 125 c 0,21,22
 48 144 48 144 100 511 c 1,23,-1
 246 511 l 1,24,25
 199 181 199 181 199 170 c 0,26,27
 199 96 199 96 268 96 c 0,28,29
 307 96 307 96 339 125.5 c 128,-1,30
 371 155 371 155 377 197 c 2,31,-1
 421 511 l 1,32,-1
 567 511 l 1,5,6
EndSplineSet
EndChar

StartChar: ucircumflex
Encoding: 187 251 187
Width: 611
GlyphClass: 2
Flags: MW
HStem: -10 100<441 544.5> -10 106<161.5 293.5> 491 20G<100 246 246 246 421 567 567 567> 575 145<147 409 306 525 306 420>
VStem: 48 151<79 174.5>
LayerCount: 2
Fore
SplineSet
306 720 m 1,0,-1
 409 720 l 1,1,2
 478 633 478 633 525 575 c 1,3,-1
 420 575 l 1,4,-1
 348 658 l 1,5,-1
 251 575 l 1,6,-1
 147 575 l 1,7,-1
 306 720 l 1,0,-1
567 511 m 1,8,9
 511 114.058823529 511 114.058823529 511 114 c 0,10,11
 511 90 511 90 537 90 c 0,12,13
 557 90 557 90 579 101 c 1,14,-1
 567 11 l 1,15,16
 525 -10 525 -10 476 -10 c 0,17,18
 376 -10 376 -10 370 63 c 1,19,20
 297 -10 297 -10 206 -10 c 0,21,22
 136 -10 136 -10 92 24.5 c 128,-1,23
 48 59 48 59 48 125 c 0,24,25
 48 144 48 144 100 511 c 1,26,-1
 246 511 l 1,27,28
 199 181 199 181 199 170 c 0,29,30
 199 96 199 96 268 96 c 0,31,32
 307 96 307 96 339 125.5 c 128,-1,33
 371 155 371 155 377 197 c 2,34,-1
 421 511 l 1,35,-1
 567 511 l 1,8,9
EndSplineSet
EndChar

StartChar: udieresis
Encoding: 188 252 188
Width: 611
GlyphClass: 2
Flags: MW
HStem: -10 100<441 544.5> -10 106<161.5 293.5> 491 20G<100 246 246 246 421 567 567 567> 598 122<194 298 177 315 194 381 398 502>
VStem: 48 151<79 174.5>
LayerCount: 2
Fore
SplineSet
315 720 m 1,0,-1
 298 598 l 1,1,-1
 177 598 l 1,2,-1
 194 720 l 1,3,-1
 315 720 l 1,0,-1
519 720 m 1,4,-1
 502 598 l 1,5,-1
 381 598 l 1,6,-1
 398 720 l 1,7,-1
 519 720 l 1,4,-1
567 511 m 1,8,9
 511 114.058823529 511 114.058823529 511 114 c 0,10,11
 511 90 511 90 537 90 c 0,12,13
 557 90 557 90 579 101 c 1,14,-1
 567 11 l 1,15,16
 525 -10 525 -10 476 -10 c 0,17,18
 376 -10 376 -10 370 63 c 1,19,20
 297 -10 297 -10 206 -10 c 0,21,22
 136 -10 136 -10 92 24.5 c 128,-1,23
 48 59 48 59 48 125 c 0,24,25
 48 144 48 144 100 511 c 1,26,-1
 246 511 l 1,27,28
 199 181 199 181 199 170 c 0,29,30
 199 96 199 96 268 96 c 0,31,32
 307 96 307 96 339 125.5 c 128,-1,33
 371 155 371 155 377 197 c 2,34,-1
 421 511 l 1,35,-1
 567 511 l 1,8,9
EndSplineSet
EndChar

StartChar: ugrave
Encoding: 189 249 189
Width: 611
GlyphClass: 2
Flags: MW
HStem: -10 100<441 544.5> -10 106<161.5 293.5> 491 20G<100 246 246 246 421 567 567 567> 575 145<285 315 187 387 285 285>
VStem: 48 151<79 174.5>
LayerCount: 2
Fore
SplineSet
185 717 m 1,0,-1
 187 720 l 1,1,-1
 315 720 l 1,2,-1
 387 575 l 1,3,-1
 285 575 l 1,4,-1
 185 717 l 1,0,-1
567 511 m 1,5,6
 511 114.058823529 511 114.058823529 511 114 c 0,7,8
 511 90 511 90 537 90 c 0,9,10
 557 90 557 90 579 101 c 1,11,-1
 567 11 l 1,12,13
 525 -10 525 -10 476 -10 c 0,14,15
 376 -10 376 -10 370 63 c 1,16,17
 297 -10 297 -10 206 -10 c 0,18,19
 136 -10 136 -10 92 24.5 c 128,-1,20
 48 59 48 59 48 125 c 0,21,22
 48 144 48 144 100 511 c 1,23,-1
 246 511 l 1,24,25
 199 181 199 181 199 170 c 0,26,27
 199 96 199 96 268 96 c 0,28,29
 307 96 307 96 339 125.5 c 128,-1,30
 371 155 371 155 377 197 c 2,31,-1
 421 511 l 1,32,-1
 567 511 l 1,5,6
EndSplineSet
EndChar

StartChar: uhungarumlaut
Encoding: 190 369 190
Width: 612
GlyphClass: 2
Flags: MW
HStem: -10 100<441 544.5> -10 106<161.5 293.5> 491 20G<100 246 246 246 421 567 567 567> 575 145<154 396 154 396 345 345 345 396 268 447>
VStem: 48 151<79 174.5>
LayerCount: 2
Fore
SplineSet
268 720 m 1,0,-1
 396 720 l 1,1,-1
 397 717 l 1,2,-1
 256 575 l 1,3,-1
 154 575 l 1,4,-1
 268 720 l 1,0,-1
459 720 m 1,5,-1
 587 720 l 1,6,-1
 588 717 l 1,7,-1
 447 575 l 1,8,-1
 345 575 l 1,9,-1
 459 720 l 1,5,-1
567 511 m 1,10,11
 511 114.058823529 511 114.058823529 511 114 c 0,12,13
 511 90 511 90 537 90 c 0,14,15
 557 90 557 90 579 101 c 1,16,-1
 567 11 l 1,17,18
 525 -10 525 -10 476 -10 c 0,19,20
 376 -10 376 -10 370 63 c 1,21,22
 297 -10 297 -10 206 -10 c 0,23,24
 136 -10 136 -10 92 24.5 c 128,-1,25
 48 59 48 59 48 125 c 0,26,27
 48 144 48 144 100 511 c 1,28,-1
 246 511 l 1,29,30
 199 181 199 181 199 170 c 0,31,32
 199 96 199 96 268 96 c 0,33,34
 307 96 307 96 339 125.5 c 128,-1,35
 371 155 371 155 377 197 c 2,36,-1
 421 511 l 1,37,-1
 567 511 l 1,10,11
EndSplineSet
EndChar

StartChar: umacron
Encoding: 191 363 191
Width: 612
GlyphClass: 2
Flags: MW
HStem: -10 100<441 544.5> -10 106<161.5 293.5> 491 20G<100 246 246 246 421 567 567 567> 662 74<215 522 204 533>
VStem: 48 151<79 174.5>
LayerCount: 2
Fore
SplineSet
215 736 m 1,0,-1
 533 736 l 1,1,-1
 522 662 l 1,2,-1
 204 662 l 1,3,-1
 215 736 l 1,0,-1
567 511 m 1,4,5
 511 114.058823529 511 114.058823529 511 114 c 0,6,7
 511 90 511 90 537 90 c 0,8,9
 557 90 557 90 579 101 c 1,10,-1
 567 11 l 1,11,12
 525 -10 525 -10 476 -10 c 0,13,14
 376 -10 376 -10 370 63 c 1,15,16
 297 -10 297 -10 206 -10 c 0,17,18
 136 -10 136 -10 92 24.5 c 128,-1,19
 48 59 48 59 48 125 c 0,20,21
 48 144 48 144 100 511 c 1,22,-1
 246 511 l 1,23,24
 199 181 199 181 199 170 c 0,25,26
 199 96 199 96 268 96 c 0,27,28
 307 96 307 96 339 125.5 c 128,-1,29
 371 155 371 155 377 197 c 2,30,-1
 421 511 l 1,31,-1
 567 511 l 1,4,5
EndSplineSet
EndChar

StartChar: uogonek
Encoding: 192 371 192
Width: 612
GlyphClass: 2
Flags: MW
HStem: -143 50<486.5 489.5> -10 106<161.5 293.5> -7 21G 491 20G<100 246 246 246 421 567 567 567>
VStem: 48 151<79 174.5> 386 71<-75 -66>
LayerCount: 2
Fore
SplineSet
567 511 m 1,0,1
 511 114.058823529 511 114.058823529 511 114 c 0,2,3
 511 90 511 90 537 90 c 0,4,5
 557 90 557 90 579 101 c 1,6,-1
 567 11 l 1,7,8
 528 -6 528 -6 497 -9 c 1,9,10
 457 -35 457 -35 457 -64 c 128,-1,11
 457 -93 457 -93 491.5 -93 c 128,-1,12
 526 -93 526 -93 565 -79 c 1,13,-1
 573 -119 l 1,14,15
 526 -143 526 -143 473 -143 c 0,16,17
 386 -143 386 -143 386 -83 c 0,18,19
 386 -42 386 -42 440 -7 c 1,20,21
 375 5 375 5 370 63 c 1,22,23
 297 -10 297 -10 206 -10 c 0,24,25
 136 -10 136 -10 92 24.5 c 128,-1,26
 48 59 48 59 48 125 c 0,27,28
 48 144 48 144 100 511 c 1,29,-1
 246 511 l 1,30,31
 199 181 199 181 199 170 c 0,32,33
 199 96 199 96 268 96 c 0,34,35
 307 96 307 96 339 125.5 c 128,-1,36
 371 155 371 155 377 197 c 2,37,-1
 421 511 l 1,38,-1
 567 511 l 1,0,1
EndSplineSet
EndChar

StartChar: uring
Encoding: 193 367 193
Width: 612
GlyphClass: 2
Flags: MW
HStem: -10 100<441 544.5> -10 106<161.5 293.5> 491 20G<100 246 246 246 421 567 567 567> 545 53<344.5 369.5 344.5 381> 693 53<351.5 377.5>
VStem: 48 151<79 174.5> 259 56<629 656 629 666.5> 408 55<633.5 661.5>
LayerCount: 2
Fore
SplineSet
437 720.5 m 128,-1,1
 463 695 463 695 463 652.5 c 128,-1,2
 463 610 463 610 429.5 577.5 c 128,-1,3
 396 545 396 545 353.5 545 c 128,-1,4
 311 545 311 545 285 570.5 c 128,-1,5
 259 596 259 596 259 638.5 c 128,-1,6
 259 681 259 681 293 713.5 c 128,-1,7
 327 746 327 746 369 746 c 128,-1,0
 411 746 411 746 437 720.5 c 128,-1,1
327 610.5 m 128,-1,9
 339 598 339 598 358 598 c 128,-1,10
 377 598 377 598 392.5 612.5 c 128,-1,11
 408 627 408 627 408 647.5 c 128,-1,12
 408 668 408 668 396 680.5 c 128,-1,13
 384 693 384 693 364 693 c 128,-1,14
 344 693 344 693 329.5 678 c 128,-1,15
 315 663 315 663 315 643 c 128,-1,8
 315 623 315 623 327 610.5 c 128,-1,9
567 511 m 1,16,17
 511 114.058823529 511 114.058823529 511 114 c 0,18,19
 511 90 511 90 537 90 c 0,20,21
 557 90 557 90 579 101 c 1,22,-1
 567 11 l 1,23,24
 525 -10 525 -10 476 -10 c 0,25,26
 376 -10 376 -10 370 63 c 1,27,28
 297 -10 297 -10 206 -10 c 0,29,30
 136 -10 136 -10 92 24.5 c 128,-1,31
 48 59 48 59 48 125 c 0,32,33
 48 144 48 144 100 511 c 1,34,-1
 246 511 l 1,35,36
 199 181 199 181 199 170 c 0,37,38
 199 96 199 96 268 96 c 0,39,40
 307 96 307 96 339 125.5 c 128,-1,41
 371 155 371 155 377 197 c 2,42,-1
 421 511 l 1,43,-1
 567 511 l 1,16,17
EndSplineSet
EndChar

StartChar: v
Encoding: 194 118 194
Width: 536
GlyphClass: 2
Flags: MW
HStem: 0 21G<149 149 149 314> 0 169<149 264 259 264 259 314> 491 20G<41 196 196 196 423 565 565 565>
VStem: 41 524<511 511>
LayerCount: 2
Fore
SplineSet
149 0 m 1,0,-1
 41 511 l 1,1,-1
 196 511 l 1,2,-1
 259 169 l 1,3,-1
 264 169 l 1,4,-1
 423 511 l 1,5,-1
 565 511 l 1,6,-1
 314 0 l 1,7,-1
 149 0 l 1,0,-1
EndSplineSet
EndChar

StartChar: w
Encoding: 195 119 195
Width: 820
GlyphClass: 2
Flags: MW
HStem: 0 21G<126 289 126 126 461 461 461 622> 0 195<236 242 236 289 126 242 568 574> 491 20G<41 192 192 192 377 523 523 523 707 849 849 849>
VStem: 41 808<511 511>
LayerCount: 2
Fore
SplineSet
523 511 m 1,0,-1
 568 195 l 1,1,-1
 574 195 l 1,2,3
 664 405 664 405 707 511 c 1,4,-1
 849 511 l 1,5,-1
 622 0 l 1,6,-1
 461 0 l 1,7,-1
 417 285 l 1,8,-1
 411 285 l 1,9,-1
 289 0 l 1,10,-1
 126 0 l 1,11,-1
 41 511 l 1,12,-1
 192 511 l 1,13,14
 208 405 208 405 236 195 c 1,15,-1
 242 195 l 1,16,17
 364 479 364 479 377 511 c 1,18,-1
 523 511 l 1,0,-1
EndSplineSet
EndChar

StartChar: x
Encoding: 196 120 196
Width: 553
GlyphClass: 2
Flags: MW
HStem: 0 21G<-29 128 -29 -29 341 510 341 341> 491 20G<55 225 225 225 413 571 571 571>
VStem: -29 600<0 511>
LayerCount: 2
Fore
SplineSet
225 511 m 1,0,-1
 296 365 l 1,1,-1
 300 365 l 1,2,3
 339 413 339 413 413 511 c 1,4,-1
 571 511 l 1,5,-1
 370 265 l 1,6,-1
 510 0 l 1,7,-1
 341 0 l 1,8,-1
 260 165 l 1,9,-1
 256 165 l 1,10,-1
 128 0 l 1,11,-1
 -29 0 l 1,12,-1
 186 264 l 1,13,-1
 55 511 l 1,14,-1
 225 511 l 1,0,-1
EndSplineSet
EndChar

StartChar: y
Encoding: 197 121 197
Width: 536
GlyphClass: 2
Flags: MW
HStem: -187 104<61 94.5 61 131.5> 491 20G<55 210 210 210 435 579 579 579>
VStem: -5 584
LayerCount: 2
Fore
SplineSet
579 511 m 1,0,-1
 329 28 l 2,1,2
 218 -187 218 -187 77 -187 c 0,3,4
 24 -187 24 -187 -5 -172 c 1,5,-1
 8 -69 l 1,6,7
 38 -83 38 -83 73 -83 c 0,8,9
 137 -83 137 -83 177 10 c 1,10,-1
 55 511 l 1,11,-1
 210 511 l 1,12,-1
 277 190 l 1,13,-1
 283 190 l 1,14,-1
 435 511 l 1,15,-1
 579 511 l 1,0,-1
EndSplineSet
EndChar

StartChar: yacute
Encoding: 198 253 198
Width: 545
GlyphClass: 2
Flags: MW
HStem: -187 104<65 98.5 65 135.5> 491 20G<59 214 214 214 439 583 583 583> 575 145<280 522 280 522>
VStem: -1 584
LayerCount: 2
Fore
SplineSet
393 720 m 1,0,-1
 522 720 l 1,1,-1
 522 716 l 1,2,-1
 381 575 l 1,3,-1
 280 575 l 1,4,-1
 393 720 l 1,0,-1
583 511 m 1,5,-1
 333 28 l 2,6,7
 222 -187 222 -187 81 -187 c 0,8,9
 28 -187 28 -187 -1 -172 c 1,10,-1
 12 -69 l 1,11,12
 42 -83 42 -83 77 -83 c 0,13,14
 141 -83 141 -83 181 10 c 1,15,-1
 59 511 l 1,16,-1
 214 511 l 1,17,-1
 281 190 l 1,18,-1
 287 190 l 1,19,-1
 439 511 l 1,20,-1
 583 511 l 1,5,-1
EndSplineSet
EndChar

StartChar: ydieresis
Encoding: 199 255 199
Width: 545
GlyphClass: 2
Flags: MW
HStem: -187 104<65 98.5 65 135.5> 491 20G<59 214 214 214 439 583 583 583> 598 122<180 284 163 301 180 367 384 488>
VStem: -1 584
LayerCount: 2
Fore
SplineSet
301 720 m 1,0,-1
 284 598 l 1,1,-1
 163 598 l 1,2,-1
 180 720 l 1,3,-1
 301 720 l 1,0,-1
505 720 m 1,4,-1
 488 598 l 1,5,-1
 367 598 l 1,6,-1
 384 720 l 1,7,-1
 505 720 l 1,4,-1
583 511 m 1,8,-1
 333 28 l 2,9,10
 222 -187 222 -187 81 -187 c 0,11,12
 28 -187 28 -187 -1 -172 c 1,13,-1
 12 -69 l 1,14,15
 42 -83 42 -83 77 -83 c 0,16,17
 141 -83 141 -83 181 10 c 1,18,-1
 59 511 l 1,19,-1
 214 511 l 1,20,-1
 281 190 l 1,21,-1
 287 190 l 1,22,-1
 439 511 l 1,23,-1
 583 511 l 1,8,-1
EndSplineSet
EndChar

StartChar: z
Encoding: 200 122 200
Width: 486
GlyphClass: 2
Flags: MW
HStem: 0 100<206 419> 411 100<84 275 70 482>
VStem: 0 482
LayerCount: 2
Fore
SplineSet
7 50 m 1,0,-1
 275 411 l 1,1,-1
 70 411 l 1,2,-1
 84 511 l 1,3,-1
 482 511 l 1,4,-1
 476 462 l 1,5,-1
 206 100 l 1,6,-1
 433 100 l 1,7,-1
 419 0 l 1,8,-1
 0 0 l 1,9,-1
 7 50 l 1,0,-1
EndSplineSet
EndChar

StartChar: zacute
Encoding: 201 378 201
Width: 486
GlyphClass: 2
Flags: MW
HStem: 0 100<206 419> 411 100<84 275 70 482> 575 145<197 439 197 439>
VStem: 0 482
LayerCount: 2
Fore
SplineSet
310 720 m 1,0,-1
 439 720 l 1,1,-1
 439 716 l 1,2,-1
 298 575 l 1,3,-1
 197 575 l 1,4,-1
 310 720 l 1,0,-1
7 50 m 1,5,-1
 275 411 l 1,6,-1
 70 411 l 1,7,-1
 84 511 l 1,8,-1
 482 511 l 1,9,-1
 476 462 l 1,10,-1
 206 100 l 1,11,-1
 433 100 l 1,12,-1
 419 0 l 1,13,-1
 0 0 l 1,14,-1
 7 50 l 1,5,-1
EndSplineSet
EndChar

StartChar: zcaron
Encoding: 202 382 202
Width: 486
GlyphClass: 2
Flags: MW
HStem: 0 100<206 419> 411 100<84 275 70 482> 575 145<109 329 109 226>
VStem: 0 487
LayerCount: 2
Fore
SplineSet
487 720 m 1,0,-1
 329 575 l 1,1,-1
 226 575 l 1,2,-1
 109 720 l 1,3,-1
 214 720 l 1,4,-1
 287 637 l 1,5,-1
 383 720 l 1,6,-1
 487 720 l 1,0,-1
7 50 m 1,7,-1
 275 411 l 1,8,-1
 70 411 l 1,9,-1
 84 511 l 1,10,-1
 482 511 l 1,11,-1
 476 462 l 1,12,-1
 206 100 l 1,13,-1
 433 100 l 1,14,-1
 419 0 l 1,15,-1
 0 0 l 1,16,-1
 7 50 l 1,7,-1
EndSplineSet
EndChar

StartChar: zdotaccent
Encoding: 203 380 203
Width: 486
GlyphClass: 2
Flags: MW
HStem: 0 100<206 419> 411 100<84 275 70 482> 604 132<288.5 311.5>
VStem: 235 133<658.5 679.5>
LayerCount: 2
Fore
SplineSet
351.5 719 m 128,-1,1
 368 702 368 702 368 675 c 128,-1,2
 368 648 368 648 345 626 c 128,-1,3
 322 604 322 604 294.5 604 c 128,-1,4
 267 604 267 604 251 620 c 128,-1,5
 235 636 235 636 235 663 c 128,-1,6
 235 690 235 690 256.5 713 c 128,-1,7
 278 736 278 736 306.5 736 c 128,-1,0
 335 736 335 736 351.5 719 c 128,-1,1
7 50 m 1,8,-1
 275 411 l 1,9,-1
 70 411 l 1,10,-1
 84 511 l 1,11,-1
 482 511 l 1,12,-1
 476 462 l 1,13,-1
 206 100 l 1,14,-1
 433 100 l 1,15,-1
 419 0 l 1,16,-1
 0 0 l 1,17,-1
 7 50 l 1,8,-1
EndSplineSet
EndChar

StartChar: fi
Encoding: 204 64257 204
Width: 641
GlyphClass: 3
Flags: MW
HStem: -185 20 0 21G<378 524 378 378> 411 100<44 91 31 105 251 356> 605 115<478 610 462 626> 630 98<296 305 242 333>
VStem: -108 734 109.5 141.5
LayerCount: 2
Fore
SplineSet
397 707 m 1,0,-1
 385 618 l 1,1,2
 349 630 349 630 325 630 c 0,3,4
 285 630 285 630 271.5 604 c 128,-1,5
 258 578 258 578 251 511 c 1,6,-1
 371 511 l 1,7,-1
 356 411 l 1,8,-1
 237 411 l 1,9,10
 201 153 201 153 180 -1 c 0,11,12
 156 -185 156 -185 -9 -185 c 0,13,14
 -73 -185 -73 -185 -108 -165 c 1,15,-1
 -96 -74 l 1,16,17
 -68 -87 -68 -87 -36 -87 c 0,18,19
 21 -87 21 -87 30 -21 c 0,20,21
 60 200 60 200 91 411 c 1,22,-1
 31 411 l 1,23,-1
 44 511 l 1,24,-1
 105 511 l 1,25,-1
 114 574 l 2,26,27
 136 728 136 728 290 728 c 0,28,29
 358 728 358 728 397 707 c 1,0,-1
626 720 m 1,30,-1
 610 605 l 1,31,-1
 462 605 l 1,32,-1
 478 720 l 1,33,-1
 626 720 l 1,30,-1
450 511 m 1,34,-1
 596 511 l 1,35,-1
 524 0 l 1,36,-1
 378 0 l 1,37,-1
 450 511 l 1,34,-1
EndSplineSet
Ligature2: "'liga' Standard Ligatures lookup 4 subtable" f i
EndChar

StartChar: fl
Encoding: 205 64258 205
Width: 642
GlyphClass: 3
Flags: MW
HStem: -185 20 0 21G<378 524 378 378> 411 100<44 91 31 105 251 356> 630 98<296 305 242 333>
VStem: -108 733 109.5 141.5
LayerCount: 2
Fore
SplineSet
397 707 m 1,0,-1
 385 618 l 1,1,2
 349 630 349 630 325 630 c 0,3,4
 285 630 285 630 271.5 604 c 128,-1,5
 258 578 258 578 251 511 c 1,6,-1
 371 511 l 1,7,-1
 356 411 l 1,8,-1
 237 411 l 1,9,10
 201 153 201 153 180 -1 c 0,11,12
 156 -185 156 -185 -9 -185 c 0,13,14
 -73 -185 -73 -185 -108 -165 c 1,15,-1
 -96 -74 l 1,16,17
 -68 -87 -68 -87 -36 -87 c 0,18,19
 21 -87 21 -87 30 -21 c 0,20,21
 60 200 60 200 91 411 c 1,22,-1
 31 411 l 1,23,-1
 44 511 l 1,24,-1
 105 511 l 1,25,-1
 114 574 l 2,26,27
 136 728 136 728 290 728 c 0,28,29
 358 728 358 728 397 707 c 1,0,-1
479 720 m 1,30,-1
 625 720 l 1,31,-1
 524 0 l 1,32,-1
 378 0 l 1,33,-1
 479 720 l 1,30,-1
EndSplineSet
Ligature2: "'liga' Standard Ligatures lookup 4 subtable" f l
EndChar

